  0
SECTION
  2
HEADER
  9
$ACADVER
  1
AC1032
  9
$ACADMAINTVER
 90
4
  9
$DWGCODEPAGE
  3
ANSI_1252
  9
$LASTSAVEDBY
  1
ezdxf
  9
$REQUIREDVERSIONS
160
0
  9
$INSBASE
 10
0.0
 20
0.0
 30
0.0
  9
$EXTMIN
 10
1e+20
 20
1e+20
 30
1e+20
  9
$EXTMAX
 10
-1e+20
 20
-1e+20
 30
-1e+20
  9
$LIMMIN
 10
0.0
 20
0.0
  9
$LIMMAX
 10
420.0
 20
297.0
  9
$ORTHOMODE
 70
0
  9
$REGENMODE
 70
1
  9
$FILLMODE
 70
1
  9
$QTEXTMODE
 70
0
  9
$MIRRTEXT
 70
1
  9
$LTSCALE
 40
1.0
  9
$ATTMODE
 70
1
  9
$TEXTSIZE
 40
2.5
  9
$TRACEWID
 40
1.0
  9
$TEXTSTYLE
  7
Standard
  9
$CLAYER
  8
0
  9
$CELTYPE
  6
ByLayer
  9
$CECOLOR
 62
256
  9
$CELTSCALE
 40
1.0
  9
$DISPSILH
 70
0
  9
$DIMSCALE
 40
1.0
  9
$DIMASZ
 40
2.5
  9
$DIMEXO
 40
0.625
  9
$DIMDLI
 40
3.75
  9
$DIMRND
 40
0.0
  9
$DIMDLE
 40
0.0
  9
$DIMEXE
 40
1.25
  9
$DIMTP
 40
0.0
  9
$DIMTM
 40
0.0
  9
$DIMTXT
 40
2.5
  9
$DIMCEN
 40
2.5
  9
$DIMTSZ
 40
0.0
  9
$DIMTOL
 70
0
  9
$DIMLIM
 70
0
  9
$DIMTIH
 70
0
  9
$DIMTOH
 70
0
  9
$DIMSE1
 70
0
  9
$DIMSE2
 70
0
  9
$DIMTAD
 70
1
  9
$DIMZIN
 70
8
  9
$DIMBLK
  1

  9
$DIMASO
 70
1
  9
$DIMSHO
 70
1
  9
$DIMPOST
  1

  9
$DIMAPOST
  1

  9
$DIMALT
 70
0
  9
$DIMALTD
 70
3
  9
$DIMALTF
 40
0.03937007874
  9
$DIMLFAC
 40
1.0
  9
$DIMTOFL
 70
1
  9
$DIMTVP
 40
0.0
  9
$DIMTIX
 70
0
  9
$DIMSOXD
 70
0
  9
$DIMSAH
 70
0
  9
$DIMBLK1
  1

  9
$DIMBLK2
  1

  9
$DIMSTYLE
  2
ISO-25
  9
$DIMCLRD
 70
0
  9
$DIMCLRE
 70
0
  9
$DIMCLRT
 70
0
  9
$DIMTFAC
 40
1.0
  9
$DIMGAP
 40
0.625
  9
$DIMJUST
 70
0
  9
$DIMSD1
 70
0
  9
$DIMSD2
 70
0
  9
$DIMTOLJ
 70
0
  9
$DIMTZIN
 70
8
  9
$DIMALTZ
 70
0
  9
$DIMALTTZ
 70
0
  9
$DIMUPT
 70
0
  9
$DIMDEC
 70
2
  9
$DIMTDEC
 70
2
  9
$DIMALTU
 70
2
  9
$DIMALTTD
 70
3
  9
$DIMTXSTY
  7
Standard
  9
$DIMAUNIT
 70
0
  9
$DIMADEC
 70
0
  9
$DIMALTRND
 40
0.0
  9
$DIMAZIN
 70
0
  9
$DIMDSEP
 70
44
  9
$DIMATFIT
 70
3
  9
$DIMFRAC
 70
0
  9
$DIMLDRBLK
  1

  9
$DIMLUNIT
 70
2
  9
$DIMLWD
 70
-2
  9
$DIMLWE
 70
-2
  9
$DIMTMOVE
 70
0
  9
$DIMFXL
 40
1.0
  9
$DIMFXLON
 70
0
  9
$DIMJOGANG
 40
0.785398163397
  9
$DIMTFILL
 70
0
  9
$DIMTFILLCLR
 70
0
  9
$DIMARCSYM
 70
0
  9
$DIMLTYPE
  6

  9
$DIMLTEX1
  6

  9
$DIMLTEX2
  6

  9
$DIMTXTDIRECTION
 70
0
  9
$LUNITS
 70
2
  9
$LUPREC
 70
4
  9
$SKETCHINC
 40
1.0
  9
$FILLETRAD
 40
10.0
  9
$AUNITS
 70
0
  9
$AUPREC
 70
2
  9
$MENU
  1
.
  9
$ELEVATION
 40
0.0
  9
$PELEVATION
 40
0.0
  9
$THICKNESS
 40
0.0
  9
$LIMCHECK
 70
0
  9
$CHAMFERA
 40
0.0
  9
$CHAMFERB
 40
0.0
  9
$CHAMFERC
 40
0.0
  9
$CHAMFERD
 40
0.0
  9
$SKPOLY
 70
0
  9
$TDCREATE
 40
2461069.5553819444
  9
$TDUCREATE
 40
2458532.153996898
  9
$TDUPDATE
 40
2461069.5553819444
  9
$TDUUPDATE
 40
2458532.1544311
  9
$TDINDWG
 40
0.0
  9
$TDUSRTIMER
 40
0.0
  9
$USRTIMER
 70
1
  9
$ANGBASE
 50
0.0
  9
$ANGDIR
 70
0
  9
$PDMODE
 70
0
  9
$PDSIZE
 40
0.0
  9
$PLINEWID
 40
0.0
  9
$SPLFRAME
 70
0
  9
$SPLINETYPE
 70
6
  9
$SPLINESEGS
 70
8
  9
$HANDSEED
  5
4FA
  9
$SURFTAB1
 70
6
  9
$SURFTAB2
 70
6
  9
$SURFTYPE
 70
6
  9
$SURFU
 70
6
  9
$SURFV
 70
6
  9
$UCSBASE
  2

  9
$UCSNAME
  2

  9
$UCSORG
 10
0.0
 20
0.0
 30
0.0
  9
$UCSXDIR
 10
1.0
 20
0.0
 30
0.0
  9
$UCSYDIR
 10
0.0
 20
1.0
 30
0.0
  9
$UCSORTHOREF
  2

  9
$UCSORTHOVIEW
 70
0
  9
$UCSORGTOP
 10
0.0
 20
0.0
 30
0.0
  9
$UCSORGBOTTOM
 10
0.0
 20
0.0
 30
0.0
  9
$UCSORGLEFT
 10
0.0
 20
0.0
 30
0.0
  9
$UCSORGRIGHT
 10
0.0
 20
0.0
 30
0.0
  9
$UCSORGFRONT
 10
0.0
 20
0.0
 30
0.0
  9
$UCSORGBACK
 10
0.0
 20
0.0
 30
0.0
  9
$PUCSBASE
  2

  9
$PUCSNAME
  2

  9
$PUCSORG
 10
0.0
 20
0.0
 30
0.0
  9
$PUCSXDIR
 10
1.0
 20
0.0
 30
0.0
  9
$PUCSYDIR
 10
0.0
 20
1.0
 30
0.0
  9
$PUCSORTHOREF
  2

  9
$PUCSORTHOVIEW
 70
0
  9
$PUCSORGTOP
 10
0.0
 20
0.0
 30
0.0
  9
$PUCSORGBOTTOM
 10
0.0
 20
0.0
 30
0.0
  9
$PUCSORGLEFT
 10
0.0
 20
0.0
 30
0.0
  9
$PUCSORGRIGHT
 10
0.0
 20
0.0
 30
0.0
  9
$PUCSORGFRONT
 10
0.0
 20
0.0
 30
0.0
  9
$PUCSORGBACK
 10
0.0
 20
0.0
 30
0.0
  9
$USERI1
 70
0
  9
$USERI2
 70
0
  9
$USERI3
 70
0
  9
$USERI4
 70
0
  9
$USERI5
 70
0
  9
$USERR1
 40
0.0
  9
$USERR2
 40
0.0
  9
$USERR3
 40
0.0
  9
$USERR4
 40
0.0
  9
$USERR5
 40
0.0
  9
$WORLDVIEW
 70
1
  9
$SHADEDGE
 70
3
  9
$SHADEDIF
 70
70
  9
$TILEMODE
 70
1
  9
$MAXACTVP
 70
64
  9
$PINSBASE
 10
0.0
 20
0.0
 30
0.0
  9
$PLIMCHECK
 70
0
  9
$PEXTMIN
 10
1e+20
 20
1e+20
 30
1e+20
  9
$PEXTMAX
 10
-1e+20
 20
-1e+20
 30
-1e+20
  9
$PLIMMIN
 10
0.0
 20
0.0
  9
$PLIMMAX
 10
420.0
 20
297.0
  9
$UNITMODE
 70
0
  9
$VISRETAIN
 70
1
  9
$PLINEGEN
 70
0
  9
$PSLTSCALE
 70
1
  9
$TREEDEPTH
 70
3020
  9
$CMLSTYLE
  2
Standard
  9
$CMLJUST
 70
0
  9
$CMLSCALE
 40
20.0
  9
$PROXYGRAPHICS
 70
1
  9
$MEASUREMENT
 70
1
  9
$CELWEIGHT
370
-1
  9
$ENDCAPS
280
0
  9
$JOINSTYLE
280
0
  9
$LWDISPLAY
290
0
  9
$INSUNITS
 70
6
  9
$HYPERLINKBASE
  1

  9
$STYLESHEET
  1

  9
$XEDIT
290
1
  9
$CEPSNTYPE
380
0
  9
$PSTYLEMODE
290
1
  9
$FINGERPRINTGUID
  2
{CF8FF4C5-AA96-44E0-9C82-D0A75D3FA15E}
  9
$VERSIONGUID
  2
{A6EF4FE3-5BB7-4596-8D50-A1B9FE5ADD6E}
  9
$EXTNAMES
290
1
  9
$PSVPSCALE
 40
0.0
  9
$OLESTARTUP
290
0
  9
$SORTENTS
280
127
  9
$INDEXCTL
280
0
  9
$HIDETEXT
280
1
  9
$XCLIPFRAME
280
1
  9
$HALOGAP
280
0
  9
$OBSCOLOR
 70
257
  9
$OBSLTYPE
280
0
  9
$INTERSECTIONDISPLAY
280
0
  9
$INTERSECTIONCOLOR
 70
257
  9
$DIMASSOC
280
2
  9
$PROJECTNAME
  1

  9
$CAMERADISPLAY
290
0
  9
$LENSLENGTH
 40
50.0
  9
$CAMERAHEIGHT
 40
0.0
  9
$STEPSPERSEC
 40
24.0
  9
$STEPSIZE
 40
100.0
  9
$3DDWFPREC
 40
2.0
  9
$PSOLWIDTH
 40
0.005
  9
$PSOLHEIGHT
 40
0.08
  9
$LOFTANG1
 40
1.570796326795
  9
$LOFTANG2
 40
1.570796326795
  9
$LOFTMAG1
 40
0.0
  9
$LOFTMAG2
 40
0.0
  9
$LOFTPARAM
 70
7
  9
$LOFTNORMALS
280
1
  9
$LATITUDE
 40
37.795
  9
$LONGITUDE
 40
-122.394
  9
$NORTHDIRECTION
 40
0.0
  9
$TIMEZONE
 70
-8000
  9
$LIGHTGLYPHDISPLAY
280
1
  9
$TILEMODELIGHTSYNCH
280
1
  9
$CMATERIAL
347
20
  9
$SOLIDHIST
280
0
  9
$SHOWHIST
280
1
  9
$DWFFRAME
280
2
  9
$DGNFRAME
280
2
  9
$REALWORLDSCALE
290
1
  9
$INTERFERECOLOR
 62
256
  9
$CSHADOW
280
0
  9
$SHADOWPLANELOCATION
 40
0.0
  0
ENDSEC
  0
SECTION
  2
CLASSES
  0
CLASS
  1
ACDBDICTIONARYWDFLT
  2
AcDbDictionaryWithDefault
  3
ObjectDBX Classes
 90
0
 91
0
280
0
281
0
  0
CLASS
  1
SUN
  2
AcDbSun
  3
SCENEOE
 90
1153
 91
0
280
0
281
0
  0
CLASS
  1
VISUALSTYLE
  2
AcDbVisualStyle
  3
ObjectDBX Classes
 90
4095
 91
0
280
0
281
0
  0
CLASS
  1
MATERIAL
  2
AcDbMaterial
  3
ObjectDBX Classes
 90
1153
 91
0
280
0
281
0
  0
CLASS
  1
SCALE
  2
AcDbScale
  3
ObjectDBX Classes
 90
1153
 91
0
280
0
281
0
  0
CLASS
  1
TABLESTYLE
  2
AcDbTableStyle
  3
ObjectDBX Classes
 90
4095
 91
0
280
0
281
0
  0
CLASS
  1
MLEADERSTYLE
  2
AcDbMLeaderStyle
  3
ACDB_MLEADERSTYLE_CLASS
 90
4095
 91
0
280
0
281
0
  0
CLASS
  1
DICTIONARYVAR
  2
AcDbDictionaryVar
  3
ObjectDBX Classes
 90
0
 91
0
280
0
281
0
  0
CLASS
  1
CELLSTYLEMAP
  2
AcDbCellStyleMap
  3
ObjectDBX Classes
 90
1152
 91
0
280
0
281
0
  0
CLASS
  1
MENTALRAYRENDERSETTINGS
  2
AcDbMentalRayRenderSettings
  3
SCENEOE
 90
1024
 91
0
280
0
281
0
  0
CLASS
  1
ACDBDETAILVIEWSTYLE
  2
AcDbDetailViewStyle
  3
ObjectDBX Classes
 90
1025
 91
0
280
0
281
0
  0
CLASS
  1
ACDBSECTIONVIEWSTYLE
  2
AcDbSectionViewStyle
  3
ObjectDBX Classes
 90
1025
 91
0
280
0
281
0
  0
CLASS
  1
RASTERVARIABLES
  2
AcDbRasterVariables
  3
ISM
 90
0
 91
0
280
0
281
0
  0
CLASS
  1
ACDBPLACEHOLDER
  2
AcDbPlaceHolder
  3
ObjectDBX Classes
 90
0
 91
0
280
0
281
0
  0
CLASS
  1
LAYOUT
  2
AcDbLayout
  3
ObjectDBX Classes
 90
0
 91
0
280
0
281
0
  0
ENDSEC
  0
SECTION
  2
TABLES
  0
TABLE
  2
VPORT
  5
8
330
0
100
AcDbSymbolTable
 70
1
  0
VPORT
  5
23
330
8
100
AcDbSymbolTableRecord
100
AcDbViewportTableRecord
  2
*Active
 70
0
 10
0.0
 20
0.0
 11
1.0
 21
1.0
 12
0.0
 22
0.0
 13
0.0
 23
0.0
 14
0.5
 24
0.5
 15
0.5
 25
0.5
 16
0.0
 26
0.0
 36
1.0
 17
0.0
 27
0.0
 37
0.0
 40
1000.0
 41
1.34
 42
50.0
 43
0.0
 44
0.0
 50
0.0
 51
0.0
 71
0
 72
1000
 73
1
 74
3
 75
0
 76
0
 77
0
 78
0
281
0
 65
0
146
0.0
  0
ENDTAB
  0
TABLE
  2
LTYPE
  5
2
330
0
100
AcDbSymbolTable
 70
3
  0
LTYPE
  5
24
330
2
100
AcDbSymbolTableRecord
100
AcDbLinetypeTableRecord
  2
ByBlock
 70
0
  3

 72
65
 73
0
 40
0.0
  0
LTYPE
  5
25
330
2
100
AcDbSymbolTableRecord
100
AcDbLinetypeTableRecord
  2
ByLayer
 70
0
  3

 72
65
 73
0
 40
0.0
  0
LTYPE
  5
26
330
2
100
AcDbSymbolTableRecord
100
AcDbLinetypeTableRecord
  2
Continuous
 70
0
  3

 72
65
 73
0
 40
0.0
  0
ENDTAB
  0
TABLE
  2
LAYER
  5
1
330
0
100
AcDbSymbolTable
 70
5
  0
LAYER
  5
27
330
1
100
AcDbSymbolTableRecord
100
AcDbLayerTableRecord
  2
0
 70
0
 62
7
  6
Continuous
370
-3
390
13
347
21
  0
LAYER
  5
28
330
1
100
AcDbSymbolTableRecord
100
AcDbLayerTableRecord
  2
Defpoints
 70
0
 62
7
  6
Continuous
290
0
370
-3
390
13
347
21
  0
LAYER
  5
2F
330
1
100
AcDbSymbolTableRecord
100
AcDbLayerTableRecord
  2
TUBE
 70
0
 62
3
  6
Continuous
370
-3
390
13
347
21
  0
LAYER
  5
30
330
1
100
AcDbSymbolTableRecord
100
AcDbLayerTableRecord
  2
TEXT
 70
0
 62
3
  6
Continuous
370
-3
390
13
347
21
  0
LAYER
  5
31
330
1
100
AcDbSymbolTableRecord
100
AcDbLayerTableRecord
  2
DIMENSION
 70
0
 62
3
  6
Continuous
370
-3
390
13
347
21
  0
ENDTAB
  0
TABLE
  2
STYLE
  5
5
330
0
100
AcDbSymbolTable
 70
1
  0
STYLE
  5
29
330
5
100
AcDbSymbolTableRecord
100
AcDbTextStyleTableRecord
  2
Standard
 70
0
 40
0.0
 41
1.0
 50
0.0
 71
0
 42
2.5
  3
txt
  4

  0
ENDTAB
  0
TABLE
  2
VIEW
  5
7
330
0
100
AcDbSymbolTable
 70
0
  0
ENDTAB
  0
TABLE
  2
UCS
  5
6
330
0
100
AcDbSymbolTable
 70
0
  0
ENDTAB
  0
TABLE
  2
APPID
  5
3
330
0
100
AcDbSymbolTable
 70
3
  0
APPID
  5
2A
330
3
100
AcDbSymbolTableRecord
100
AcDbRegAppTableRecord
  2
ACAD
 70
0
  0
APPID
  5
4F7
330
3
100
AcDbSymbolTableRecord
100
AcDbRegAppTableRecord
  2
HATCHBACKGROUNDCOLOR
 70
0
  0
APPID
  5
4F8
330
3
100
AcDbSymbolTableRecord
100
AcDbRegAppTableRecord
  2
EZDXF
 70
0
  0
ENDTAB
  0
TABLE
  2
DIMSTYLE
  5
4
330
0
100
AcDbSymbolTable
 70
1
100
AcDbDimStyleTable
  0
DIMSTYLE
105
32
330
4
100
AcDbSymbolTableRecord
100
AcDbDimStyleTableRecord
  2
Standard
 70
0
 40
30.0
 41
4.0
 42
0.0
 43
3.75
 44
1.25
 45
0.0
 46
0.0
 47
0.0
 48
0.0
 49
2.5
140
3.5
141
2.5
142
0.0
143
0.03937007874
144
1.0
145
0.0
146
1.0
147
0.625
148
0.0
 69
0
 70
0
 71
0
 72
0
 73
0
 74
0
 75
0
 76
0
 77
1
 78
8
 79
3
170
0
171
3
172
1
173
0
174
0
175
0
176
0
177
0
178
0
179
2
271
2
272
2
273
2
274
3
275
0
276
0
277
2
278
44
279
0
280
0
281
0
282
0
283
0
284
8
285
0
286
0
288
0
289
3
290
0
371
-2
372
-2
  0
ENDTAB
  0
TABLE
  2
BLOCK_RECORD
  5
9
330
0
100
AcDbSymbolTable
 70
68
  0
BLOCK_RECORD
  5
17
330
9
100
AcDbSymbolTableRecord
100
AcDbBlockTableRecord
  2
*Model_Space
340
1A
 70
0
280
1
281
0
  0
BLOCK_RECORD
  5
1B
330
9
100
AcDbSymbolTableRecord
100
AcDbBlockTableRecord
  2
*Paper_Space
340
1E
 70
0
280
1
281
0
  0
BLOCK_RECORD
  5
35
330
9
100
AcDbSymbolTableRecord
100
AcDbBlockTableRecord
  2
*D1
340
0
 70
0
280
1
281
0
  0
BLOCK_RECORD
  5
3A
330
9
100
AcDbSymbolTableRecord
100
AcDbBlockTableRecord
  2
_CLOSEDFILLED
340
0
 70
0
280
1
281
0
  0
BLOCK_RECORD
  5
4A
330
9
100
AcDbSymbolTableRecord
100
AcDbBlockTableRecord
  2
*D2
340
0
 70
0
280
1
281
0
  0
BLOCK_RECORD
  5
5D
330
9
100
AcDbSymbolTableRecord
100
AcDbBlockTableRecord
  2
*D3
340
0
 70
0
280
1
281
0
  0
BLOCK_RECORD
  5
70
330
9
100
AcDbSymbolTableRecord
100
AcDbBlockTableRecord
  2
*D4
340
0
 70
0
280
1
281
0
  0
BLOCK_RECORD
  5
83
330
9
100
AcDbSymbolTableRecord
100
AcDbBlockTableRecord
  2
*D5
340
0
 70
0
280
1
281
0
  0
BLOCK_RECORD
  5
96
330
9
100
AcDbSymbolTableRecord
100
AcDbBlockTableRecord
  2
*D6
340
0
 70
0
280
1
281
0
  0
BLOCK_RECORD
  5
A7
330
9
100
AcDbSymbolTableRecord
100
AcDbBlockTableRecord
  2
*D7
340
0
 70
0
280
1
281
0
  0
BLOCK_RECORD
  5
BC
330
9
100
AcDbSymbolTableRecord
100
AcDbBlockTableRecord
  2
*D8
340
0
 70
0
280
1
281
0
  0
BLOCK_RECORD
  5
CF
330
9
100
AcDbSymbolTableRecord
100
AcDbBlockTableRecord
  2
*D9
340
0
 70
0
280
1
281
0
  0
BLOCK_RECORD
  5
E2
330
9
100
AcDbSymbolTableRecord
100
AcDbBlockTableRecord
  2
*D10
340
0
 70
0
280
1
281
0
  0
BLOCK_RECORD
  5
F6
330
9
100
AcDbSymbolTableRecord
100
AcDbBlockTableRecord
  2
*D11
340
0
 70
0
280
1
281
0
  0
BLOCK_RECORD
  5
106
330
9
100
AcDbSymbolTableRecord
100
AcDbBlockTableRecord
  2
*D12
340
0
 70
0
280
1
281
0
  0
BLOCK_RECORD
  5
11B
330
9
100
AcDbSymbolTableRecord
100
AcDbBlockTableRecord
  2
*D13
340
0
 70
0
280
1
281
0
  0
BLOCK_RECORD
  5
12E
330
9
100
AcDbSymbolTableRecord
100
AcDbBlockTableRecord
  2
*D14
340
0
 70
0
280
1
281
0
  0
BLOCK_RECORD
  5
141
330
9
100
AcDbSymbolTableRecord
100
AcDbBlockTableRecord
  2
*D15
340
0
 70
0
280
1
281
0
  0
BLOCK_RECORD
  5
154
330
9
100
AcDbSymbolTableRecord
100
AcDbBlockTableRecord
  2
*D16
340
0
 70
0
280
1
281
0
  0
BLOCK_RECORD
  5
168
330
9
100
AcDbSymbolTableRecord
100
AcDbBlockTableRecord
  2
*D17
340
0
 70
0
280
1
281
0
  0
BLOCK_RECORD
  5
179
330
9
100
AcDbSymbolTableRecord
100
AcDbBlockTableRecord
  2
*D18
340
0
 70
0
280
1
281
0
  0
BLOCK_RECORD
  5
18E
330
9
100
AcDbSymbolTableRecord
100
AcDbBlockTableRecord
  2
*D19
340
0
 70
0
280
1
281
0
  0
BLOCK_RECORD
  5
1A1
330
9
100
AcDbSymbolTableRecord
100
AcDbBlockTableRecord
  2
*D20
340
0
 70
0
280
1
281
0
  0
BLOCK_RECORD
  5
1B5
330
9
100
AcDbSymbolTableRecord
100
AcDbBlockTableRecord
  2
*D21
340
0
 70
0
280
1
281
0
  0
BLOCK_RECORD
  5
1C6
330
9
100
AcDbSymbolTableRecord
100
AcDbBlockTableRecord
  2
*D22
340
0
 70
0
280
1
281
0
  0
BLOCK_RECORD
  5
1D5
330
9
100
AcDbSymbolTableRecord
100
AcDbBlockTableRecord
  2
*D23
340
0
 70
0
280
1
281
0
  0
BLOCK_RECORD
  5
1E8
330
9
100
AcDbSymbolTableRecord
100
AcDbBlockTableRecord
  2
*D24
340
0
 70
0
280
1
281
0
  0
BLOCK_RECORD
  5
1FB
330
9
100
AcDbSymbolTableRecord
100
AcDbBlockTableRecord
  2
*D25
340
0
 70
0
280
1
281
0
  0
BLOCK_RECORD
  5
20E
330
9
100
AcDbSymbolTableRecord
100
AcDbBlockTableRecord
  2
*D26
340
0
 70
0
280
1
281
0
  0
BLOCK_RECORD
  5
221
330
9
100
AcDbSymbolTableRecord
100
AcDbBlockTableRecord
  2
*D27
340
0
 70
0
280
1
281
0
  0
BLOCK_RECORD
  5
234
330
9
100
AcDbSymbolTableRecord
100
AcDbBlockTableRecord
  2
*D28
340
0
 70
0
280
1
281
0
  0
BLOCK_RECORD
  5
245
330
9
100
AcDbSymbolTableRecord
100
AcDbBlockTableRecord
  2
*D29
340
0
 70
0
280
1
281
0
  0
BLOCK_RECORD
  5
258
330
9
100
AcDbSymbolTableRecord
100
AcDbBlockTableRecord
  2
*D30
340
0
 70
0
280
1
281
0
  0
BLOCK_RECORD
  5
26B
330
9
100
AcDbSymbolTableRecord
100
AcDbBlockTableRecord
  2
*D31
340
0
 70
0
280
1
281
0
  0
BLOCK_RECORD
  5
27E
330
9
100
AcDbSymbolTableRecord
100
AcDbBlockTableRecord
  2
*D32
340
0
 70
0
280
1
281
0
  0
BLOCK_RECORD
  5
291
330
9
100
AcDbSymbolTableRecord
100
AcDbBlockTableRecord
  2
*D33
340
0
 70
0
280
1
281
0
  0
BLOCK_RECORD
  5
2A5
330
9
100
AcDbSymbolTableRecord
100
AcDbBlockTableRecord
  2
*D34
340
0
 70
0
280
1
281
0
  0
BLOCK_RECORD
  5
2B6
330
9
100
AcDbSymbolTableRecord
100
AcDbBlockTableRecord
  2
*D35
340
0
 70
0
280
1
281
0
  0
BLOCK_RECORD
  5
2C9
330
9
100
AcDbSymbolTableRecord
100
AcDbBlockTableRecord
  2
*D36
340
0
 70
0
280
1
281
0
  0
BLOCK_RECORD
  5
2DC
330
9
100
AcDbSymbolTableRecord
100
AcDbBlockTableRecord
  2
*D37
340
0
 70
0
280
1
281
0
  0
BLOCK_RECORD
  5
2EF
330
9
100
AcDbSymbolTableRecord
100
AcDbBlockTableRecord
  2
*D38
340
0
 70
0
280
1
281
0
  0
BLOCK_RECORD
  5
302
330
9
100
AcDbSymbolTableRecord
100
AcDbBlockTableRecord
  2
*D39
340
0
 70
0
280
1
281
0
  0
BLOCK_RECORD
  5
316
330
9
100
AcDbSymbolTableRecord
100
AcDbBlockTableRecord
  2
*D40
340
0
 70
0
280
1
281
0
  0
BLOCK_RECORD
  5
326
330
9
100
AcDbSymbolTableRecord
100
AcDbBlockTableRecord
  2
*D41
340
0
 70
0
280
1
281
0
  0
BLOCK_RECORD
  5
339
330
9
100
AcDbSymbolTableRecord
100
AcDbBlockTableRecord
  2
*D42
340
0
 70
0
280
1
281
0
  0
BLOCK_RECORD
  5
34C
330
9
100
AcDbSymbolTableRecord
100
AcDbBlockTableRecord
  2
*D43
340
0
 70
0
280
1
281
0
  0
BLOCK_RECORD
  5
35F
330
9
100
AcDbSymbolTableRecord
100
AcDbBlockTableRecord
  2
*D44
340
0
 70
0
280
1
281
0
  0
BLOCK_RECORD
  5
372
330
9
100
AcDbSymbolTableRecord
100
AcDbBlockTableRecord
  2
*D45
340
0
 70
0
280
1
281
0
  0
BLOCK_RECORD
  5
386
330
9
100
AcDbSymbolTableRecord
100
AcDbBlockTableRecord
  2
*D46
340
0
 70
0
280
1
281
0
  0
BLOCK_RECORD
  5
397
330
9
100
AcDbSymbolTableRecord
100
AcDbBlockTableRecord
  2
*D47
340
0
 70
0
280
1
281
0
  0
BLOCK_RECORD
  5
3A6
330
9
100
AcDbSymbolTableRecord
100
AcDbBlockTableRecord
  2
*D48
340
0
 70
0
280
1
281
0
  0
BLOCK_RECORD
  5
3B9
330
9
100
AcDbSymbolTableRecord
100
AcDbBlockTableRecord
  2
*D49
340
0
 70
0
280
1
281
0
  0
BLOCK_RECORD
  5
3CC
330
9
100
AcDbSymbolTableRecord
100
AcDbBlockTableRecord
  2
*D50
340
0
 70
0
280
1
281
0
  0
BLOCK_RECORD
  5
3DF
330
9
100
AcDbSymbolTableRecord
100
AcDbBlockTableRecord
  2
*D51
340
0
 70
0
280
1
281
0
  0
BLOCK_RECORD
  5
3F3
330
9
100
AcDbSymbolTableRecord
100
AcDbBlockTableRecord
  2
*D52
340
0
 70
0
280
1
281
0
  0
BLOCK_RECORD
  5
403
330
9
100
AcDbSymbolTableRecord
100
AcDbBlockTableRecord
  2
*D53
340
0
 70
0
280
1
281
0
  0
BLOCK_RECORD
  5
416
330
9
100
AcDbSymbolTableRecord
100
AcDbBlockTableRecord
  2
*D54
340
0
 70
0
280
1
281
0
  0
BLOCK_RECORD
  5
429
330
9
100
AcDbSymbolTableRecord
100
AcDbBlockTableRecord
  2
*D55
340
0
 70
0
280
1
281
0
  0
BLOCK_RECORD
  5
43D
330
9
100
AcDbSymbolTableRecord
100
AcDbBlockTableRecord
  2
*D56
340
0
 70
0
280
1
281
0
  0
BLOCK_RECORD
  5
44E
330
9
100
AcDbSymbolTableRecord
100
AcDbBlockTableRecord
  2
*D57
340
0
 70
0
280
1
281
0
  0
BLOCK_RECORD
  5
461
330
9
100
AcDbSymbolTableRecord
100
AcDbBlockTableRecord
  2
*D58
340
0
 70
0
280
1
281
0
  0
BLOCK_RECORD
  5
474
330
9
100
AcDbSymbolTableRecord
100
AcDbBlockTableRecord
  2
*D59
340
0
 70
0
280
1
281
0
  0
BLOCK_RECORD
  5
487
330
9
100
AcDbSymbolTableRecord
100
AcDbBlockTableRecord
  2
*D60
340
0
 70
0
280
1
281
0
  0
BLOCK_RECORD
  5
49B
330
9
100
AcDbSymbolTableRecord
100
AcDbBlockTableRecord
  2
*D61
340
0
 70
0
280
1
281
0
  0
BLOCK_RECORD
  5
4AD
330
9
100
AcDbSymbolTableRecord
100
AcDbBlockTableRecord
  2
*D62
340
0
 70
0
280
1
281
0
  0
BLOCK_RECORD
  5
4C0
330
9
100
AcDbSymbolTableRecord
100
AcDbBlockTableRecord
  2
*D63
340
0
 70
0
280
1
281
0
  0
BLOCK_RECORD
  5
4D3
330
9
100
AcDbSymbolTableRecord
100
AcDbBlockTableRecord
  2
*D64
340
0
 70
0
280
1
281
0
  0
BLOCK_RECORD
  5
4E7
330
9
100
AcDbSymbolTableRecord
100
AcDbBlockTableRecord
  2
*D65
340
0
 70
0
280
1
281
0
  0
ENDTAB
  0
ENDSEC
  0
SECTION
  2
BLOCKS
  0
BLOCK
  5
18
330
17
100
AcDbEntity
  8
0
100
AcDbBlockBegin
  2
*Model_Space
 70
0
 10
0.0
 20
0.0
 30
0.0
  3
*Model_Space
  1

  0
ENDBLK
  5
19
330
17
100
AcDbEntity
  8
0
100
AcDbBlockEnd
  0
BLOCK
  5
1C
330
1B
100
AcDbEntity
  8
0
100
AcDbBlockBegin
  2
*Paper_Space
 70
0
 10
0.0
 20
0.0
 30
0.0
  3
*Paper_Space
  1

  0
ENDBLK
  5
1D
330
1B
100
AcDbEntity
  8
0
100
AcDbBlockEnd
  0
BLOCK
  5
36
330
35
100
AcDbEntity
  8
0
100
AcDbBlockBegin
  2
*D1
 70
1
 10
0.0
 20
0.0
 30
0.0
  3
*D1
  1

  0
LINE
  5
38
330
35
100
AcDbEntity
  8
0
 62
3
100
AcDbLine
 10
10.0
 20
750.0
 30
0.0
 11
-110.0
 21
750.0
 31
0.0
  0
LINE
  5
39
330
35
100
AcDbEntity
  8
0
 62
3
100
AcDbLine
 10
10.0
 20
950.0
 30
0.0
 11
-110.0
 21
950.0
 31
0.0
  0
INSERT
  5
3E
330
35
100
AcDbEntity
  8
DIMENSION
 62
0
100
AcDbBlockReference
  2
_CLOSEDFILLED
 10
-110.0
 20
750.0
 30
0.0
 41
120.0
 42
120.0
 50
90.0
  0
INSERT
  5
40
330
35
100
AcDbEntity
  8
DIMENSION
 62
0
100
AcDbBlockReference
  2
_CLOSEDFILLED
 10
-110.0
 20
950.0
 30
0.0
 41
120.0
 42
120.0
 50
270.0
  0
LINE
  5
42
330
35
100
AcDbEntity
  8
0
 62
0
100
AcDbLine
 10
-110.0
 20
630.0
 30
0.0
 11
-110.0
 21
510.0
 31
0.0
  0
LINE
  5
43
330
35
100
AcDbEntity
  8
0
 62
0
100
AcDbLine
 10
-110.0
 20
1070.0
 30
0.0
 11
-110.0
 21
1190.0
 31
0.0
  0
LINE
  5
44
330
35
100
AcDbEntity
  8
0
 62
0
100
AcDbLine
 10
-110.0
 20
750.0
 30
0.0
 11
-110.0
 21
950.0
 31
0.0
  0
MTEXT
  5
45
330
35
100
AcDbEntity
  8
DIMENSION
 62
3
100
AcDbMText
 10
-181.25
 20
850.0
 30
0.0
 40
105.0
 71
5
  1
200
 50
90.0
  0
POINT
  5
46
330
35
100
AcDbEntity
  8
Defpoints
100
AcDbPoint
 10
-110.0
 20
750.0
 30
0.0
  0
POINT
  5
47
330
35
100
AcDbEntity
  8
Defpoints
100
AcDbPoint
 10
10.0
 20
750.0
 30
0.0
  0
POINT
  5
48
330
35
100
AcDbEntity
  8
Defpoints
100
AcDbPoint
 10
10.0
 20
950.0
 30
0.0
  0
ENDBLK
  5
37
330
35
100
AcDbEntity
  8
0
100
AcDbBlockEnd
  0
BLOCK
  5
3B
330
3A
100
AcDbEntity
  8
0
100
AcDbBlockBegin
  2
_CLOSEDFILLED
 70
0
 10
0.0
 20
0.0
 30
0.0
  3
_CLOSEDFILLED
  1

  0
SOLID
  5
3D
330
3A
100
AcDbEntity
  8
0
  6
BYBLOCK
 62
0
100
AcDbTrace
 10
-1.0
 20
0.16439898372402537
 30
0.0
 11
0.0
 21
0.0
 31
0.0
 12
-1.0
 22
-0.16439898372402537
 32
0.0
 13
-1.0
 23
-0.16439898372402537
 33
0.0
  0
ENDBLK
  5
3C
330
3A
100
AcDbEntity
  8
0
100
AcDbBlockEnd
  0
BLOCK
  5
4B
330
4A
100
AcDbEntity
  8
0
100
AcDbBlockBegin
  2
*D2
 70
1
 10
0.0
 20
0.0
 30
0.0
  3
*D2
  1

  0
LINE
  5
4D
330
4A
100
AcDbEntity
  8
0
 62
3
100
AcDbLine
 10
0.0
 20
950.0
 30
0.0
 11
0.0
 21
1230.0
 31
0.0
  0
LINE
  5
4E
330
4A
100
AcDbEntity
  8
0
 62
3
100
AcDbLine
 10
12000.0
 20
950.0
 30
0.0
 11
12000.0
 21
1230.0
 31
0.0
  0
INSERT
  5
4F
330
4A
100
AcDbEntity
  8
DIMENSION
 62
0
100
AcDbBlockReference
  2
_CLOSEDFILLED
 10
0.0
 20
1230.0
 30
0.0
 41
120.0
 42
120.0
 50
180.0
  0
INSERT
  5
51
330
4A
100
AcDbEntity
  8
DIMENSION
 62
0
100
AcDbBlockReference
  2
_CLOSEDFILLED
 10
12000.0
 20
1230.0
 30
0.0
 41
120.0
 42
120.0
  0
LINE
  5
53
330
4A
100
AcDbEntity
  8
0
 62
0
100
AcDbLine
 10
120.0
 20
1230.0
 30
0.0
 11
11880.0
 21
1230.0
 31
0.0
  0
MTEXT
  5
54
330
4A
100
AcDbEntity
  8
DIMENSION
 62
3
100
AcDbMText
 10
6000.0
 20
1301.25
 30
0.0
 40
105.0
 71
5
  1
12000
  0
POINT
  5
55
330
4A
100
AcDbEntity
  8
Defpoints
100
AcDbPoint
 10
0.0
 20
1230.0
 30
0.0
  0
POINT
  5
56
330
4A
100
AcDbEntity
  8
Defpoints
100
AcDbPoint
 10
0.0
 20
950.0
 30
0.0
  0
POINT
  5
57
330
4A
100
AcDbEntity
  8
Defpoints
100
AcDbPoint
 10
12000.0
 20
950.0
 30
0.0
  0
ENDBLK
  5
4C
330
4A
100
AcDbEntity
  8
0
100
AcDbBlockEnd
  0
BLOCK
  5
5E
330
5D
100
AcDbEntity
  8
0
100
AcDbBlockBegin
  2
*D3
 70
1
 10
0.0
 20
0.0
 30
0.0
  3
*D3
  1

  0
LINE
  5
60
330
5D
100
AcDbEntity
  8
0
 62
3
100
AcDbLine
 10
0.0
 20
950.0
 30
0.0
 11
0.0
 21
1050.0
 31
0.0
  0
LINE
  5
61
330
5D
100
AcDbEntity
  8
0
 62
3
100
AcDbLine
 10
4500.0
 20
950.0
 30
0.0
 11
4500.0
 21
1050.0
 31
0.0
  0
INSERT
  5
62
330
5D
100
AcDbEntity
  8
DIMENSION
 62
0
100
AcDbBlockReference
  2
_CLOSEDFILLED
 10
0.0
 20
1050.0
 30
0.0
 41
120.0
 42
120.0
 50
180.0
  0
INSERT
  5
64
330
5D
100
AcDbEntity
  8
DIMENSION
 62
0
100
AcDbBlockReference
  2
_CLOSEDFILLED
 10
4500.0
 20
1050.0
 30
0.0
 41
120.0
 42
120.0
  0
LINE
  5
66
330
5D
100
AcDbEntity
  8
0
 62
0
100
AcDbLine
 10
120.0
 20
1050.0
 30
0.0
 11
4380.0
 21
1050.0
 31
0.0
  0
MTEXT
  5
67
330
5D
100
AcDbEntity
  8
DIMENSION
 62
3
100
AcDbMText
 10
2250.0
 20
1121.25
 30
0.0
 40
105.0
 71
5
  1
4500
  0
POINT
  5
68
330
5D
100
AcDbEntity
  8
Defpoints
100
AcDbPoint
 10
0.0
 20
1050.0
 30
0.0
  0
POINT
  5
69
330
5D
100
AcDbEntity
  8
Defpoints
100
AcDbPoint
 10
0.0
 20
950.0
 30
0.0
  0
POINT
  5
6A
330
5D
100
AcDbEntity
  8
Defpoints
100
AcDbPoint
 10
4500.0
 20
950.0
 30
0.0
  0
ENDBLK
  5
5F
330
5D
100
AcDbEntity
  8
0
100
AcDbBlockEnd
  0
BLOCK
  5
71
330
70
100
AcDbEntity
  8
0
100
AcDbBlockBegin
  2
*D4
 70
1
 10
0.0
 20
0.0
 30
0.0
  3
*D4
  1

  0
LINE
  5
73
330
70
100
AcDbEntity
  8
0
 62
3
100
AcDbLine
 10
4500.0
 20
950.0
 30
0.0
 11
4500.0
 21
1050.0
 31
0.0
  0
LINE
  5
74
330
70
100
AcDbEntity
  8
0
 62
3
100
AcDbLine
 10
7200.0
 20
950.0
 30
0.0
 11
7200.0
 21
1050.0
 31
0.0
  0
INSERT
  5
75
330
70
100
AcDbEntity
  8
DIMENSION
 62
0
100
AcDbBlockReference
  2
_CLOSEDFILLED
 10
4500.0
 20
1050.0
 30
0.0
 41
120.0
 42
120.0
 50
180.0
  0
INSERT
  5
77
330
70
100
AcDbEntity
  8
DIMENSION
 62
0
100
AcDbBlockReference
  2
_CLOSEDFILLED
 10
7200.0
 20
1050.0
 30
0.0
 41
120.0
 42
120.0
  0
LINE
  5
79
330
70
100
AcDbEntity
  8
0
 62
0
100
AcDbLine
 10
4620.0
 20
1050.0
 30
0.0
 11
7080.0
 21
1050.0
 31
0.0
  0
MTEXT
  5
7A
330
70
100
AcDbEntity
  8
DIMENSION
 62
3
100
AcDbMText
 10
5850.0
 20
1121.25
 30
0.0
 40
105.0
 71
5
  1
2700
  0
POINT
  5
7B
330
70
100
AcDbEntity
  8
Defpoints
100
AcDbPoint
 10
4500.0
 20
1050.0
 30
0.0
  0
POINT
  5
7C
330
70
100
AcDbEntity
  8
Defpoints
100
AcDbPoint
 10
4500.0
 20
950.0
 30
0.0
  0
POINT
  5
7D
330
70
100
AcDbEntity
  8
Defpoints
100
AcDbPoint
 10
7200.0
 20
950.0
 30
0.0
  0
ENDBLK
  5
72
330
70
100
AcDbEntity
  8
0
100
AcDbBlockEnd
  0
BLOCK
  5
84
330
83
100
AcDbEntity
  8
0
100
AcDbBlockBegin
  2
*D5
 70
1
 10
0.0
 20
0.0
 30
0.0
  3
*D5
  1

  0
LINE
  5
86
330
83
100
AcDbEntity
  8
0
 62
3
100
AcDbLine
 10
7200.0
 20
950.0
 30
0.0
 11
7200.0
 21
1050.0
 31
0.0
  0
LINE
  5
87
330
83
100
AcDbEntity
  8
0
 62
3
100
AcDbLine
 10
9600.0
 20
950.0
 30
0.0
 11
9600.0
 21
1050.0
 31
0.0
  0
INSERT
  5
88
330
83
100
AcDbEntity
  8
DIMENSION
 62
0
100
AcDbBlockReference
  2
_CLOSEDFILLED
 10
7200.0
 20
1050.0
 30
0.0
 41
120.0
 42
120.0
 50
180.0
  0
INSERT
  5
8A
330
83
100
AcDbEntity
  8
DIMENSION
 62
0
100
AcDbBlockReference
  2
_CLOSEDFILLED
 10
9600.0
 20
1050.0
 30
0.0
 41
120.0
 42
120.0
  0
LINE
  5
8C
330
83
100
AcDbEntity
  8
0
 62
0
100
AcDbLine
 10
7320.0
 20
1050.0
 30
0.0
 11
9480.0
 21
1050.0
 31
0.0
  0
MTEXT
  5
8D
330
83
100
AcDbEntity
  8
DIMENSION
 62
3
100
AcDbMText
 10
8400.0
 20
1121.25
 30
0.0
 40
105.0
 71
5
  1
2400
  0
POINT
  5
8E
330
83
100
AcDbEntity
  8
Defpoints
100
AcDbPoint
 10
7200.0
 20
1050.0
 30
0.0
  0
POINT
  5
8F
330
83
100
AcDbEntity
  8
Defpoints
100
AcDbPoint
 10
7200.0
 20
950.0
 30
0.0
  0
POINT
  5
90
330
83
100
AcDbEntity
  8
Defpoints
100
AcDbPoint
 10
9600.0
 20
950.0
 30
0.0
  0
ENDBLK
  5
85
330
83
100
AcDbEntity
  8
0
100
AcDbBlockEnd
  0
BLOCK
  5
97
330
96
100
AcDbEntity
  8
0
100
AcDbBlockBegin
  2
*D6
 70
1
 10
0.0
 20
0.0
 30
0.0
  3
*D6
  1

  0
LINE
  5
99
330
96
100
AcDbEntity
  8
0
 62
3
100
AcDbLine
 10
9600.0
 20
950.0
 30
0.0
 11
9600.0
 21
1050.0
 31
0.0
  0
LINE
  5
9A
330
96
100
AcDbEntity
  8
0
 62
3
100
AcDbLine
 10
12000.0
 20
950.0
 30
0.0
 11
12000.0
 21
1050.0
 31
0.0
  0
INSERT
  5
9B
330
96
100
AcDbEntity
  8
DIMENSION
 62
0
100
AcDbBlockReference
  2
_CLOSEDFILLED
 10
9600.0
 20
1050.0
 30
0.0
 41
120.0
 42
120.0
 50
180.0
  0
INSERT
  5
9D
330
96
100
AcDbEntity
  8
DIMENSION
 62
0
100
AcDbBlockReference
  2
_CLOSEDFILLED
 10
12000.0
 20
1050.0
 30
0.0
 41
120.0
 42
120.0
  0
LINE
  5
9F
330
96
100
AcDbEntity
  8
0
 62
0
100
AcDbLine
 10
9720.0
 20
1050.0
 30
0.0
 11
11880.0
 21
1050.0
 31
0.0
  0
MTEXT
  5
A0
330
96
100
AcDbEntity
  8
DIMENSION
 62
3
100
AcDbMText
 10
10800.0
 20
1121.25
 30
0.0
 40
105.0
 71
5
  1
2400
  0
POINT
  5
A1
330
96
100
AcDbEntity
  8
Defpoints
100
AcDbPoint
 10
9600.0
 20
1050.0
 30
0.0
  0
POINT
  5
A2
330
96
100
AcDbEntity
  8
Defpoints
100
AcDbPoint
 10
9600.0
 20
950.0
 30
0.0
  0
POINT
  5
A3
330
96
100
AcDbEntity
  8
Defpoints
100
AcDbPoint
 10
12000.0
 20
950.0
 30
0.0
  0
ENDBLK
  5
98
330
96
100
AcDbEntity
  8
0
100
AcDbBlockEnd
  0
BLOCK
  5
A8
330
A7
100
AcDbEntity
  8
0
100
AcDbBlockBegin
  2
*D7
 70
1
 10
0.0
 20
0.0
 30
0.0
  3
*D7
  1

  0
LINE
  5
AA
330
A7
100
AcDbEntity
  8
0
 62
3
100
AcDbLine
 10
10.0
 20
100.0
 30
0.0
 11
-110.0
 21
100.0
 31
0.0
  0
LINE
  5
AB
330
A7
100
AcDbEntity
  8
0
 62
3
100
AcDbLine
 10
10.0
 20
300.0
 30
0.0
 11
-110.0
 21
300.0
 31
0.0
  0
INSERT
  5
AC
330
A7
100
AcDbEntity
  8
DIMENSION
 62
0
100
AcDbBlockReference
  2
_CLOSEDFILLED
 10
-110.0
 20
100.0
 30
0.0
 41
120.0
 42
120.0
 50
90.0
  0
INSERT
  5
AE
330
A7
100
AcDbEntity
  8
DIMENSION
 62
0
100
AcDbBlockReference
  2
_CLOSEDFILLED
 10
-110.0
 20
300.0
 30
0.0
 41
120.0
 42
120.0
 50
270.0
  0
LINE
  5
B0
330
A7
100
AcDbEntity
  8
0
 62
0
100
AcDbLine
 10
-110.0
 20
-20.0
 30
0.0
 11
-110.0
 21
-140.0
 31
0.0
  0
LINE
  5
B1
330
A7
100
AcDbEntity
  8
0
 62
0
100
AcDbLine
 10
-110.0
 20
420.0
 30
0.0
 11
-110.0
 21
540.0
 31
0.0
  0
LINE
  5
B2
330
A7
100
AcDbEntity
  8
0
 62
0
100
AcDbLine
 10
-110.0
 20
100.0
 30
0.0
 11
-110.0
 21
300.0
 31
0.0
  0
MTEXT
  5
B3
330
A7
100
AcDbEntity
  8
DIMENSION
 62
3
100
AcDbMText
 10
-181.25
 20
200.0
 30
0.0
 40
105.0
 71
5
  1
200
 50
90.0
  0
POINT
  5
B4
330
A7
100
AcDbEntity
  8
Defpoints
100
AcDbPoint
 10
-110.0
 20
100.0
 30
0.0
  0
POINT
  5
B5
330
A7
100
AcDbEntity
  8
Defpoints
100
AcDbPoint
 10
10.0
 20
100.0
 30
0.0
  0
POINT
  5
B6
330
A7
100
AcDbEntity
  8
Defpoints
100
AcDbPoint
 10
10.0
 20
300.0
 30
0.0
  0
ENDBLK
  5
A9
330
A7
100
AcDbEntity
  8
0
100
AcDbBlockEnd
  0
BLOCK
  5
BD
330
BC
100
AcDbEntity
  8
0
100
AcDbBlockBegin
  2
*D8
 70
1
 10
0.0
 20
0.0
 30
0.0
  3
*D8
  1

  0
LINE
  5
BF
330
BC
100
AcDbEntity
  8
0
 62
3
100
AcDbLine
 10
0.0
 20
300.0
 30
0.0
 11
0.0
 21
400.0
 31
0.0
  0
LINE
  5
C0
330
BC
100
AcDbEntity
  8
0
 62
3
100
AcDbLine
 10
4500.0
 20
300.0
 30
0.0
 11
4500.0
 21
400.0
 31
0.0
  0
INSERT
  5
C1
330
BC
100
AcDbEntity
  8
DIMENSION
 62
0
100
AcDbBlockReference
  2
_CLOSEDFILLED
 10
0.0
 20
400.0
 30
0.0
 41
120.0
 42
120.0
 50
180.0
  0
INSERT
  5
C3
330
BC
100
AcDbEntity
  8
DIMENSION
 62
0
100
AcDbBlockReference
  2
_CLOSEDFILLED
 10
4500.0
 20
400.0
 30
0.0
 41
120.0
 42
120.0
  0
LINE
  5
C5
330
BC
100
AcDbEntity
  8
0
 62
0
100
AcDbLine
 10
120.0
 20
400.0
 30
0.0
 11
4380.0
 21
400.0
 31
0.0
  0
MTEXT
  5
C6
330
BC
100
AcDbEntity
  8
DIMENSION
 62
3
100
AcDbMText
 10
2250.0
 20
471.25
 30
0.0
 40
105.0
 71
5
  1
4500
  0
POINT
  5
C7
330
BC
100
AcDbEntity
  8
Defpoints
100
AcDbPoint
 10
0.0
 20
400.0
 30
0.0
  0
POINT
  5
C8
330
BC
100
AcDbEntity
  8
Defpoints
100
AcDbPoint
 10
0.0
 20
300.0
 30
0.0
  0
POINT
  5
C9
330
BC
100
AcDbEntity
  8
Defpoints
100
AcDbPoint
 10
4500.0
 20
300.0
 30
0.0
  0
ENDBLK
  5
BE
330
BC
100
AcDbEntity
  8
0
100
AcDbBlockEnd
  0
BLOCK
  5
D0
330
CF
100
AcDbEntity
  8
0
100
AcDbBlockBegin
  2
*D9
 70
1
 10
0.0
 20
0.0
 30
0.0
  3
*D9
  1

  0
LINE
  5
D2
330
CF
100
AcDbEntity
  8
0
 62
3
100
AcDbLine
 10
4500.0
 20
300.0
 30
0.0
 11
4500.0
 21
400.0
 31
0.0
  0
LINE
  5
D3
330
CF
100
AcDbEntity
  8
0
 62
3
100
AcDbLine
 10
9000.0
 20
300.0
 30
0.0
 11
9000.0
 21
400.0
 31
0.0
  0
INSERT
  5
D4
330
CF
100
AcDbEntity
  8
DIMENSION
 62
0
100
AcDbBlockReference
  2
_CLOSEDFILLED
 10
4500.0
 20
400.0
 30
0.0
 41
120.0
 42
120.0
 50
180.0
  0
INSERT
  5
D6
330
CF
100
AcDbEntity
  8
DIMENSION
 62
0
100
AcDbBlockReference
  2
_CLOSEDFILLED
 10
9000.0
 20
400.0
 30
0.0
 41
120.0
 42
120.0
  0
LINE
  5
D8
330
CF
100
AcDbEntity
  8
0
 62
0
100
AcDbLine
 10
4620.0
 20
400.0
 30
0.0
 11
8880.0
 21
400.0
 31
0.0
  0
MTEXT
  5
D9
330
CF
100
AcDbEntity
  8
DIMENSION
 62
3
100
AcDbMText
 10
6750.0
 20
471.25
 30
0.0
 40
105.0
 71
5
  1
4500
  0
POINT
  5
DA
330
CF
100
AcDbEntity
  8
Defpoints
100
AcDbPoint
 10
4500.0
 20
400.0
 30
0.0
  0
POINT
  5
DB
330
CF
100
AcDbEntity
  8
Defpoints
100
AcDbPoint
 10
4500.0
 20
300.0
 30
0.0
  0
POINT
  5
DC
330
CF
100
AcDbEntity
  8
Defpoints
100
AcDbPoint
 10
9000.0
 20
300.0
 30
0.0
  0
ENDBLK
  5
D1
330
CF
100
AcDbEntity
  8
0
100
AcDbBlockEnd
  0
BLOCK
  5
E3
330
E2
100
AcDbEntity
  8
0
100
AcDbBlockBegin
  2
*D10
 70
1
 10
0.0
 20
0.0
 30
0.0
  3
*D10
  1

  0
LINE
  5
E5
330
E2
100
AcDbEntity
  8
0
 62
3
100
AcDbLine
 10
9000.0
 20
300.0
 30
0.0
 11
9000.0
 21
400.0
 31
0.0
  0
LINE
  5
E6
330
E2
100
AcDbEntity
  8
0
 62
3
100
AcDbLine
 10
11700.0
 20
300.0
 30
0.0
 11
11700.0
 21
400.0
 31
0.0
  0
INSERT
  5
E7
330
E2
100
AcDbEntity
  8
DIMENSION
 62
0
100
AcDbBlockReference
  2
_CLOSEDFILLED
 10
9000.0
 20
400.0
 30
0.0
 41
120.0
 42
120.0
 50
180.0
  0
INSERT
  5
E9
330
E2
100
AcDbEntity
  8
DIMENSION
 62
0
100
AcDbBlockReference
  2
_CLOSEDFILLED
 10
11700.0
 20
400.0
 30
0.0
 41
120.0
 42
120.0
  0
LINE
  5
EB
330
E2
100
AcDbEntity
  8
0
 62
0
100
AcDbLine
 10
9120.0
 20
400.0
 30
0.0
 11
11580.0
 21
400.0
 31
0.0
  0
MTEXT
  5
EC
330
E2
100
AcDbEntity
  8
DIMENSION
 62
3
100
AcDbMText
 10
10350.0
 20
471.25
 30
0.0
 40
105.0
 71
5
  1
2700
  0
POINT
  5
ED
330
E2
100
AcDbEntity
  8
Defpoints
100
AcDbPoint
 10
9000.0
 20
400.0
 30
0.0
  0
POINT
  5
EE
330
E2
100
AcDbEntity
  8
Defpoints
100
AcDbPoint
 10
9000.0
 20
300.0
 30
0.0
  0
POINT
  5
EF
330
E2
100
AcDbEntity
  8
Defpoints
100
AcDbPoint
 10
11700.0
 20
300.0
 30
0.0
  0
ENDBLK
  5
E4
330
E2
100
AcDbEntity
  8
0
100
AcDbBlockEnd
  0
BLOCK
  5
F7
330
F6
100
AcDbEntity
  8
0
100
AcDbBlockBegin
  2
*D11
 70
1
 10
0.0
 20
0.0
 30
0.0
  3
*D11
  1

  0
LINE
  5
F9
330
F6
100
AcDbEntity
  8
0
 62
3
100
AcDbLine
 10
11700.0
 20
300.0
 30
0.0
 11
11700.0
 21
400.0
 31
0.0
  0
LINE
  5
FA
330
F6
100
AcDbEntity
  8
0
 62
3
100
AcDbLine
 10
12000.0
 20
300.0
 30
0.0
 11
12000.0
 21
400.0
 31
0.0
  0
INSERT
  5
FB
330
F6
100
AcDbEntity
  8
DIMENSION
 62
0
100
AcDbBlockReference
  2
_CLOSEDFILLED
 10
11700.0
 20
400.0
 30
0.0
 41
120.0
 42
120.0
 50
180.0
  0
INSERT
  5
FD
330
F6
100
AcDbEntity
  8
DIMENSION
 62
0
100
AcDbBlockReference
  2
_CLOSEDFILLED
 10
12000.0
 20
400.0
 30
0.0
 41
120.0
 42
120.0
  0
LINE
  5
FF
330
F6
100
AcDbEntity
  8
0
 62
0
100
AcDbLine
 10
11820.0
 20
400.0
 30
0.0
 11
11880.0
 21
400.0
 31
0.0
  0
MTEXT
  5
100
330
F6
100
AcDbEntity
  8
DIMENSION
 62
3
100
AcDbMText
 10
11850.0
 20
471.25
 30
0.0
 40
105.0
 71
5
  1
余300
  0
POINT
  5
101
330
F6
100
AcDbEntity
  8
Defpoints
100
AcDbPoint
 10
11700.0
 20
400.0
 30
0.0
  0
POINT
  5
102
330
F6
100
AcDbEntity
  8
Defpoints
100
AcDbPoint
 10
11700.0
 20
300.0
 30
0.0
  0
POINT
  5
103
330
F6
100
AcDbEntity
  8
Defpoints
100
AcDbPoint
 10
12000.0
 20
300.0
 30
0.0
  0
ENDBLK
  5
F8
330
F6
100
AcDbEntity
  8
0
100
AcDbBlockEnd
  0
BLOCK
  5
107
330
106
100
AcDbEntity
  8
0
100
AcDbBlockBegin
  2
*D12
 70
1
 10
0.0
 20
0.0
 30
0.0
  3
*D12
  1

  0
LINE
  5
109
330
106
100
AcDbEntity
  8
0
 62
3
100
AcDbLine
 10
10.0
 20
-550.0
 30
0.0
 11
-110.0
 21
-550.0
 31
0.0
  0
LINE
  5
10A
330
106
100
AcDbEntity
  8
0
 62
3
100
AcDbLine
 10
10.0
 20
-350.0
 30
0.0
 11
-110.0
 21
-350.0
 31
0.0
  0
INSERT
  5
10B
330
106
100
AcDbEntity
  8
DIMENSION
 62
0
100
AcDbBlockReference
  2
_CLOSEDFILLED
 10
-110.0
 20
-550.0
 30
0.0
 41
120.0
 42
120.0
 50
90.0
  0
INSERT
  5
10D
330
106
100
AcDbEntity
  8
DIMENSION
 62
0
100
AcDbBlockReference
  2
_CLOSEDFILLED
 10
-110.0
 20
-350.0
 30
0.0
 41
120.0
 42
120.0
 50
270.0
  0
LINE
  5
10F
330
106
100
AcDbEntity
  8
0
 62
0
100
AcDbLine
 10
-110.0
 20
-670.0
 30
0.0
 11
-110.0
 21
-790.0
 31
0.0
  0
LINE
  5
110
330
106
100
AcDbEntity
  8
0
 62
0
100
AcDbLine
 10
-110.0
 20
-230.0
 30
0.0
 11
-110.0
 21
-110.0
 31
0.0
  0
LINE
  5
111
330
106
100
AcDbEntity
  8
0
 62
0
100
AcDbLine
 10
-110.0
 20
-550.0
 30
0.0
 11
-110.0
 21
-350.0
 31
0.0
  0
MTEXT
  5
112
330
106
100
AcDbEntity
  8
DIMENSION
 62
3
100
AcDbMText
 10
-181.25
 20
-450.0
 30
0.0
 40
105.0
 71
5
  1
200
 50
90.0
  0
POINT
  5
113
330
106
100
AcDbEntity
  8
Defpoints
100
AcDbPoint
 10
-110.0
 20
-550.0
 30
0.0
  0
POINT
  5
114
330
106
100
AcDbEntity
  8
Defpoints
100
AcDbPoint
 10
10.0
 20
-550.0
 30
0.0
  0
POINT
  5
115
330
106
100
AcDbEntity
  8
Defpoints
100
AcDbPoint
 10
10.0
 20
-350.0
 30
0.0
  0
ENDBLK
  5
108
330
106
100
AcDbEntity
  8
0
100
AcDbBlockEnd
  0
BLOCK
  5
11C
330
11B
100
AcDbEntity
  8
0
100
AcDbBlockBegin
  2
*D13
 70
1
 10
0.0
 20
0.0
 30
0.0
  3
*D13
  1

  0
LINE
  5
11E
330
11B
100
AcDbEntity
  8
0
 62
3
100
AcDbLine
 10
0.0
 20
-350.0
 30
0.0
 11
0.0
 21
-250.0
 31
0.0
  0
LINE
  5
11F
330
11B
100
AcDbEntity
  8
0
 62
3
100
AcDbLine
 10
2700.0
 20
-350.0
 30
0.0
 11
2700.0
 21
-250.0
 31
0.0
  0
INSERT
  5
120
330
11B
100
AcDbEntity
  8
DIMENSION
 62
0
100
AcDbBlockReference
  2
_CLOSEDFILLED
 10
0.0
 20
-250.0
 30
0.0
 41
120.0
 42
120.0
 50
180.0
  0
INSERT
  5
122
330
11B
100
AcDbEntity
  8
DIMENSION
 62
0
100
AcDbBlockReference
  2
_CLOSEDFILLED
 10
2700.0
 20
-250.0
 30
0.0
 41
120.0
 42
120.0
  0
LINE
  5
124
330
11B
100
AcDbEntity
  8
0
 62
0
100
AcDbLine
 10
120.0
 20
-250.00000000000003
 30
0.0
 11
2580.0
 21
-250.0
 31
0.0
  0
MTEXT
  5
125
330
11B
100
AcDbEntity
  8
DIMENSION
 62
3
100
AcDbMText
 10
1350.0
 20
-178.75
 30
0.0
 40
105.0
 71
5
  1
2700
  0
POINT
  5
126
330
11B
100
AcDbEntity
  8
Defpoints
100
AcDbPoint
 10
0.0
 20
-250.0
 30
0.0
  0
POINT
  5
127
330
11B
100
AcDbEntity
  8
Defpoints
100
AcDbPoint
 10
0.0
 20
-350.0
 30
0.0
  0
POINT
  5
128
330
11B
100
AcDbEntity
  8
Defpoints
100
AcDbPoint
 10
2700.0
 20
-350.0
 30
0.0
  0
ENDBLK
  5
11D
330
11B
100
AcDbEntity
  8
0
100
AcDbBlockEnd
  0
BLOCK
  5
12F
330
12E
100
AcDbEntity
  8
0
100
AcDbBlockBegin
  2
*D14
 70
1
 10
0.0
 20
0.0
 30
0.0
  3
*D14
  1

  0
LINE
  5
131
330
12E
100
AcDbEntity
  8
0
 62
3
100
AcDbLine
 10
2700.0
 20
-350.0
 30
0.0
 11
2700.0
 21
-250.0
 31
0.0
  0
LINE
  5
132
330
12E
100
AcDbEntity
  8
0
 62
3
100
AcDbLine
 10
5400.0
 20
-350.0
 30
0.0
 11
5400.0
 21
-250.0
 31
0.0
  0
INSERT
  5
133
330
12E
100
AcDbEntity
  8
DIMENSION
 62
0
100
AcDbBlockReference
  2
_CLOSEDFILLED
 10
2700.0
 20
-250.0
 30
0.0
 41
120.0
 42
120.0
 50
180.0
  0
INSERT
  5
135
330
12E
100
AcDbEntity
  8
DIMENSION
 62
0
100
AcDbBlockReference
  2
_CLOSEDFILLED
 10
5400.0
 20
-250.0
 30
0.0
 41
120.0
 42
120.0
  0
LINE
  5
137
330
12E
100
AcDbEntity
  8
0
 62
0
100
AcDbLine
 10
2820.0
 20
-250.00000000000003
 30
0.0
 11
5280.0
 21
-250.0
 31
0.0
  0
MTEXT
  5
138
330
12E
100
AcDbEntity
  8
DIMENSION
 62
3
100
AcDbMText
 10
4050.0
 20
-178.75
 30
0.0
 40
105.0
 71
5
  1
2700
  0
POINT
  5
139
330
12E
100
AcDbEntity
  8
Defpoints
100
AcDbPoint
 10
2700.0
 20
-250.0
 30
0.0
  0
POINT
  5
13A
330
12E
100
AcDbEntity
  8
Defpoints
100
AcDbPoint
 10
2700.0
 20
-350.0
 30
0.0
  0
POINT
  5
13B
330
12E
100
AcDbEntity
  8
Defpoints
100
AcDbPoint
 10
5400.0
 20
-350.0
 30
0.0
  0
ENDBLK
  5
130
330
12E
100
AcDbEntity
  8
0
100
AcDbBlockEnd
  0
BLOCK
  5
142
330
141
100
AcDbEntity
  8
0
100
AcDbBlockBegin
  2
*D15
 70
1
 10
0.0
 20
0.0
 30
0.0
  3
*D15
  1

  0
LINE
  5
144
330
141
100
AcDbEntity
  8
0
 62
3
100
AcDbLine
 10
5400.0
 20
-350.0
 30
0.0
 11
5400.0
 21
-250.0
 31
0.0
  0
LINE
  5
145
330
141
100
AcDbEntity
  8
0
 62
3
100
AcDbLine
 10
8100.0
 20
-350.0
 30
0.0
 11
8100.0
 21
-250.0
 31
0.0
  0
INSERT
  5
146
330
141
100
AcDbEntity
  8
DIMENSION
 62
0
100
AcDbBlockReference
  2
_CLOSEDFILLED
 10
5400.0
 20
-250.0
 30
0.0
 41
120.0
 42
120.0
 50
180.0
  0
INSERT
  5
148
330
141
100
AcDbEntity
  8
DIMENSION
 62
0
100
AcDbBlockReference
  2
_CLOSEDFILLED
 10
8100.0
 20
-250.0
 30
0.0
 41
120.0
 42
120.0
  0
LINE
  5
14A
330
141
100
AcDbEntity
  8
0
 62
0
100
AcDbLine
 10
5520.0
 20
-250.00000000000003
 30
0.0
 11
7980.0
 21
-250.0
 31
0.0
  0
MTEXT
  5
14B
330
141
100
AcDbEntity
  8
DIMENSION
 62
3
100
AcDbMText
 10
6750.0
 20
-178.75
 30
0.0
 40
105.0
 71
5
  1
2700
  0
POINT
  5
14C
330
141
100
AcDbEntity
  8
Defpoints
100
AcDbPoint
 10
5400.0
 20
-250.0
 30
0.0
  0
POINT
  5
14D
330
141
100
AcDbEntity
  8
Defpoints
100
AcDbPoint
 10
5400.0
 20
-350.0
 30
0.0
  0
POINT
  5
14E
330
141
100
AcDbEntity
  8
Defpoints
100
AcDbPoint
 10
8100.0
 20
-350.0
 30
0.0
  0
ENDBLK
  5
143
330
141
100
AcDbEntity
  8
0
100
AcDbBlockEnd
  0
BLOCK
  5
155
330
154
100
AcDbEntity
  8
0
100
AcDbBlockBegin
  2
*D16
 70
1
 10
0.0
 20
0.0
 30
0.0
  3
*D16
  1

  0
LINE
  5
157
330
154
100
AcDbEntity
  8
0
 62
3
100
AcDbLine
 10
8100.0
 20
-350.0
 30
0.0
 11
8100.0
 21
-250.0
 31
0.0
  0
LINE
  5
158
330
154
100
AcDbEntity
  8
0
 62
3
100
AcDbLine
 10
10800.0
 20
-350.0
 30
0.0
 11
10800.0
 21
-250.0
 31
0.0
  0
INSERT
  5
159
330
154
100
AcDbEntity
  8
DIMENSION
 62
0
100
AcDbBlockReference
  2
_CLOSEDFILLED
 10
8100.0
 20
-250.0
 30
0.0
 41
120.0
 42
120.0
 50
180.0
  0
INSERT
  5
15B
330
154
100
AcDbEntity
  8
DIMENSION
 62
0
100
AcDbBlockReference
  2
_CLOSEDFILLED
 10
10800.0
 20
-250.0
 30
0.0
 41
120.0
 42
120.0
  0
LINE
  5
15D
330
154
100
AcDbEntity
  8
0
 62
0
100
AcDbLine
 10
8220.0
 20
-250.00000000000003
 30
0.0
 11
10680.0
 21
-250.0
 31
0.0
  0
MTEXT
  5
15E
330
154
100
AcDbEntity
  8
DIMENSION
 62
3
100
AcDbMText
 10
9450.0
 20
-178.75
 30
0.0
 40
105.0
 71
5
  1
2700
  0
POINT
  5
15F
330
154
100
AcDbEntity
  8
Defpoints
100
AcDbPoint
 10
8100.0
 20
-250.0
 30
0.0
  0
POINT
  5
160
330
154
100
AcDbEntity
  8
Defpoints
100
AcDbPoint
 10
8100.0
 20
-350.0
 30
0.0
  0
POINT
  5
161
330
154
100
AcDbEntity
  8
Defpoints
100
AcDbPoint
 10
10800.0
 20
-350.0
 30
0.0
  0
ENDBLK
  5
156
330
154
100
AcDbEntity
  8
0
100
AcDbBlockEnd
  0
BLOCK
  5
169
330
168
100
AcDbEntity
  8
0
100
AcDbBlockBegin
  2
*D17
 70
1
 10
0.0
 20
0.0
 30
0.0
  3
*D17
  1

  0
LINE
  5
16B
330
168
100
AcDbEntity
  8
0
 62
3
100
AcDbLine
 10
10800.0
 20
-350.0
 30
0.0
 11
10800.0
 21
-250.0
 31
0.0
  0
LINE
  5
16C
330
168
100
AcDbEntity
  8
0
 62
3
100
AcDbLine
 10
12000.0
 20
-350.0
 30
0.0
 11
12000.0
 21
-250.0
 31
0.0
  0
INSERT
  5
16D
330
168
100
AcDbEntity
  8
DIMENSION
 62
0
100
AcDbBlockReference
  2
_CLOSEDFILLED
 10
10800.0
 20
-250.0
 30
0.0
 41
120.0
 42
120.0
 50
180.0
  0
INSERT
  5
16F
330
168
100
AcDbEntity
  8
DIMENSION
 62
0
100
AcDbBlockReference
  2
_CLOSEDFILLED
 10
12000.0
 20
-250.0
 30
0.0
 41
120.0
 42
120.0
  0
LINE
  5
171
330
168
100
AcDbEntity
  8
0
 62
0
100
AcDbLine
 10
10920.0
 20
-250.00000000000003
 30
0.0
 11
11880.0
 21
-250.0
 31
0.0
  0
MTEXT
  5
172
330
168
100
AcDbEntity
  8
DIMENSION
 62
3
100
AcDbMText
 10
11400.0
 20
-178.75
 30
0.0
 40
105.0
 71
5
  1
1200(+1500=2700)
  0
POINT
  5
173
330
168
100
AcDbEntity
  8
Defpoints
100
AcDbPoint
 10
10800.0
 20
-250.0
 30
0.0
  0
POINT
  5
174
330
168
100
AcDbEntity
  8
Defpoints
100
AcDbPoint
 10
10800.0
 20
-350.0
 30
0.0
  0
POINT
  5
175
330
168
100
AcDbEntity
  8
Defpoints
100
AcDbPoint
 10
12000.0
 20
-350.0
 30
0.0
  0
ENDBLK
  5
16A
330
168
100
AcDbEntity
  8
0
100
AcDbBlockEnd
  0
BLOCK
  5
17A
330
179
100
AcDbEntity
  8
0
100
AcDbBlockBegin
  2
*D18
 70
1
 10
0.0
 20
0.0
 30
0.0
  3
*D18
  1

  0
LINE
  5
17C
330
179
100
AcDbEntity
  8
0
 62
3
100
AcDbLine
 10
10.0
 20
-1200.0
 30
0.0
 11
-110.0
 21
-1200.0
 31
0.0
  0
LINE
  5
17D
330
179
100
AcDbEntity
  8
0
 62
3
100
AcDbLine
 10
10.0
 20
-1000.0
 30
0.0
 11
-110.0
 21
-1000.0
 31
0.0
  0
INSERT
  5
17E
330
179
100
AcDbEntity
  8
DIMENSION
 62
0
100
AcDbBlockReference
  2
_CLOSEDFILLED
 10
-110.0
 20
-1200.0
 30
0.0
 41
120.0
 42
120.0
 50
90.0
  0
INSERT
  5
180
330
179
100
AcDbEntity
  8
DIMENSION
 62
0
100
AcDbBlockReference
  2
_CLOSEDFILLED
 10
-110.0
 20
-1000.0
 30
0.0
 41
120.0
 42
120.0
 50
270.0
  0
LINE
  5
182
330
179
100
AcDbEntity
  8
0
 62
0
100
AcDbLine
 10
-110.0
 20
-1320.0
 30
0.0
 11
-110.0
 21
-1440.0
 31
0.0
  0
LINE
  5
183
330
179
100
AcDbEntity
  8
0
 62
0
100
AcDbLine
 10
-110.0
 20
-880.0
 30
0.0
 11
-110.0
 21
-760.0
 31
0.0
  0
LINE
  5
184
330
179
100
AcDbEntity
  8
0
 62
0
100
AcDbLine
 10
-110.0
 20
-1200.0
 30
0.0
 11
-110.0
 21
-1000.0
 31
0.0
  0
MTEXT
  5
185
330
179
100
AcDbEntity
  8
DIMENSION
 62
3
100
AcDbMText
 10
-181.25
 20
-1100.0
 30
0.0
 40
105.0
 71
5
  1
200
 50
90.0
  0
POINT
  5
186
330
179
100
AcDbEntity
  8
Defpoints
100
AcDbPoint
 10
-110.0
 20
-1200.0
 30
0.0
  0
POINT
  5
187
330
179
100
AcDbEntity
  8
Defpoints
100
AcDbPoint
 10
10.0
 20
-1200.0
 30
0.0
  0
POINT
  5
188
330
179
100
AcDbEntity
  8
Defpoints
100
AcDbPoint
 10
10.0
 20
-1000.0
 30
0.0
  0
ENDBLK
  5
17B
330
179
100
AcDbEntity
  8
0
100
AcDbBlockEnd
  0
BLOCK
  5
18F
330
18E
100
AcDbEntity
  8
0
100
AcDbBlockBegin
  2
*D19
 70
1
 10
0.0
 20
0.0
 30
0.0
  3
*D19
  1

  0
LINE
  5
191
330
18E
100
AcDbEntity
  8
0
 62
3
100
AcDbLine
 10
0.0
 20
-1000.0
 30
0.0
 11
0.0
 21
-900.0
 31
0.0
  0
LINE
  5
192
330
18E
100
AcDbEntity
  8
0
 62
3
100
AcDbLine
 10
1500.0
 20
-1000.0
 30
0.0
 11
1500.0
 21
-900.0
 31
0.0
  0
INSERT
  5
193
330
18E
100
AcDbEntity
  8
DIMENSION
 62
0
100
AcDbBlockReference
  2
_CLOSEDFILLED
 10
0.0
 20
-900.0
 30
0.0
 41
120.0
 42
120.0
 50
180.0
  0
INSERT
  5
195
330
18E
100
AcDbEntity
  8
DIMENSION
 62
0
100
AcDbBlockReference
  2
_CLOSEDFILLED
 10
1500.0
 20
-900.0
 30
0.0
 41
120.0
 42
120.0
  0
LINE
  5
197
330
18E
100
AcDbEntity
  8
0
 62
0
100
AcDbLine
 10
120.0
 20
-900.0
 30
0.0
 11
1380.0
 21
-900.0
 31
0.0
  0
MTEXT
  5
198
330
18E
100
AcDbEntity
  8
DIMENSION
 62
3
100
AcDbMText
 10
750.0
 20
-828.75
 30
0.0
 40
105.0
 71
5
  1
1500
  0
POINT
  5
199
330
18E
100
AcDbEntity
  8
Defpoints
100
AcDbPoint
 10
0.0
 20
-900.0
 30
0.0
  0
POINT
  5
19A
330
18E
100
AcDbEntity
  8
Defpoints
100
AcDbPoint
 10
0.0
 20
-1000.0
 30
0.0
  0
POINT
  5
19B
330
18E
100
AcDbEntity
  8
Defpoints
100
AcDbPoint
 10
1500.0
 20
-1000.0
 30
0.0
  0
ENDBLK
  5
190
330
18E
100
AcDbEntity
  8
0
100
AcDbBlockEnd
  0
BLOCK
  5
1A2
330
1A1
100
AcDbEntity
  8
0
100
AcDbBlockBegin
  2
*D20
 70
1
 10
0.0
 20
0.0
 30
0.0
  3
*D20
  1

  0
LINE
  5
1A4
330
1A1
100
AcDbEntity
  8
0
 62
3
100
AcDbLine
 10
1500.0
 20
-1000.0
 30
0.0
 11
1500.0
 21
-900.0
 31
0.0
  0
LINE
  5
1A5
330
1A1
100
AcDbEntity
  8
0
 62
3
100
AcDbLine
 10
4200.0
 20
-1000.0
 30
0.0
 11
4200.0
 21
-900.0
 31
0.0
  0
INSERT
  5
1A6
330
1A1
100
AcDbEntity
  8
DIMENSION
 62
0
100
AcDbBlockReference
  2
_CLOSEDFILLED
 10
1500.0
 20
-900.0
 30
0.0
 41
120.0
 42
120.0
 50
180.0
  0
INSERT
  5
1A8
330
1A1
100
AcDbEntity
  8
DIMENSION
 62
0
100
AcDbBlockReference
  2
_CLOSEDFILLED
 10
4200.0
 20
-900.0
 30
0.0
 41
120.0
 42
120.0
  0
LINE
  5
1AA
330
1A1
100
AcDbEntity
  8
0
 62
0
100
AcDbLine
 10
1620.0
 20
-900.0
 30
0.0
 11
4080.0
 21
-900.0
 31
0.0
  0
MTEXT
  5
1AB
330
1A1
100
AcDbEntity
  8
DIMENSION
 62
3
100
AcDbMText
 10
2850.0
 20
-828.75
 30
0.0
 40
105.0
 71
5
  1
2700
  0
POINT
  5
1AC
330
1A1
100
AcDbEntity
  8
Defpoints
100
AcDbPoint
 10
1500.0
 20
-900.0
 30
0.0
  0
POINT
  5
1AD
330
1A1
100
AcDbEntity
  8
Defpoints
100
AcDbPoint
 10
1500.0
 20
-1000.0
 30
0.0
  0
POINT
  5
1AE
330
1A1
100
AcDbEntity
  8
Defpoints
100
AcDbPoint
 10
4200.0
 20
-1000.0
 30
0.0
  0
ENDBLK
  5
1A3
330
1A1
100
AcDbEntity
  8
0
100
AcDbBlockEnd
  0
BLOCK
  5
1B6
330
1B5
100
AcDbEntity
  8
0
100
AcDbBlockBegin
  2
*D21
 70
1
 10
0.0
 20
0.0
 30
0.0
  3
*D21
  1

  0
LINE
  5
1B8
330
1B5
100
AcDbEntity
  8
0
 62
3
100
AcDbLine
 10
4200.0
 20
-1000.0
 30
0.0
 11
4200.0
 21
-900.0
 31
0.0
  0
LINE
  5
1B9
330
1B5
100
AcDbEntity
  8
0
 62
3
100
AcDbLine
 10
12000.0
 20
-1000.0
 30
0.0
 11
12000.0
 21
-900.0
 31
0.0
  0
INSERT
  5
1BA
330
1B5
100
AcDbEntity
  8
DIMENSION
 62
0
100
AcDbBlockReference
  2
_CLOSEDFILLED
 10
4200.0
 20
-900.0
 30
0.0
 41
120.0
 42
120.0
 50
180.0
  0
INSERT
  5
1BC
330
1B5
100
AcDbEntity
  8
DIMENSION
 62
0
100
AcDbBlockReference
  2
_CLOSEDFILLED
 10
12000.0
 20
-900.0
 30
0.0
 41
120.0
 42
120.0
  0
LINE
  5
1BE
330
1B5
100
AcDbEntity
  8
0
 62
0
100
AcDbLine
 10
4320.0
 20
-900.0
 30
0.0
 11
11880.0
 21
-900.0
 31
0.0
  0
MTEXT
  5
1BF
330
1B5
100
AcDbEntity
  8
DIMENSION
 62
3
100
AcDbMText
 10
8100.0
 20
-828.75
 30
0.0
 40
105.0
 71
5
  1
余7800
  0
POINT
  5
1C0
330
1B5
100
AcDbEntity
  8
Defpoints
100
AcDbPoint
 10
4200.0
 20
-900.0
 30
0.0
  0
POINT
  5
1C1
330
1B5
100
AcDbEntity
  8
Defpoints
100
AcDbPoint
 10
4200.0
 20
-1000.0
 30
0.0
  0
POINT
  5
1C2
330
1B5
100
AcDbEntity
  8
Defpoints
100
AcDbPoint
 10
12000.0
 20
-1000.0
 30
0.0
  0
ENDBLK
  5
1B7
330
1B5
100
AcDbEntity
  8
0
100
AcDbBlockEnd
  0
BLOCK
  5
1C7
330
1C6
100
AcDbEntity
  8
0
100
AcDbBlockBegin
  2
*D22
 70
1
 10
0.0
 20
0.0
 30
0.0
  3
*D22
  1

  0
LINE
  5
1C9
330
1C6
100
AcDbEntity
  8
0
 62
3
100
AcDbLine
 10
10.0
 20
-4550.0
 30
0.0
 11
-110.0
 21
-4550.0
 31
0.0
  0
LINE
  5
1CA
330
1C6
100
AcDbEntity
  8
0
 62
3
100
AcDbLine
 10
10.0
 20
-4250.0
 30
0.0
 11
-110.0
 21
-4250.0
 31
0.0
  0
INSERT
  5
1CB
330
1C6
100
AcDbEntity
  8
DIMENSION
 62
0
100
AcDbBlockReference
  2
_CLOSEDFILLED
 10
-110.0
 20
-4550.0
 30
0.0
 41
120.0
 42
120.0
 50
270.0
  0
INSERT
  5
1CD
330
1C6
100
AcDbEntity
  8
DIMENSION
 62
0
100
AcDbBlockReference
  2
_CLOSEDFILLED
 10
-110.0
 20
-4250.0
 30
0.0
 41
120.0
 42
120.0
 50
90.0
  0
LINE
  5
1CF
330
1C6
100
AcDbEntity
  8
0
 62
0
100
AcDbLine
 10
-109.99999999999997
 20
-4430.0
 30
0.0
 11
-110.00000000000001
 21
-4370.0
 31
0.0
  0
MTEXT
  5
1D0
330
1C6
100
AcDbEntity
  8
DIMENSION
 62
3
100
AcDbMText
 10
-181.25
 20
-4400.0
 30
0.0
 40
105.0
 71
5
  1
300
 50
90.0
  0
POINT
  5
1D1
330
1C6
100
AcDbEntity
  8
Defpoints
100
AcDbPoint
 10
-110.0
 20
-4550.0
 30
0.0
  0
POINT
  5
1D2
330
1C6
100
AcDbEntity
  8
Defpoints
100
AcDbPoint
 10
10.0
 20
-4550.0
 30
0.0
  0
POINT
  5
1D3
330
1C6
100
AcDbEntity
  8
Defpoints
100
AcDbPoint
 10
10.0
 20
-4250.0
 30
0.0
  0
ENDBLK
  5
1C8
330
1C6
100
AcDbEntity
  8
0
100
AcDbBlockEnd
  0
BLOCK
  5
1D6
330
1D5
100
AcDbEntity
  8
0
100
AcDbBlockBegin
  2
*D23
 70
1
 10
0.0
 20
0.0
 30
0.0
  3
*D23
  1

  0
LINE
  5
1D8
330
1D5
100
AcDbEntity
  8
0
 62
3
100
AcDbLine
 10
0.0
 20
-4250.0
 30
0.0
 11
0.0
 21
-3970.0
 31
0.0
  0
LINE
  5
1D9
330
1D5
100
AcDbEntity
  8
0
 62
3
100
AcDbLine
 10
12000.0
 20
-4250.0
 30
0.0
 11
12000.0
 21
-3970.0
 31
0.0
  0
INSERT
  5
1DA
330
1D5
100
AcDbEntity
  8
DIMENSION
 62
0
100
AcDbBlockReference
  2
_CLOSEDFILLED
 10
0.0
 20
-3970.0
 30
0.0
 41
120.0
 42
120.0
 50
180.0
  0
INSERT
  5
1DC
330
1D5
100
AcDbEntity
  8
DIMENSION
 62
0
100
AcDbBlockReference
  2
_CLOSEDFILLED
 10
12000.0
 20
-3970.0
 30
0.0
 41
120.0
 42
120.0
  0
LINE
  5
1DE
330
1D5
100
AcDbEntity
  8
0
 62
0
100
AcDbLine
 10
120.0
 20
-3970.0
 30
0.0
 11
11880.0
 21
-3970.0
 31
0.0
  0
MTEXT
  5
1DF
330
1D5
100
AcDbEntity
  8
DIMENSION
 62
3
100
AcDbMText
 10
6000.0
 20
-3898.75
 30
0.0
 40
105.0
 71
5
  1
12000
  0
POINT
  5
1E0
330
1D5
100
AcDbEntity
  8
Defpoints
100
AcDbPoint
 10
0.0
 20
-3970.0
 30
0.0
  0
POINT
  5
1E1
330
1D5
100
AcDbEntity
  8
Defpoints
100
AcDbPoint
 10
0.0
 20
-4250.0
 30
0.0
  0
POINT
  5
1E2
330
1D5
100
AcDbEntity
  8
Defpoints
100
AcDbPoint
 10
12000.0
 20
-4250.0
 30
0.0
  0
ENDBLK
  5
1D7
330
1D5
100
AcDbEntity
  8
0
100
AcDbBlockEnd
  0
BLOCK
  5
1E9
330
1E8
100
AcDbEntity
  8
0
100
AcDbBlockBegin
  2
*D24
 70
1
 10
0.0
 20
0.0
 30
0.0
  3
*D24
  1

  0
LINE
  5
1EB
330
1E8
100
AcDbEntity
  8
0
 62
3
100
AcDbLine
 10
0.0
 20
-4250.0
 30
0.0
 11
0.0
 21
-4150.0
 31
0.0
  0
LINE
  5
1EC
330
1E8
100
AcDbEntity
  8
0
 62
3
100
AcDbLine
 10
2400.0
 20
-4250.0
 30
0.0
 11
2400.0
 21
-4150.0
 31
0.0
  0
INSERT
  5
1ED
330
1E8
100
AcDbEntity
  8
DIMENSION
 62
0
100
AcDbBlockReference
  2
_CLOSEDFILLED
 10
0.0
 20
-4150.0
 30
0.0
 41
120.0
 42
120.0
 50
180.0
  0
INSERT
  5
1EF
330
1E8
100
AcDbEntity
  8
DIMENSION
 62
0
100
AcDbBlockReference
  2
_CLOSEDFILLED
 10
2400.0
 20
-4150.0
 30
0.0
 41
120.0
 42
120.0
  0
LINE
  5
1F1
330
1E8
100
AcDbEntity
  8
0
 62
0
100
AcDbLine
 10
120.0
 20
-4150.0
 30
0.0
 11
2280.0
 21
-4150.0
 31
0.0
  0
MTEXT
  5
1F2
330
1E8
100
AcDbEntity
  8
DIMENSION
 62
3
100
AcDbMText
 10
1200.0
 20
-4078.75
 30
0.0
 40
105.0
 71
5
  1
2400
  0
POINT
  5
1F3
330
1E8
100
AcDbEntity
  8
Defpoints
100
AcDbPoint
 10
0.0
 20
-4150.0
 30
0.0
  0
POINT
  5
1F4
330
1E8
100
AcDbEntity
  8
Defpoints
100
AcDbPoint
 10
0.0
 20
-4250.0
 30
0.0
  0
POINT
  5
1F5
330
1E8
100
AcDbEntity
  8
Defpoints
100
AcDbPoint
 10
2400.0
 20
-4250.0
 30
0.0
  0
ENDBLK
  5
1EA
330
1E8
100
AcDbEntity
  8
0
100
AcDbBlockEnd
  0
BLOCK
  5
1FC
330
1FB
100
AcDbEntity
  8
0
100
AcDbBlockBegin
  2
*D25
 70
1
 10
0.0
 20
0.0
 30
0.0
  3
*D25
  1

  0
LINE
  5
1FE
330
1FB
100
AcDbEntity
  8
0
 62
3
100
AcDbLine
 10
2400.0
 20
-4250.0
 30
0.0
 11
2400.0
 21
-4150.0
 31
0.0
  0
LINE
  5
1FF
330
1FB
100
AcDbEntity
  8
0
 62
3
100
AcDbLine
 10
4800.0
 20
-4250.0
 30
0.0
 11
4800.0
 21
-4150.0
 31
0.0
  0
INSERT
  5
200
330
1FB
100
AcDbEntity
  8
DIMENSION
 62
0
100
AcDbBlockReference
  2
_CLOSEDFILLED
 10
2400.0
 20
-4150.0
 30
0.0
 41
120.0
 42
120.0
 50
180.0
  0
INSERT
  5
202
330
1FB
100
AcDbEntity
  8
DIMENSION
 62
0
100
AcDbBlockReference
  2
_CLOSEDFILLED
 10
4800.0
 20
-4150.0
 30
0.0
 41
120.0
 42
120.0
  0
LINE
  5
204
330
1FB
100
AcDbEntity
  8
0
 62
0
100
AcDbLine
 10
2520.0
 20
-4150.0
 30
0.0
 11
4680.0
 21
-4150.0
 31
0.0
  0
MTEXT
  5
205
330
1FB
100
AcDbEntity
  8
DIMENSION
 62
3
100
AcDbMText
 10
3600.0
 20
-4078.75
 30
0.0
 40
105.0
 71
5
  1
2400
  0
POINT
  5
206
330
1FB
100
AcDbEntity
  8
Defpoints
100
AcDbPoint
 10
2400.0
 20
-4150.0
 30
0.0
  0
POINT
  5
207
330
1FB
100
AcDbEntity
  8
Defpoints
100
AcDbPoint
 10
2400.0
 20
-4250.0
 30
0.0
  0
POINT
  5
208
330
1FB
100
AcDbEntity
  8
Defpoints
100
AcDbPoint
 10
4800.0
 20
-4250.0
 30
0.0
  0
ENDBLK
  5
1FD
330
1FB
100
AcDbEntity
  8
0
100
AcDbBlockEnd
  0
BLOCK
  5
20F
330
20E
100
AcDbEntity
  8
0
100
AcDbBlockBegin
  2
*D26
 70
1
 10
0.0
 20
0.0
 30
0.0
  3
*D26
  1

  0
LINE
  5
211
330
20E
100
AcDbEntity
  8
0
 62
3
100
AcDbLine
 10
4800.0
 20
-4250.0
 30
0.0
 11
4800.0
 21
-4150.0
 31
0.0
  0
LINE
  5
212
330
20E
100
AcDbEntity
  8
0
 62
3
100
AcDbLine
 10
7200.0
 20
-4250.0
 30
0.0
 11
7200.0
 21
-4150.0
 31
0.0
  0
INSERT
  5
213
330
20E
100
AcDbEntity
  8
DIMENSION
 62
0
100
AcDbBlockReference
  2
_CLOSEDFILLED
 10
4800.0
 20
-4150.0
 30
0.0
 41
120.0
 42
120.0
 50
180.0
  0
INSERT
  5
215
330
20E
100
AcDbEntity
  8
DIMENSION
 62
0
100
AcDbBlockReference
  2
_CLOSEDFILLED
 10
7200.0
 20
-4150.0
 30
0.0
 41
120.0
 42
120.0
  0
LINE
  5
217
330
20E
100
AcDbEntity
  8
0
 62
0
100
AcDbLine
 10
4920.0
 20
-4150.0
 30
0.0
 11
7080.0
 21
-4150.0
 31
0.0
  0
MTEXT
  5
218
330
20E
100
AcDbEntity
  8
DIMENSION
 62
3
100
AcDbMText
 10
6000.0
 20
-4078.75
 30
0.0
 40
105.0
 71
5
  1
2400
  0
POINT
  5
219
330
20E
100
AcDbEntity
  8
Defpoints
100
AcDbPoint
 10
4800.0
 20
-4150.0
 30
0.0
  0
POINT
  5
21A
330
20E
100
AcDbEntity
  8
Defpoints
100
AcDbPoint
 10
4800.0
 20
-4250.0
 30
0.0
  0
POINT
  5
21B
330
20E
100
AcDbEntity
  8
Defpoints
100
AcDbPoint
 10
7200.0
 20
-4250.0
 30
0.0
  0
ENDBLK
  5
210
330
20E
100
AcDbEntity
  8
0
100
AcDbBlockEnd
  0
BLOCK
  5
222
330
221
100
AcDbEntity
  8
0
100
AcDbBlockBegin
  2
*D27
 70
1
 10
0.0
 20
0.0
 30
0.0
  3
*D27
  1

  0
LINE
  5
224
330
221
100
AcDbEntity
  8
0
 62
3
100
AcDbLine
 10
7200.0
 20
-4250.0
 30
0.0
 11
7200.0
 21
-4150.0
 31
0.0
  0
LINE
  5
225
330
221
100
AcDbEntity
  8
0
 62
3
100
AcDbLine
 10
9600.0
 20
-4250.0
 30
0.0
 11
9600.0
 21
-4150.0
 31
0.0
  0
INSERT
  5
226
330
221
100
AcDbEntity
  8
DIMENSION
 62
0
100
AcDbBlockReference
  2
_CLOSEDFILLED
 10
7200.0
 20
-4150.0
 30
0.0
 41
120.0
 42
120.0
 50
180.0
  0
INSERT
  5
228
330
221
100
AcDbEntity
  8
DIMENSION
 62
0
100
AcDbBlockReference
  2
_CLOSEDFILLED
 10
9600.0
 20
-4150.0
 30
0.0
 41
120.0
 42
120.0
  0
LINE
  5
22A
330
221
100
AcDbEntity
  8
0
 62
0
100
AcDbLine
 10
7320.0
 20
-4150.0
 30
0.0
 11
9480.0
 21
-4150.0
 31
0.0
  0
MTEXT
  5
22B
330
221
100
AcDbEntity
  8
DIMENSION
 62
3
100
AcDbMText
 10
8400.0
 20
-4078.75
 30
0.0
 40
105.0
 71
5
  1
2400
  0
POINT
  5
22C
330
221
100
AcDbEntity
  8
Defpoints
100
AcDbPoint
 10
7200.0
 20
-4150.0
 30
0.0
  0
POINT
  5
22D
330
221
100
AcDbEntity
  8
Defpoints
100
AcDbPoint
 10
7200.0
 20
-4250.0
 30
0.0
  0
POINT
  5
22E
330
221
100
AcDbEntity
  8
Defpoints
100
AcDbPoint
 10
9600.0
 20
-4250.0
 30
0.0
  0
ENDBLK
  5
223
330
221
100
AcDbEntity
  8
0
100
AcDbBlockEnd
  0
BLOCK
  5
235
330
234
100
AcDbEntity
  8
0
100
AcDbBlockBegin
  2
*D28
 70
1
 10
0.0
 20
0.0
 30
0.0
  3
*D28
  1

  0
LINE
  5
237
330
234
100
AcDbEntity
  8
0
 62
3
100
AcDbLine
 10
9600.0
 20
-4250.0
 30
0.0
 11
9600.0
 21
-4150.0
 31
0.0
  0
LINE
  5
238
330
234
100
AcDbEntity
  8
0
 62
3
100
AcDbLine
 10
12000.0
 20
-4250.0
 30
0.0
 11
12000.0
 21
-4150.0
 31
0.0
  0
INSERT
  5
239
330
234
100
AcDbEntity
  8
DIMENSION
 62
0
100
AcDbBlockReference
  2
_CLOSEDFILLED
 10
9600.0
 20
-4150.0
 30
0.0
 41
120.0
 42
120.0
 50
180.0
  0
INSERT
  5
23B
330
234
100
AcDbEntity
  8
DIMENSION
 62
0
100
AcDbBlockReference
  2
_CLOSEDFILLED
 10
12000.0
 20
-4150.0
 30
0.0
 41
120.0
 42
120.0
  0
LINE
  5
23D
330
234
100
AcDbEntity
  8
0
 62
0
100
AcDbLine
 10
9720.0
 20
-4150.0
 30
0.0
 11
11880.0
 21
-4150.0
 31
0.0
  0
MTEXT
  5
23E
330
234
100
AcDbEntity
  8
DIMENSION
 62
3
100
AcDbMText
 10
10800.0
 20
-4078.75
 30
0.0
 40
105.0
 71
5
  1
2400
  0
POINT
  5
23F
330
234
100
AcDbEntity
  8
Defpoints
100
AcDbPoint
 10
9600.0
 20
-4150.0
 30
0.0
  0
POINT
  5
240
330
234
100
AcDbEntity
  8
Defpoints
100
AcDbPoint
 10
9600.0
 20
-4250.0
 30
0.0
  0
POINT
  5
241
330
234
100
AcDbEntity
  8
Defpoints
100
AcDbPoint
 10
12000.0
 20
-4250.0
 30
0.0
  0
ENDBLK
  5
236
330
234
100
AcDbEntity
  8
0
100
AcDbBlockEnd
  0
BLOCK
  5
246
330
245
100
AcDbEntity
  8
0
100
AcDbBlockBegin
  2
*D29
 70
1
 10
0.0
 20
0.0
 30
0.0
  3
*D29
  1

  0
LINE
  5
248
330
245
100
AcDbEntity
  8
0
 62
3
100
AcDbLine
 10
10.0
 20
-5300.0
 30
0.0
 11
-110.0
 21
-5300.0
 31
0.0
  0
LINE
  5
249
330
245
100
AcDbEntity
  8
0
 62
3
100
AcDbLine
 10
10.0
 20
-5000.0
 30
0.0
 11
-110.0
 21
-5000.0
 31
0.0
  0
INSERT
  5
24A
330
245
100
AcDbEntity
  8
DIMENSION
 62
0
100
AcDbBlockReference
  2
_CLOSEDFILLED
 10
-110.0
 20
-5300.0
 30
0.0
 41
120.0
 42
120.0
 50
270.0
  0
INSERT
  5
24C
330
245
100
AcDbEntity
  8
DIMENSION
 62
0
100
AcDbBlockReference
  2
_CLOSEDFILLED
 10
-110.0
 20
-5000.0
 30
0.0
 41
120.0
 42
120.0
 50
90.0
  0
LINE
  5
24E
330
245
100
AcDbEntity
  8
0
 62
0
100
AcDbLine
 10
-109.99999999999997
 20
-5180.0
 30
0.0
 11
-110.00000000000001
 21
-5120.0
 31
0.0
  0
MTEXT
  5
24F
330
245
100
AcDbEntity
  8
DIMENSION
 62
3
100
AcDbMText
 10
-181.25
 20
-5150.0
 30
0.0
 40
105.0
 71
5
  1
300
 50
90.0
  0
POINT
  5
250
330
245
100
AcDbEntity
  8
Defpoints
100
AcDbPoint
 10
-110.0
 20
-5300.0
 30
0.0
  0
POINT
  5
251
330
245
100
AcDbEntity
  8
Defpoints
100
AcDbPoint
 10
10.0
 20
-5300.0
 30
0.0
  0
POINT
  5
252
330
245
100
AcDbEntity
  8
Defpoints
100
AcDbPoint
 10
10.0
 20
-5000.0
 30
0.0
  0
ENDBLK
  5
247
330
245
100
AcDbEntity
  8
0
100
AcDbBlockEnd
  0
BLOCK
  5
259
330
258
100
AcDbEntity
  8
0
100
AcDbBlockBegin
  2
*D30
 70
1
 10
0.0
 20
0.0
 30
0.0
  3
*D30
  1

  0
LINE
  5
25B
330
258
100
AcDbEntity
  8
0
 62
3
100
AcDbLine
 10
0.0
 20
-5000.0
 30
0.0
 11
0.0
 21
-4900.0
 31
0.0
  0
LINE
  5
25C
330
258
100
AcDbEntity
  8
0
 62
3
100
AcDbLine
 10
2700.0
 20
-5000.0
 30
0.0
 11
2700.0
 21
-4900.0
 31
0.0
  0
INSERT
  5
25D
330
258
100
AcDbEntity
  8
DIMENSION
 62
0
100
AcDbBlockReference
  2
_CLOSEDFILLED
 10
0.0
 20
-4900.0
 30
0.0
 41
120.0
 42
120.0
 50
180.0
  0
INSERT
  5
25F
330
258
100
AcDbEntity
  8
DIMENSION
 62
0
100
AcDbBlockReference
  2
_CLOSEDFILLED
 10
2700.0
 20
-4900.0
 30
0.0
 41
120.0
 42
120.0
  0
LINE
  5
261
330
258
100
AcDbEntity
  8
0
 62
0
100
AcDbLine
 10
120.0
 20
-4900.0
 30
0.0
 11
2580.0
 21
-4900.0
 31
0.0
  0
MTEXT
  5
262
330
258
100
AcDbEntity
  8
DIMENSION
 62
3
100
AcDbMText
 10
1350.0
 20
-4828.75
 30
0.0
 40
105.0
 71
5
  1
2700
  0
POINT
  5
263
330
258
100
AcDbEntity
  8
Defpoints
100
AcDbPoint
 10
0.0
 20
-4900.0
 30
0.0
  0
POINT
  5
264
330
258
100
AcDbEntity
  8
Defpoints
100
AcDbPoint
 10
0.0
 20
-5000.0
 30
0.0
  0
POINT
  5
265
330
258
100
AcDbEntity
  8
Defpoints
100
AcDbPoint
 10
2700.0
 20
-5000.0
 30
0.0
  0
ENDBLK
  5
25A
330
258
100
AcDbEntity
  8
0
100
AcDbBlockEnd
  0
BLOCK
  5
26C
330
26B
100
AcDbEntity
  8
0
100
AcDbBlockBegin
  2
*D31
 70
1
 10
0.0
 20
0.0
 30
0.0
  3
*D31
  1

  0
LINE
  5
26E
330
26B
100
AcDbEntity
  8
0
 62
3
100
AcDbLine
 10
2700.0
 20
-5000.0
 30
0.0
 11
2700.0
 21
-4900.0
 31
0.0
  0
LINE
  5
26F
330
26B
100
AcDbEntity
  8
0
 62
3
100
AcDbLine
 10
5400.0
 20
-5000.0
 30
0.0
 11
5400.0
 21
-4900.0
 31
0.0
  0
INSERT
  5
270
330
26B
100
AcDbEntity
  8
DIMENSION
 62
0
100
AcDbBlockReference
  2
_CLOSEDFILLED
 10
2700.0
 20
-4900.0
 30
0.0
 41
120.0
 42
120.0
 50
180.0
  0
INSERT
  5
272
330
26B
100
AcDbEntity
  8
DIMENSION
 62
0
100
AcDbBlockReference
  2
_CLOSEDFILLED
 10
5400.0
 20
-4900.0
 30
0.0
 41
120.0
 42
120.0
  0
LINE
  5
274
330
26B
100
AcDbEntity
  8
0
 62
0
100
AcDbLine
 10
2820.0
 20
-4900.0
 30
0.0
 11
5280.0
 21
-4900.0
 31
0.0
  0
MTEXT
  5
275
330
26B
100
AcDbEntity
  8
DIMENSION
 62
3
100
AcDbMText
 10
4050.0
 20
-4828.75
 30
0.0
 40
105.0
 71
5
  1
2700
  0
POINT
  5
276
330
26B
100
AcDbEntity
  8
Defpoints
100
AcDbPoint
 10
2700.0
 20
-4900.0
 30
0.0
  0
POINT
  5
277
330
26B
100
AcDbEntity
  8
Defpoints
100
AcDbPoint
 10
2700.0
 20
-5000.0
 30
0.0
  0
POINT
  5
278
330
26B
100
AcDbEntity
  8
Defpoints
100
AcDbPoint
 10
5400.0
 20
-5000.0
 30
0.0
  0
ENDBLK
  5
26D
330
26B
100
AcDbEntity
  8
0
100
AcDbBlockEnd
  0
BLOCK
  5
27F
330
27E
100
AcDbEntity
  8
0
100
AcDbBlockBegin
  2
*D32
 70
1
 10
0.0
 20
0.0
 30
0.0
  3
*D32
  1

  0
LINE
  5
281
330
27E
100
AcDbEntity
  8
0
 62
3
100
AcDbLine
 10
5400.0
 20
-5000.0
 30
0.0
 11
5400.0
 21
-4900.0
 31
0.0
  0
LINE
  5
282
330
27E
100
AcDbEntity
  8
0
 62
3
100
AcDbLine
 10
8100.0
 20
-5000.0
 30
0.0
 11
8100.0
 21
-4900.0
 31
0.0
  0
INSERT
  5
283
330
27E
100
AcDbEntity
  8
DIMENSION
 62
0
100
AcDbBlockReference
  2
_CLOSEDFILLED
 10
5400.0
 20
-4900.0
 30
0.0
 41
120.0
 42
120.0
 50
180.0
  0
INSERT
  5
285
330
27E
100
AcDbEntity
  8
DIMENSION
 62
0
100
AcDbBlockReference
  2
_CLOSEDFILLED
 10
8100.0
 20
-4900.0
 30
0.0
 41
120.0
 42
120.0
  0
LINE
  5
287
330
27E
100
AcDbEntity
  8
0
 62
0
100
AcDbLine
 10
5520.0
 20
-4900.0
 30
0.0
 11
7980.0
 21
-4900.0
 31
0.0
  0
MTEXT
  5
288
330
27E
100
AcDbEntity
  8
DIMENSION
 62
3
100
AcDbMText
 10
6750.0
 20
-4828.75
 30
0.0
 40
105.0
 71
5
  1
2700
  0
POINT
  5
289
330
27E
100
AcDbEntity
  8
Defpoints
100
AcDbPoint
 10
5400.0
 20
-4900.0
 30
0.0
  0
POINT
  5
28A
330
27E
100
AcDbEntity
  8
Defpoints
100
AcDbPoint
 10
5400.0
 20
-5000.0
 30
0.0
  0
POINT
  5
28B
330
27E
100
AcDbEntity
  8
Defpoints
100
AcDbPoint
 10
8100.0
 20
-5000.0
 30
0.0
  0
ENDBLK
  5
280
330
27E
100
AcDbEntity
  8
0
100
AcDbBlockEnd
  0
BLOCK
  5
292
330
291
100
AcDbEntity
  8
0
100
AcDbBlockBegin
  2
*D33
 70
1
 10
0.0
 20
0.0
 30
0.0
  3
*D33
  1

  0
LINE
  5
294
330
291
100
AcDbEntity
  8
0
 62
3
100
AcDbLine
 10
8100.0
 20
-5000.0
 30
0.0
 11
8100.0
 21
-4900.0
 31
0.0
  0
LINE
  5
295
330
291
100
AcDbEntity
  8
0
 62
3
100
AcDbLine
 10
10800.0
 20
-5000.0
 30
0.0
 11
10800.0
 21
-4900.0
 31
0.0
  0
INSERT
  5
296
330
291
100
AcDbEntity
  8
DIMENSION
 62
0
100
AcDbBlockReference
  2
_CLOSEDFILLED
 10
8100.0
 20
-4900.0
 30
0.0
 41
120.0
 42
120.0
 50
180.0
  0
INSERT
  5
298
330
291
100
AcDbEntity
  8
DIMENSION
 62
0
100
AcDbBlockReference
  2
_CLOSEDFILLED
 10
10800.0
 20
-4900.0
 30
0.0
 41
120.0
 42
120.0
  0
LINE
  5
29A
330
291
100
AcDbEntity
  8
0
 62
0
100
AcDbLine
 10
8220.0
 20
-4900.0
 30
0.0
 11
10680.0
 21
-4900.0
 31
0.0
  0
MTEXT
  5
29B
330
291
100
AcDbEntity
  8
DIMENSION
 62
3
100
AcDbMText
 10
9450.0
 20
-4828.75
 30
0.0
 40
105.0
 71
5
  1
2700
  0
POINT
  5
29C
330
291
100
AcDbEntity
  8
Defpoints
100
AcDbPoint
 10
8100.0
 20
-4900.0
 30
0.0
  0
POINT
  5
29D
330
291
100
AcDbEntity
  8
Defpoints
100
AcDbPoint
 10
8100.0
 20
-5000.0
 30
0.0
  0
POINT
  5
29E
330
291
100
AcDbEntity
  8
Defpoints
100
AcDbPoint
 10
10800.0
 20
-5000.0
 30
0.0
  0
ENDBLK
  5
293
330
291
100
AcDbEntity
  8
0
100
AcDbBlockEnd
  0
BLOCK
  5
2A6
330
2A5
100
AcDbEntity
  8
0
100
AcDbBlockBegin
  2
*D34
 70
1
 10
0.0
 20
0.0
 30
0.0
  3
*D34
  1

  0
LINE
  5
2A8
330
2A5
100
AcDbEntity
  8
0
 62
3
100
AcDbLine
 10
10800.0
 20
-5000.0
 30
0.0
 11
10800.0
 21
-4900.0
 31
0.0
  0
LINE
  5
2A9
330
2A5
100
AcDbEntity
  8
0
 62
3
100
AcDbLine
 10
12000.0
 20
-5000.0
 30
0.0
 11
12000.0
 21
-4900.0
 31
0.0
  0
INSERT
  5
2AA
330
2A5
100
AcDbEntity
  8
DIMENSION
 62
0
100
AcDbBlockReference
  2
_CLOSEDFILLED
 10
10800.0
 20
-4900.0
 30
0.0
 41
120.0
 42
120.0
 50
180.0
  0
INSERT
  5
2AC
330
2A5
100
AcDbEntity
  8
DIMENSION
 62
0
100
AcDbBlockReference
  2
_CLOSEDFILLED
 10
12000.0
 20
-4900.0
 30
0.0
 41
120.0
 42
120.0
  0
LINE
  5
2AE
330
2A5
100
AcDbEntity
  8
0
 62
0
100
AcDbLine
 10
10920.0
 20
-4900.0
 30
0.0
 11
11880.0
 21
-4900.0
 31
0.0
  0
MTEXT
  5
2AF
330
2A5
100
AcDbEntity
  8
DIMENSION
 62
3
100
AcDbMText
 10
11400.0
 20
-4828.75
 30
0.0
 40
105.0
 71
5
  1
1200(+1500=2700)
  0
POINT
  5
2B0
330
2A5
100
AcDbEntity
  8
Defpoints
100
AcDbPoint
 10
10800.0
 20
-4900.0
 30
0.0
  0
POINT
  5
2B1
330
2A5
100
AcDbEntity
  8
Defpoints
100
AcDbPoint
 10
10800.0
 20
-5000.0
 30
0.0
  0
POINT
  5
2B2
330
2A5
100
AcDbEntity
  8
Defpoints
100
AcDbPoint
 10
12000.0
 20
-5000.0
 30
0.0
  0
ENDBLK
  5
2A7
330
2A5
100
AcDbEntity
  8
0
100
AcDbBlockEnd
  0
BLOCK
  5
2B7
330
2B6
100
AcDbEntity
  8
0
100
AcDbBlockBegin
  2
*D35
 70
1
 10
0.0
 20
0.0
 30
0.0
  3
*D35
  1

  0
LINE
  5
2B9
330
2B6
100
AcDbEntity
  8
0
 62
3
100
AcDbLine
 10
10.0
 20
-6050.0
 30
0.0
 11
-110.0
 21
-6050.0
 31
0.0
  0
LINE
  5
2BA
330
2B6
100
AcDbEntity
  8
0
 62
3
100
AcDbLine
 10
10.0
 20
-5750.0
 30
0.0
 11
-110.0
 21
-5750.0
 31
0.0
  0
INSERT
  5
2BB
330
2B6
100
AcDbEntity
  8
DIMENSION
 62
0
100
AcDbBlockReference
  2
_CLOSEDFILLED
 10
-110.0
 20
-6050.0
 30
0.0
 41
120.0
 42
120.0
 50
270.0
  0
INSERT
  5
2BD
330
2B6
100
AcDbEntity
  8
DIMENSION
 62
0
100
AcDbBlockReference
  2
_CLOSEDFILLED
 10
-110.0
 20
-5750.0
 30
0.0
 41
120.0
 42
120.0
 50
90.0
  0
LINE
  5
2BF
330
2B6
100
AcDbEntity
  8
0
 62
0
100
AcDbLine
 10
-109.99999999999997
 20
-5930.0
 30
0.0
 11
-110.00000000000001
 21
-5870.0
 31
0.0
  0
MTEXT
  5
2C0
330
2B6
100
AcDbEntity
  8
DIMENSION
 62
3
100
AcDbMText
 10
-181.25
 20
-5900.0
 30
0.0
 40
105.0
 71
5
  1
300
 50
90.0
  0
POINT
  5
2C1
330
2B6
100
AcDbEntity
  8
Defpoints
100
AcDbPoint
 10
-110.0
 20
-6050.0
 30
0.0
  0
POINT
  5
2C2
330
2B6
100
AcDbEntity
  8
Defpoints
100
AcDbPoint
 10
10.0
 20
-6050.0
 30
0.0
  0
POINT
  5
2C3
330
2B6
100
AcDbEntity
  8
Defpoints
100
AcDbPoint
 10
10.0
 20
-5750.0
 30
0.0
  0
ENDBLK
  5
2B8
330
2B6
100
AcDbEntity
  8
0
100
AcDbBlockEnd
  0
BLOCK
  5
2CA
330
2C9
100
AcDbEntity
  8
0
100
AcDbBlockBegin
  2
*D36
 70
1
 10
0.0
 20
0.0
 30
0.0
  3
*D36
  1

  0
LINE
  5
2CC
330
2C9
100
AcDbEntity
  8
0
 62
3
100
AcDbLine
 10
0.0
 20
-5750.0
 30
0.0
 11
0.0
 21
-5650.0
 31
0.0
  0
LINE
  5
2CD
330
2C9
100
AcDbEntity
  8
0
 62
3
100
AcDbLine
 10
1500.0
 20
-5750.0
 30
0.0
 11
1500.0
 21
-5650.0
 31
0.0
  0
INSERT
  5
2CE
330
2C9
100
AcDbEntity
  8
DIMENSION
 62
0
100
AcDbBlockReference
  2
_CLOSEDFILLED
 10
0.0
 20
-5650.0
 30
0.0
 41
120.0
 42
120.0
 50
180.0
  0
INSERT
  5
2D0
330
2C9
100
AcDbEntity
  8
DIMENSION
 62
0
100
AcDbBlockReference
  2
_CLOSEDFILLED
 10
1500.0
 20
-5650.0
 30
0.0
 41
120.0
 42
120.0
  0
LINE
  5
2D2
330
2C9
100
AcDbEntity
  8
0
 62
0
100
AcDbLine
 10
120.0
 20
-5650.0
 30
0.0
 11
1380.0
 21
-5650.0
 31
0.0
  0
MTEXT
  5
2D3
330
2C9
100
AcDbEntity
  8
DIMENSION
 62
3
100
AcDbMText
 10
750.0
 20
-5578.75
 30
0.0
 40
105.0
 71
5
  1
1500
  0
POINT
  5
2D4
330
2C9
100
AcDbEntity
  8
Defpoints
100
AcDbPoint
 10
0.0
 20
-5650.0
 30
0.0
  0
POINT
  5
2D5
330
2C9
100
AcDbEntity
  8
Defpoints
100
AcDbPoint
 10
0.0
 20
-5750.0
 30
0.0
  0
POINT
  5
2D6
330
2C9
100
AcDbEntity
  8
Defpoints
100
AcDbPoint
 10
1500.0
 20
-5750.0
 30
0.0
  0
ENDBLK
  5
2CB
330
2C9
100
AcDbEntity
  8
0
100
AcDbBlockEnd
  0
BLOCK
  5
2DD
330
2DC
100
AcDbEntity
  8
0
100
AcDbBlockBegin
  2
*D37
 70
1
 10
0.0
 20
0.0
 30
0.0
  3
*D37
  1

  0
LINE
  5
2DF
330
2DC
100
AcDbEntity
  8
0
 62
3
100
AcDbLine
 10
1500.0
 20
-5750.0
 30
0.0
 11
1500.0
 21
-5650.0
 31
0.0
  0
LINE
  5
2E0
330
2DC
100
AcDbEntity
  8
0
 62
3
100
AcDbLine
 10
4200.0
 20
-5750.0
 30
0.0
 11
4200.0
 21
-5650.0
 31
0.0
  0
INSERT
  5
2E1
330
2DC
100
AcDbEntity
  8
DIMENSION
 62
0
100
AcDbBlockReference
  2
_CLOSEDFILLED
 10
1500.0
 20
-5650.0
 30
0.0
 41
120.0
 42
120.0
 50
180.0
  0
INSERT
  5
2E3
330
2DC
100
AcDbEntity
  8
DIMENSION
 62
0
100
AcDbBlockReference
  2
_CLOSEDFILLED
 10
4200.0
 20
-5650.0
 30
0.0
 41
120.0
 42
120.0
  0
LINE
  5
2E5
330
2DC
100
AcDbEntity
  8
0
 62
0
100
AcDbLine
 10
1620.0
 20
-5650.0
 30
0.0
 11
4080.0
 21
-5650.0
 31
0.0
  0
MTEXT
  5
2E6
330
2DC
100
AcDbEntity
  8
DIMENSION
 62
3
100
AcDbMText
 10
2850.0
 20
-5578.75
 30
0.0
 40
105.0
 71
5
  1
2700
  0
POINT
  5
2E7
330
2DC
100
AcDbEntity
  8
Defpoints
100
AcDbPoint
 10
1500.0
 20
-5650.0
 30
0.0
  0
POINT
  5
2E8
330
2DC
100
AcDbEntity
  8
Defpoints
100
AcDbPoint
 10
1500.0
 20
-5750.0
 30
0.0
  0
POINT
  5
2E9
330
2DC
100
AcDbEntity
  8
Defpoints
100
AcDbPoint
 10
4200.0
 20
-5750.0
 30
0.0
  0
ENDBLK
  5
2DE
330
2DC
100
AcDbEntity
  8
0
100
AcDbBlockEnd
  0
BLOCK
  5
2F0
330
2EF
100
AcDbEntity
  8
0
100
AcDbBlockBegin
  2
*D38
 70
1
 10
0.0
 20
0.0
 30
0.0
  3
*D38
  1

  0
LINE
  5
2F2
330
2EF
100
AcDbEntity
  8
0
 62
3
100
AcDbLine
 10
4200.0
 20
-5750.0
 30
0.0
 11
4200.0
 21
-5650.0
 31
0.0
  0
LINE
  5
2F3
330
2EF
100
AcDbEntity
  8
0
 62
3
100
AcDbLine
 10
6900.0
 20
-5750.0
 30
0.0
 11
6900.0
 21
-5650.0
 31
0.0
  0
INSERT
  5
2F4
330
2EF
100
AcDbEntity
  8
DIMENSION
 62
0
100
AcDbBlockReference
  2
_CLOSEDFILLED
 10
4200.0
 20
-5650.0
 30
0.0
 41
120.0
 42
120.0
 50
180.0
  0
INSERT
  5
2F6
330
2EF
100
AcDbEntity
  8
DIMENSION
 62
0
100
AcDbBlockReference
  2
_CLOSEDFILLED
 10
6900.0
 20
-5650.0
 30
0.0
 41
120.0
 42
120.0
  0
LINE
  5
2F8
330
2EF
100
AcDbEntity
  8
0
 62
0
100
AcDbLine
 10
4320.0
 20
-5650.0
 30
0.0
 11
6780.0
 21
-5650.0
 31
0.0
  0
MTEXT
  5
2F9
330
2EF
100
AcDbEntity
  8
DIMENSION
 62
3
100
AcDbMText
 10
5550.0
 20
-5578.75
 30
0.0
 40
105.0
 71
5
  1
2700
  0
POINT
  5
2FA
330
2EF
100
AcDbEntity
  8
Defpoints
100
AcDbPoint
 10
4200.0
 20
-5650.0
 30
0.0
  0
POINT
  5
2FB
330
2EF
100
AcDbEntity
  8
Defpoints
100
AcDbPoint
 10
4200.0
 20
-5750.0
 30
0.0
  0
POINT
  5
2FC
330
2EF
100
AcDbEntity
  8
Defpoints
100
AcDbPoint
 10
6900.0
 20
-5750.0
 30
0.0
  0
ENDBLK
  5
2F1
330
2EF
100
AcDbEntity
  8
0
100
AcDbBlockEnd
  0
BLOCK
  5
303
330
302
100
AcDbEntity
  8
0
100
AcDbBlockBegin
  2
*D39
 70
1
 10
0.0
 20
0.0
 30
0.0
  3
*D39
  1

  0
LINE
  5
305
330
302
100
AcDbEntity
  8
0
 62
3
100
AcDbLine
 10
6900.0
 20
-5750.0
 30
0.0
 11
6900.0
 21
-5650.0
 31
0.0
  0
LINE
  5
306
330
302
100
AcDbEntity
  8
0
 62
3
100
AcDbLine
 10
9600.0
 20
-5750.0
 30
0.0
 11
9600.0
 21
-5650.0
 31
0.0
  0
INSERT
  5
307
330
302
100
AcDbEntity
  8
DIMENSION
 62
0
100
AcDbBlockReference
  2
_CLOSEDFILLED
 10
6900.0
 20
-5650.0
 30
0.0
 41
120.0
 42
120.0
 50
180.0
  0
INSERT
  5
309
330
302
100
AcDbEntity
  8
DIMENSION
 62
0
100
AcDbBlockReference
  2
_CLOSEDFILLED
 10
9600.0
 20
-5650.0
 30
0.0
 41
120.0
 42
120.0
  0
LINE
  5
30B
330
302
100
AcDbEntity
  8
0
 62
0
100
AcDbLine
 10
7020.0
 20
-5650.0
 30
0.0
 11
9480.0
 21
-5650.0
 31
0.0
  0
MTEXT
  5
30C
330
302
100
AcDbEntity
  8
DIMENSION
 62
3
100
AcDbMText
 10
8250.0
 20
-5578.75
 30
0.0
 40
105.0
 71
5
  1
2700
  0
POINT
  5
30D
330
302
100
AcDbEntity
  8
Defpoints
100
AcDbPoint
 10
6900.0
 20
-5650.0
 30
0.0
  0
POINT
  5
30E
330
302
100
AcDbEntity
  8
Defpoints
100
AcDbPoint
 10
6900.0
 20
-5750.0
 30
0.0
  0
POINT
  5
30F
330
302
100
AcDbEntity
  8
Defpoints
100
AcDbPoint
 10
9600.0
 20
-5750.0
 30
0.0
  0
ENDBLK
  5
304
330
302
100
AcDbEntity
  8
0
100
AcDbBlockEnd
  0
BLOCK
  5
317
330
316
100
AcDbEntity
  8
0
100
AcDbBlockBegin
  2
*D40
 70
1
 10
0.0
 20
0.0
 30
0.0
  3
*D40
  1

  0
LINE
  5
319
330
316
100
AcDbEntity
  8
0
 62
3
100
AcDbLine
 10
9600.0
 20
-5750.0
 30
0.0
 11
9600.0
 21
-5650.0
 31
0.0
  0
LINE
  5
31A
330
316
100
AcDbEntity
  8
0
 62
3
100
AcDbLine
 10
12000.0
 20
-5750.0
 30
0.0
 11
12000.0
 21
-5650.0
 31
0.0
  0
INSERT
  5
31B
330
316
100
AcDbEntity
  8
DIMENSION
 62
0
100
AcDbBlockReference
  2
_CLOSEDFILLED
 10
9600.0
 20
-5650.0
 30
0.0
 41
120.0
 42
120.0
 50
180.0
  0
INSERT
  5
31D
330
316
100
AcDbEntity
  8
DIMENSION
 62
0
100
AcDbBlockReference
  2
_CLOSEDFILLED
 10
12000.0
 20
-5650.0
 30
0.0
 41
120.0
 42
120.0
  0
LINE
  5
31F
330
316
100
AcDbEntity
  8
0
 62
0
100
AcDbLine
 10
9720.0
 20
-5650.0
 30
0.0
 11
11880.0
 21
-5650.0
 31
0.0
  0
MTEXT
  5
320
330
316
100
AcDbEntity
  8
DIMENSION
 62
3
100
AcDbMText
 10
10800.0
 20
-5578.75
 30
0.0
 40
105.0
 71
5
  1
2400
  0
POINT
  5
321
330
316
100
AcDbEntity
  8
Defpoints
100
AcDbPoint
 10
9600.0
 20
-5650.0
 30
0.0
  0
POINT
  5
322
330
316
100
AcDbEntity
  8
Defpoints
100
AcDbPoint
 10
9600.0
 20
-5750.0
 30
0.0
  0
POINT
  5
323
330
316
100
AcDbEntity
  8
Defpoints
100
AcDbPoint
 10
12000.0
 20
-5750.0
 30
0.0
  0
ENDBLK
  5
318
330
316
100
AcDbEntity
  8
0
100
AcDbBlockEnd
  0
BLOCK
  5
327
330
326
100
AcDbEntity
  8
0
100
AcDbBlockBegin
  2
*D41
 70
1
 10
0.0
 20
0.0
 30
0.0
  3
*D41
  1

  0
LINE
  5
329
330
326
100
AcDbEntity
  8
0
 62
3
100
AcDbLine
 10
10.0
 20
-6800.0
 30
0.0
 11
-110.0
 21
-6800.0
 31
0.0
  0
LINE
  5
32A
330
326
100
AcDbEntity
  8
0
 62
3
100
AcDbLine
 10
10.0
 20
-6500.0
 30
0.0
 11
-110.0
 21
-6500.0
 31
0.0
  0
INSERT
  5
32B
330
326
100
AcDbEntity
  8
DIMENSION
 62
0
100
AcDbBlockReference
  2
_CLOSEDFILLED
 10
-110.0
 20
-6800.0
 30
0.0
 41
120.0
 42
120.0
 50
270.0
  0
INSERT
  5
32D
330
326
100
AcDbEntity
  8
DIMENSION
 62
0
100
AcDbBlockReference
  2
_CLOSEDFILLED
 10
-110.0
 20
-6500.0
 30
0.0
 41
120.0
 42
120.0
 50
90.0
  0
LINE
  5
32F
330
326
100
AcDbEntity
  8
0
 62
0
100
AcDbLine
 10
-109.99999999999997
 20
-6680.0
 30
0.0
 11
-110.00000000000001
 21
-6620.0
 31
0.0
  0
MTEXT
  5
330
330
326
100
AcDbEntity
  8
DIMENSION
 62
3
100
AcDbMText
 10
-181.25
 20
-6650.0
 30
0.0
 40
105.0
 71
5
  1
300
 50
90.0
  0
POINT
  5
331
330
326
100
AcDbEntity
  8
Defpoints
100
AcDbPoint
 10
-110.0
 20
-6800.0
 30
0.0
  0
POINT
  5
332
330
326
100
AcDbEntity
  8
Defpoints
100
AcDbPoint
 10
10.0
 20
-6800.0
 30
0.0
  0
POINT
  5
333
330
326
100
AcDbEntity
  8
Defpoints
100
AcDbPoint
 10
10.0
 20
-6500.0
 30
0.0
  0
ENDBLK
  5
328
330
326
100
AcDbEntity
  8
0
100
AcDbBlockEnd
  0
BLOCK
  5
33A
330
339
100
AcDbEntity
  8
0
100
AcDbBlockBegin
  2
*D42
 70
1
 10
0.0
 20
0.0
 30
0.0
  3
*D42
  1

  0
LINE
  5
33C
330
339
100
AcDbEntity
  8
0
 62
3
100
AcDbLine
 10
0.0
 20
-6500.0
 30
0.0
 11
0.0
 21
-6400.0
 31
0.0
  0
LINE
  5
33D
330
339
100
AcDbEntity
  8
0
 62
3
100
AcDbLine
 10
2700.0
 20
-6500.0
 30
0.0
 11
2700.0
 21
-6400.0
 31
0.0
  0
INSERT
  5
33E
330
339
100
AcDbEntity
  8
DIMENSION
 62
0
100
AcDbBlockReference
  2
_CLOSEDFILLED
 10
0.0
 20
-6400.0
 30
0.0
 41
120.0
 42
120.0
 50
180.0
  0
INSERT
  5
340
330
339
100
AcDbEntity
  8
DIMENSION
 62
0
100
AcDbBlockReference
  2
_CLOSEDFILLED
 10
2700.0
 20
-6400.0
 30
0.0
 41
120.0
 42
120.0
  0
LINE
  5
342
330
339
100
AcDbEntity
  8
0
 62
0
100
AcDbLine
 10
120.0
 20
-6400.0
 30
0.0
 11
2580.0
 21
-6400.0
 31
0.0
  0
MTEXT
  5
343
330
339
100
AcDbEntity
  8
DIMENSION
 62
3
100
AcDbMText
 10
1350.0
 20
-6328.75
 30
0.0
 40
105.0
 71
5
  1
2700
  0
POINT
  5
344
330
339
100
AcDbEntity
  8
Defpoints
100
AcDbPoint
 10
0.0
 20
-6400.0
 30
0.0
  0
POINT
  5
345
330
339
100
AcDbEntity
  8
Defpoints
100
AcDbPoint
 10
0.0
 20
-6500.0
 30
0.0
  0
POINT
  5
346
330
339
100
AcDbEntity
  8
Defpoints
100
AcDbPoint
 10
2700.0
 20
-6500.0
 30
0.0
  0
ENDBLK
  5
33B
330
339
100
AcDbEntity
  8
0
100
AcDbBlockEnd
  0
BLOCK
  5
34D
330
34C
100
AcDbEntity
  8
0
100
AcDbBlockBegin
  2
*D43
 70
1
 10
0.0
 20
0.0
 30
0.0
  3
*D43
  1

  0
LINE
  5
34F
330
34C
100
AcDbEntity
  8
0
 62
3
100
AcDbLine
 10
2700.0
 20
-6500.0
 30
0.0
 11
2700.0
 21
-6400.0
 31
0.0
  0
LINE
  5
350
330
34C
100
AcDbEntity
  8
0
 62
3
100
AcDbLine
 10
5400.0
 20
-6500.0
 30
0.0
 11
5400.0
 21
-6400.0
 31
0.0
  0
INSERT
  5
351
330
34C
100
AcDbEntity
  8
DIMENSION
 62
0
100
AcDbBlockReference
  2
_CLOSEDFILLED
 10
2700.0
 20
-6400.0
 30
0.0
 41
120.0
 42
120.0
 50
180.0
  0
INSERT
  5
353
330
34C
100
AcDbEntity
  8
DIMENSION
 62
0
100
AcDbBlockReference
  2
_CLOSEDFILLED
 10
5400.0
 20
-6400.0
 30
0.0
 41
120.0
 42
120.0
  0
LINE
  5
355
330
34C
100
AcDbEntity
  8
0
 62
0
100
AcDbLine
 10
2820.0
 20
-6400.0
 30
0.0
 11
5280.0
 21
-6400.0
 31
0.0
  0
MTEXT
  5
356
330
34C
100
AcDbEntity
  8
DIMENSION
 62
3
100
AcDbMText
 10
4050.0
 20
-6328.75
 30
0.0
 40
105.0
 71
5
  1
2700
  0
POINT
  5
357
330
34C
100
AcDbEntity
  8
Defpoints
100
AcDbPoint
 10
2700.0
 20
-6400.0
 30
0.0
  0
POINT
  5
358
330
34C
100
AcDbEntity
  8
Defpoints
100
AcDbPoint
 10
2700.0
 20
-6500.0
 30
0.0
  0
POINT
  5
359
330
34C
100
AcDbEntity
  8
Defpoints
100
AcDbPoint
 10
5400.0
 20
-6500.0
 30
0.0
  0
ENDBLK
  5
34E
330
34C
100
AcDbEntity
  8
0
100
AcDbBlockEnd
  0
BLOCK
  5
360
330
35F
100
AcDbEntity
  8
0
100
AcDbBlockBegin
  2
*D44
 70
1
 10
0.0
 20
0.0
 30
0.0
  3
*D44
  1

  0
LINE
  5
362
330
35F
100
AcDbEntity
  8
0
 62
3
100
AcDbLine
 10
5400.0
 20
-6500.0
 30
0.0
 11
5400.0
 21
-6400.0
 31
0.0
  0
LINE
  5
363
330
35F
100
AcDbEntity
  8
0
 62
3
100
AcDbLine
 10
8100.0
 20
-6500.0
 30
0.0
 11
8100.0
 21
-6400.0
 31
0.0
  0
INSERT
  5
364
330
35F
100
AcDbEntity
  8
DIMENSION
 62
0
100
AcDbBlockReference
  2
_CLOSEDFILLED
 10
5400.0
 20
-6400.0
 30
0.0
 41
120.0
 42
120.0
 50
180.0
  0
INSERT
  5
366
330
35F
100
AcDbEntity
  8
DIMENSION
 62
0
100
AcDbBlockReference
  2
_CLOSEDFILLED
 10
8100.0
 20
-6400.0
 30
0.0
 41
120.0
 42
120.0
  0
LINE
  5
368
330
35F
100
AcDbEntity
  8
0
 62
0
100
AcDbLine
 10
5520.0
 20
-6400.0
 30
0.0
 11
7980.0
 21
-6400.0
 31
0.0
  0
MTEXT
  5
369
330
35F
100
AcDbEntity
  8
DIMENSION
 62
3
100
AcDbMText
 10
6750.0
 20
-6328.75
 30
0.0
 40
105.0
 71
5
  1
2700
  0
POINT
  5
36A
330
35F
100
AcDbEntity
  8
Defpoints
100
AcDbPoint
 10
5400.0
 20
-6400.0
 30
0.0
  0
POINT
  5
36B
330
35F
100
AcDbEntity
  8
Defpoints
100
AcDbPoint
 10
5400.0
 20
-6500.0
 30
0.0
  0
POINT
  5
36C
330
35F
100
AcDbEntity
  8
Defpoints
100
AcDbPoint
 10
8100.0
 20
-6500.0
 30
0.0
  0
ENDBLK
  5
361
330
35F
100
AcDbEntity
  8
0
100
AcDbBlockEnd
  0
BLOCK
  5
373
330
372
100
AcDbEntity
  8
0
100
AcDbBlockBegin
  2
*D45
 70
1
 10
0.0
 20
0.0
 30
0.0
  3
*D45
  1

  0
LINE
  5
375
330
372
100
AcDbEntity
  8
0
 62
3
100
AcDbLine
 10
8100.0
 20
-6500.0
 30
0.0
 11
8100.0
 21
-6400.0
 31
0.0
  0
LINE
  5
376
330
372
100
AcDbEntity
  8
0
 62
3
100
AcDbLine
 10
10800.0
 20
-6500.0
 30
0.0
 11
10800.0
 21
-6400.0
 31
0.0
  0
INSERT
  5
377
330
372
100
AcDbEntity
  8
DIMENSION
 62
0
100
AcDbBlockReference
  2
_CLOSEDFILLED
 10
8100.0
 20
-6400.0
 30
0.0
 41
120.0
 42
120.0
 50
180.0
  0
INSERT
  5
379
330
372
100
AcDbEntity
  8
DIMENSION
 62
0
100
AcDbBlockReference
  2
_CLOSEDFILLED
 10
10800.0
 20
-6400.0
 30
0.0
 41
120.0
 42
120.0
  0
LINE
  5
37B
330
372
100
AcDbEntity
  8
0
 62
0
100
AcDbLine
 10
8220.0
 20
-6400.0
 30
0.0
 11
10680.0
 21
-6400.0
 31
0.0
  0
MTEXT
  5
37C
330
372
100
AcDbEntity
  8
DIMENSION
 62
3
100
AcDbMText
 10
9450.0
 20
-6328.75
 30
0.0
 40
105.0
 71
5
  1
2700
  0
POINT
  5
37D
330
372
100
AcDbEntity
  8
Defpoints
100
AcDbPoint
 10
8100.0
 20
-6400.0
 30
0.0
  0
POINT
  5
37E
330
372
100
AcDbEntity
  8
Defpoints
100
AcDbPoint
 10
8100.0
 20
-6500.0
 30
0.0
  0
POINT
  5
37F
330
372
100
AcDbEntity
  8
Defpoints
100
AcDbPoint
 10
10800.0
 20
-6500.0
 30
0.0
  0
ENDBLK
  5
374
330
372
100
AcDbEntity
  8
0
100
AcDbBlockEnd
  0
BLOCK
  5
387
330
386
100
AcDbEntity
  8
0
100
AcDbBlockBegin
  2
*D46
 70
1
 10
0.0
 20
0.0
 30
0.0
  3
*D46
  1

  0
LINE
  5
389
330
386
100
AcDbEntity
  8
0
 62
3
100
AcDbLine
 10
10800.0
 20
-6500.0
 30
0.0
 11
10800.0
 21
-6400.0
 31
0.0
  0
LINE
  5
38A
330
386
100
AcDbEntity
  8
0
 62
3
100
AcDbLine
 10
12000.0
 20
-6500.0
 30
0.0
 11
12000.0
 21
-6400.0
 31
0.0
  0
INSERT
  5
38B
330
386
100
AcDbEntity
  8
DIMENSION
 62
0
100
AcDbBlockReference
  2
_CLOSEDFILLED
 10
10800.0
 20
-6400.0
 30
0.0
 41
120.0
 42
120.0
 50
180.0
  0
INSERT
  5
38D
330
386
100
AcDbEntity
  8
DIMENSION
 62
0
100
AcDbBlockReference
  2
_CLOSEDFILLED
 10
12000.0
 20
-6400.0
 30
0.0
 41
120.0
 42
120.0
  0
LINE
  5
38F
330
386
100
AcDbEntity
  8
0
 62
0
100
AcDbLine
 10
10920.0
 20
-6400.0
 30
0.0
 11
11880.0
 21
-6400.0
 31
0.0
  0
MTEXT
  5
390
330
386
100
AcDbEntity
  8
DIMENSION
 62
3
100
AcDbMText
 10
11400.0
 20
-6328.75
 30
0.0
 40
105.0
 71
5
  1
余1200
  0
POINT
  5
391
330
386
100
AcDbEntity
  8
Defpoints
100
AcDbPoint
 10
10800.0
 20
-6400.0
 30
0.0
  0
POINT
  5
392
330
386
100
AcDbEntity
  8
Defpoints
100
AcDbPoint
 10
10800.0
 20
-6500.0
 30
0.0
  0
POINT
  5
393
330
386
100
AcDbEntity
  8
Defpoints
100
AcDbPoint
 10
12000.0
 20
-6500.0
 30
0.0
  0
ENDBLK
  5
388
330
386
100
AcDbEntity
  8
0
100
AcDbBlockEnd
  0
BLOCK
  5
398
330
397
100
AcDbEntity
  8
0
100
AcDbBlockBegin
  2
*D47
 70
1
 10
0.0
 20
0.0
 30
0.0
  3
*D47
  1

  0
LINE
  5
39A
330
397
100
AcDbEntity
  8
0
 62
3
100
AcDbLine
 10
10.0
 20
-10225.0
 30
0.0
 11
-110.0
 21
-10225.0
 31
0.0
  0
LINE
  5
39B
330
397
100
AcDbEntity
  8
0
 62
3
100
AcDbLine
 10
10.0
 20
-9875.0
 30
0.0
 11
-110.0
 21
-9875.0
 31
0.0
  0
INSERT
  5
39C
330
397
100
AcDbEntity
  8
DIMENSION
 62
0
100
AcDbBlockReference
  2
_CLOSEDFILLED
 10
-110.0
 20
-10225.0
 30
0.0
 41
120.0
 42
120.0
 50
270.0
  0
INSERT
  5
39E
330
397
100
AcDbEntity
  8
DIMENSION
 62
0
100
AcDbBlockReference
  2
_CLOSEDFILLED
 10
-110.0
 20
-9875.0
 30
0.0
 41
120.0
 42
120.0
 50
90.0
  0
LINE
  5
3A0
330
397
100
AcDbEntity
  8
0
 62
0
100
AcDbLine
 10
-109.99999999999997
 20
-10105.0
 30
0.0
 11
-110.00000000000001
 21
-9995.0
 31
0.0
  0
MTEXT
  5
3A1
330
397
100
AcDbEntity
  8
DIMENSION
 62
3
100
AcDbMText
 10
-181.25
 20
-10050.0
 30
0.0
 40
105.0
 71
5
  1
350
 50
90.0
  0
POINT
  5
3A2
330
397
100
AcDbEntity
  8
Defpoints
100
AcDbPoint
 10
-110.0
 20
-10225.0
 30
0.0
  0
POINT
  5
3A3
330
397
100
AcDbEntity
  8
Defpoints
100
AcDbPoint
 10
10.0
 20
-10225.0
 30
0.0
  0
POINT
  5
3A4
330
397
100
AcDbEntity
  8
Defpoints
100
AcDbPoint
 10
10.0
 20
-9875.0
 30
0.0
  0
ENDBLK
  5
399
330
397
100
AcDbEntity
  8
0
100
AcDbBlockEnd
  0
BLOCK
  5
3A7
330
3A6
100
AcDbEntity
  8
0
100
AcDbBlockBegin
  2
*D48
 70
1
 10
0.0
 20
0.0
 30
0.0
  3
*D48
  1

  0
LINE
  5
3A9
330
3A6
100
AcDbEntity
  8
0
 62
3
100
AcDbLine
 10
0.0
 20
-9875.0
 30
0.0
 11
0.0
 21
-9595.0
 31
0.0
  0
LINE
  5
3AA
330
3A6
100
AcDbEntity
  8
0
 62
3
100
AcDbLine
 10
12000.0
 20
-9875.0
 30
0.0
 11
12000.0
 21
-9595.0
 31
0.0
  0
INSERT
  5
3AB
330
3A6
100
AcDbEntity
  8
DIMENSION
 62
0
100
AcDbBlockReference
  2
_CLOSEDFILLED
 10
0.0
 20
-9595.0
 30
0.0
 41
120.0
 42
120.0
 50
180.0
  0
INSERT
  5
3AD
330
3A6
100
AcDbEntity
  8
DIMENSION
 62
0
100
AcDbBlockReference
  2
_CLOSEDFILLED
 10
12000.0
 20
-9595.0
 30
0.0
 41
120.0
 42
120.0
  0
LINE
  5
3AF
330
3A6
100
AcDbEntity
  8
0
 62
0
100
AcDbLine
 10
120.0
 20
-9595.0
 30
0.0
 11
11880.0
 21
-9595.0
 31
0.0
  0
MTEXT
  5
3B0
330
3A6
100
AcDbEntity
  8
DIMENSION
 62
3
100
AcDbMText
 10
6000.0
 20
-9523.75
 30
0.0
 40
105.0
 71
5
  1
12000
  0
POINT
  5
3B1
330
3A6
100
AcDbEntity
  8
Defpoints
100
AcDbPoint
 10
0.0
 20
-9595.0
 30
0.0
  0
POINT
  5
3B2
330
3A6
100
AcDbEntity
  8
Defpoints
100
AcDbPoint
 10
0.0
 20
-9875.0
 30
0.0
  0
POINT
  5
3B3
330
3A6
100
AcDbEntity
  8
Defpoints
100
AcDbPoint
 10
12000.0
 20
-9875.0
 30
0.0
  0
ENDBLK
  5
3A8
330
3A6
100
AcDbEntity
  8
0
100
AcDbBlockEnd
  0
BLOCK
  5
3BA
330
3B9
100
AcDbEntity
  8
0
100
AcDbBlockBegin
  2
*D49
 70
1
 10
0.0
 20
0.0
 30
0.0
  3
*D49
  1

  0
LINE
  5
3BC
330
3B9
100
AcDbEntity
  8
0
 62
3
100
AcDbLine
 10
0.0
 20
-9875.0
 30
0.0
 11
0.0
 21
-9775.0
 31
0.0
  0
LINE
  5
3BD
330
3B9
100
AcDbEntity
  8
0
 62
3
100
AcDbLine
 10
4500.0
 20
-9875.0
 30
0.0
 11
4500.0
 21
-9775.0
 31
0.0
  0
INSERT
  5
3BE
330
3B9
100
AcDbEntity
  8
DIMENSION
 62
0
100
AcDbBlockReference
  2
_CLOSEDFILLED
 10
0.0
 20
-9775.0
 30
0.0
 41
120.0
 42
120.0
 50
180.0
  0
INSERT
  5
3C0
330
3B9
100
AcDbEntity
  8
DIMENSION
 62
0
100
AcDbBlockReference
  2
_CLOSEDFILLED
 10
4500.0
 20
-9775.0
 30
0.0
 41
120.0
 42
120.0
  0
LINE
  5
3C2
330
3B9
100
AcDbEntity
  8
0
 62
0
100
AcDbLine
 10
120.0
 20
-9775.0
 30
0.0
 11
4380.0
 21
-9775.0
 31
0.0
  0
MTEXT
  5
3C3
330
3B9
100
AcDbEntity
  8
DIMENSION
 62
3
100
AcDbMText
 10
2250.0
 20
-9703.75
 30
0.0
 40
105.0
 71
5
  1
4500
  0
POINT
  5
3C4
330
3B9
100
AcDbEntity
  8
Defpoints
100
AcDbPoint
 10
0.0
 20
-9775.0
 30
0.0
  0
POINT
  5
3C5
330
3B9
100
AcDbEntity
  8
Defpoints
100
AcDbPoint
 10
0.0
 20
-9875.0
 30
0.0
  0
POINT
  5
3C6
330
3B9
100
AcDbEntity
  8
Defpoints
100
AcDbPoint
 10
4500.0
 20
-9875.0
 30
0.0
  0
ENDBLK
  5
3BB
330
3B9
100
AcDbEntity
  8
0
100
AcDbBlockEnd
  0
BLOCK
  5
3CD
330
3CC
100
AcDbEntity
  8
0
100
AcDbBlockBegin
  2
*D50
 70
1
 10
0.0
 20
0.0
 30
0.0
  3
*D50
  1

  0
LINE
  5
3CF
330
3CC
100
AcDbEntity
  8
0
 62
3
100
AcDbLine
 10
4500.0
 20
-9875.0
 30
0.0
 11
4500.0
 21
-9775.0
 31
0.0
  0
LINE
  5
3D0
330
3CC
100
AcDbEntity
  8
0
 62
3
100
AcDbLine
 10
9000.0
 20
-9875.0
 30
0.0
 11
9000.0
 21
-9775.0
 31
0.0
  0
INSERT
  5
3D1
330
3CC
100
AcDbEntity
  8
DIMENSION
 62
0
100
AcDbBlockReference
  2
_CLOSEDFILLED
 10
4500.0
 20
-9775.0
 30
0.0
 41
120.0
 42
120.0
 50
180.0
  0
INSERT
  5
3D3
330
3CC
100
AcDbEntity
  8
DIMENSION
 62
0
100
AcDbBlockReference
  2
_CLOSEDFILLED
 10
9000.0
 20
-9775.0
 30
0.0
 41
120.0
 42
120.0
  0
LINE
  5
3D5
330
3CC
100
AcDbEntity
  8
0
 62
0
100
AcDbLine
 10
4620.0
 20
-9775.0
 30
0.0
 11
8880.0
 21
-9775.0
 31
0.0
  0
MTEXT
  5
3D6
330
3CC
100
AcDbEntity
  8
DIMENSION
 62
3
100
AcDbMText
 10
6750.0
 20
-9703.75
 30
0.0
 40
105.0
 71
5
  1
4500
  0
POINT
  5
3D7
330
3CC
100
AcDbEntity
  8
Defpoints
100
AcDbPoint
 10
4500.0
 20
-9775.0
 30
0.0
  0
POINT
  5
3D8
330
3CC
100
AcDbEntity
  8
Defpoints
100
AcDbPoint
 10
4500.0
 20
-9875.0
 30
0.0
  0
POINT
  5
3D9
330
3CC
100
AcDbEntity
  8
Defpoints
100
AcDbPoint
 10
9000.0
 20
-9875.0
 30
0.0
  0
ENDBLK
  5
3CE
330
3CC
100
AcDbEntity
  8
0
100
AcDbBlockEnd
  0
BLOCK
  5
3E0
330
3DF
100
AcDbEntity
  8
0
100
AcDbBlockBegin
  2
*D51
 70
1
 10
0.0
 20
0.0
 30
0.0
  3
*D51
  1

  0
LINE
  5
3E2
330
3DF
100
AcDbEntity
  8
0
 62
3
100
AcDbLine
 10
9000.0
 20
-9875.0
 30
0.0
 11
9000.0
 21
-9775.0
 31
0.0
  0
LINE
  5
3E3
330
3DF
100
AcDbEntity
  8
0
 62
3
100
AcDbLine
 10
11400.0
 20
-9875.0
 30
0.0
 11
11400.0
 21
-9775.0
 31
0.0
  0
INSERT
  5
3E4
330
3DF
100
AcDbEntity
  8
DIMENSION
 62
0
100
AcDbBlockReference
  2
_CLOSEDFILLED
 10
9000.0
 20
-9775.0
 30
0.0
 41
120.0
 42
120.0
 50
180.0
  0
INSERT
  5
3E6
330
3DF
100
AcDbEntity
  8
DIMENSION
 62
0
100
AcDbBlockReference
  2
_CLOSEDFILLED
 10
11400.0
 20
-9775.0
 30
0.0
 41
120.0
 42
120.0
  0
LINE
  5
3E8
330
3DF
100
AcDbEntity
  8
0
 62
0
100
AcDbLine
 10
9120.0
 20
-9775.0
 30
0.0
 11
11280.0
 21
-9775.0
 31
0.0
  0
MTEXT
  5
3E9
330
3DF
100
AcDbEntity
  8
DIMENSION
 62
3
100
AcDbMText
 10
10200.0
 20
-9703.75
 30
0.0
 40
105.0
 71
5
  1
2400
  0
POINT
  5
3EA
330
3DF
100
AcDbEntity
  8
Defpoints
100
AcDbPoint
 10
9000.0
 20
-9775.0
 30
0.0
  0
POINT
  5
3EB
330
3DF
100
AcDbEntity
  8
Defpoints
100
AcDbPoint
 10
9000.0
 20
-9875.0
 30
0.0
  0
POINT
  5
3EC
330
3DF
100
AcDbEntity
  8
Defpoints
100
AcDbPoint
 10
11400.0
 20
-9875.0
 30
0.0
  0
ENDBLK
  5
3E1
330
3DF
100
AcDbEntity
  8
0
100
AcDbBlockEnd
  0
BLOCK
  5
3F4
330
3F3
100
AcDbEntity
  8
0
100
AcDbBlockBegin
  2
*D52
 70
1
 10
0.0
 20
0.0
 30
0.0
  3
*D52
  1

  0
LINE
  5
3F6
330
3F3
100
AcDbEntity
  8
0
 62
3
100
AcDbLine
 10
11400.0
 20
-9875.0
 30
0.0
 11
11400.0
 21
-9775.0
 31
0.0
  0
LINE
  5
3F7
330
3F3
100
AcDbEntity
  8
0
 62
3
100
AcDbLine
 10
12000.0
 20
-9875.0
 30
0.0
 11
12000.0
 21
-9775.0
 31
0.0
  0
INSERT
  5
3F8
330
3F3
100
AcDbEntity
  8
DIMENSION
 62
0
100
AcDbBlockReference
  2
_CLOSEDFILLED
 10
11400.0
 20
-9775.0
 30
0.0
 41
120.0
 42
120.0
 50
180.0
  0
INSERT
  5
3FA
330
3F3
100
AcDbEntity
  8
DIMENSION
 62
0
100
AcDbBlockReference
  2
_CLOSEDFILLED
 10
12000.0
 20
-9775.0
 30
0.0
 41
120.0
 42
120.0
  0
LINE
  5
3FC
330
3F3
100
AcDbEntity
  8
0
 62
0
100
AcDbLine
 10
11520.0
 20
-9775.0
 30
0.0
 11
11880.0
 21
-9775.0
 31
0.0
  0
MTEXT
  5
3FD
330
3F3
100
AcDbEntity
  8
DIMENSION
 62
3
100
AcDbMText
 10
11700.0
 20
-9703.75
 30
0.0
 40
105.0
 71
5
  1
600
  0
POINT
  5
3FE
330
3F3
100
AcDbEntity
  8
Defpoints
100
AcDbPoint
 10
11400.0
 20
-9775.0
 30
0.0
  0
POINT
  5
3FF
330
3F3
100
AcDbEntity
  8
Defpoints
100
AcDbPoint
 10
11400.0
 20
-9875.0
 30
0.0
  0
POINT
  5
400
330
3F3
100
AcDbEntity
  8
Defpoints
100
AcDbPoint
 10
12000.0
 20
-9875.0
 30
0.0
  0
ENDBLK
  5
3F5
330
3F3
100
AcDbEntity
  8
0
100
AcDbBlockEnd
  0
BLOCK
  5
404
330
403
100
AcDbEntity
  8
0
100
AcDbBlockBegin
  2
*D53
 70
1
 10
0.0
 20
0.0
 30
0.0
  3
*D53
  1

  0
LINE
  5
406
330
403
100
AcDbEntity
  8
0
 62
3
100
AcDbLine
 10
10.0
 20
-11025.0
 30
0.0
 11
-110.0
 21
-11025.0
 31
0.0
  0
LINE
  5
407
330
403
100
AcDbEntity
  8
0
 62
3
100
AcDbLine
 10
10.0
 20
-10675.0
 30
0.0
 11
-110.0
 21
-10675.0
 31
0.0
  0
INSERT
  5
408
330
403
100
AcDbEntity
  8
DIMENSION
 62
0
100
AcDbBlockReference
  2
_CLOSEDFILLED
 10
-110.0
 20
-11025.0
 30
0.0
 41
120.0
 42
120.0
 50
270.0
  0
INSERT
  5
40A
330
403
100
AcDbEntity
  8
DIMENSION
 62
0
100
AcDbBlockReference
  2
_CLOSEDFILLED
 10
-110.0
 20
-10675.0
 30
0.0
 41
120.0
 42
120.0
 50
90.0
  0
LINE
  5
40C
330
403
100
AcDbEntity
  8
0
 62
0
100
AcDbLine
 10
-109.99999999999997
 20
-10905.0
 30
0.0
 11
-110.00000000000001
 21
-10795.0
 31
0.0
  0
MTEXT
  5
40D
330
403
100
AcDbEntity
  8
DIMENSION
 62
3
100
AcDbMText
 10
-181.25
 20
-10850.0
 30
0.0
 40
105.0
 71
5
  1
350
 50
90.0
  0
POINT
  5
40E
330
403
100
AcDbEntity
  8
Defpoints
100
AcDbPoint
 10
-110.0
 20
-11025.0
 30
0.0
  0
POINT
  5
40F
330
403
100
AcDbEntity
  8
Defpoints
100
AcDbPoint
 10
10.0
 20
-11025.0
 30
0.0
  0
POINT
  5
410
330
403
100
AcDbEntity
  8
Defpoints
100
AcDbPoint
 10
10.0
 20
-10675.0
 30
0.0
  0
ENDBLK
  5
405
330
403
100
AcDbEntity
  8
0
100
AcDbBlockEnd
  0
BLOCK
  5
417
330
416
100
AcDbEntity
  8
0
100
AcDbBlockBegin
  2
*D54
 70
1
 10
0.0
 20
0.0
 30
0.0
  3
*D54
  1

  0
LINE
  5
419
330
416
100
AcDbEntity
  8
0
 62
3
100
AcDbLine
 10
0.0
 20
-10675.0
 30
0.0
 11
0.0
 21
-10575.0
 31
0.0
  0
LINE
  5
41A
330
416
100
AcDbEntity
  8
0
 62
3
100
AcDbLine
 10
5200.0
 20
-10675.0
 30
0.0
 11
5200.0
 21
-10575.0
 31
0.0
  0
INSERT
  5
41B
330
416
100
AcDbEntity
  8
DIMENSION
 62
0
100
AcDbBlockReference
  2
_CLOSEDFILLED
 10
0.0
 20
-10575.0
 30
0.0
 41
120.0
 42
120.0
 50
180.0
  0
INSERT
  5
41D
330
416
100
AcDbEntity
  8
DIMENSION
 62
0
100
AcDbBlockReference
  2
_CLOSEDFILLED
 10
5200.0
 20
-10575.0
 30
0.0
 41
120.0
 42
120.0
  0
LINE
  5
41F
330
416
100
AcDbEntity
  8
0
 62
0
100
AcDbLine
 10
120.0
 20
-10575.0
 30
0.0
 11
5080.0
 21
-10575.0
 31
0.0
  0
MTEXT
  5
420
330
416
100
AcDbEntity
  8
DIMENSION
 62
3
100
AcDbMText
 10
2600.0
 20
-10503.75
 30
0.0
 40
105.0
 71
5
  1
5200
  0
POINT
  5
421
330
416
100
AcDbEntity
  8
Defpoints
100
AcDbPoint
 10
0.0
 20
-10575.0
 30
0.0
  0
POINT
  5
422
330
416
100
AcDbEntity
  8
Defpoints
100
AcDbPoint
 10
0.0
 20
-10675.0
 30
0.0
  0
POINT
  5
423
330
416
100
AcDbEntity
  8
Defpoints
100
AcDbPoint
 10
5200.0
 20
-10675.0
 30
0.0
  0
ENDBLK
  5
418
330
416
100
AcDbEntity
  8
0
100
AcDbBlockEnd
  0
BLOCK
  5
42A
330
429
100
AcDbEntity
  8
0
100
AcDbBlockBegin
  2
*D55
 70
1
 10
0.0
 20
0.0
 30
0.0
  3
*D55
  1

  0
LINE
  5
42C
330
429
100
AcDbEntity
  8
0
 62
3
100
AcDbLine
 10
5200.0
 20
-10675.0
 30
0.0
 11
5200.0
 21
-10575.0
 31
0.0
  0
LINE
  5
42D
330
429
100
AcDbEntity
  8
0
 62
3
100
AcDbLine
 10
10400.0
 20
-10675.0
 30
0.0
 11
10400.0
 21
-10575.0
 31
0.0
  0
INSERT
  5
42E
330
429
100
AcDbEntity
  8
DIMENSION
 62
0
100
AcDbBlockReference
  2
_CLOSEDFILLED
 10
5200.0
 20
-10575.0
 30
0.0
 41
120.0
 42
120.0
 50
180.0
  0
INSERT
  5
430
330
429
100
AcDbEntity
  8
DIMENSION
 62
0
100
AcDbBlockReference
  2
_CLOSEDFILLED
 10
10400.0
 20
-10575.0
 30
0.0
 41
120.0
 42
120.0
  0
LINE
  5
432
330
429
100
AcDbEntity
  8
0
 62
0
100
AcDbLine
 10
5320.0
 20
-10575.0
 30
0.0
 11
10280.0
 21
-10575.0
 31
0.0
  0
MTEXT
  5
433
330
429
100
AcDbEntity
  8
DIMENSION
 62
3
100
AcDbMText
 10
7800.0
 20
-10503.75
 30
0.0
 40
105.0
 71
5
  1
5200
  0
POINT
  5
434
330
429
100
AcDbEntity
  8
Defpoints
100
AcDbPoint
 10
5200.0
 20
-10575.0
 30
0.0
  0
POINT
  5
435
330
429
100
AcDbEntity
  8
Defpoints
100
AcDbPoint
 10
5200.0
 20
-10675.0
 30
0.0
  0
POINT
  5
436
330
429
100
AcDbEntity
  8
Defpoints
100
AcDbPoint
 10
10400.0
 20
-10675.0
 30
0.0
  0
ENDBLK
  5
42B
330
429
100
AcDbEntity
  8
0
100
AcDbBlockEnd
  0
BLOCK
  5
43E
330
43D
100
AcDbEntity
  8
0
100
AcDbBlockBegin
  2
*D56
 70
1
 10
0.0
 20
0.0
 30
0.0
  3
*D56
  1

  0
LINE
  5
440
330
43D
100
AcDbEntity
  8
0
 62
3
100
AcDbLine
 10
10400.0
 20
-10675.0
 30
0.0
 11
10400.0
 21
-10575.0
 31
0.0
  0
LINE
  5
441
330
43D
100
AcDbEntity
  8
0
 62
3
100
AcDbLine
 10
12000.0
 20
-10675.0
 30
0.0
 11
12000.0
 21
-10575.0
 31
0.0
  0
INSERT
  5
442
330
43D
100
AcDbEntity
  8
DIMENSION
 62
0
100
AcDbBlockReference
  2
_CLOSEDFILLED
 10
10400.0
 20
-10575.0
 30
0.0
 41
120.0
 42
120.0
 50
180.0
  0
INSERT
  5
444
330
43D
100
AcDbEntity
  8
DIMENSION
 62
0
100
AcDbBlockReference
  2
_CLOSEDFILLED
 10
12000.0
 20
-10575.0
 30
0.0
 41
120.0
 42
120.0
  0
LINE
  5
446
330
43D
100
AcDbEntity
  8
0
 62
0
100
AcDbLine
 10
10520.0
 20
-10575.0
 30
0.0
 11
11880.0
 21
-10575.0
 31
0.0
  0
MTEXT
  5
447
330
43D
100
AcDbEntity
  8
DIMENSION
 62
3
100
AcDbMText
 10
11200.0
 20
-10503.75
 30
0.0
 40
105.0
 71
5
  1
1600(+2900=4500)
  0
POINT
  5
448
330
43D
100
AcDbEntity
  8
Defpoints
100
AcDbPoint
 10
10400.0
 20
-10575.0
 30
0.0
  0
POINT
  5
449
330
43D
100
AcDbEntity
  8
Defpoints
100
AcDbPoint
 10
10400.0
 20
-10675.0
 30
0.0
  0
POINT
  5
44A
330
43D
100
AcDbEntity
  8
Defpoints
100
AcDbPoint
 10
12000.0
 20
-10675.0
 30
0.0
  0
ENDBLK
  5
43F
330
43D
100
AcDbEntity
  8
0
100
AcDbBlockEnd
  0
BLOCK
  5
44F
330
44E
100
AcDbEntity
  8
0
100
AcDbBlockBegin
  2
*D57
 70
1
 10
0.0
 20
0.0
 30
0.0
  3
*D57
  1

  0
LINE
  5
451
330
44E
100
AcDbEntity
  8
0
 62
3
100
AcDbLine
 10
10.0
 20
-11825.0
 30
0.0
 11
-110.0
 21
-11825.0
 31
0.0
  0
LINE
  5
452
330
44E
100
AcDbEntity
  8
0
 62
3
100
AcDbLine
 10
10.0
 20
-11475.0
 30
0.0
 11
-110.0
 21
-11475.0
 31
0.0
  0
INSERT
  5
453
330
44E
100
AcDbEntity
  8
DIMENSION
 62
0
100
AcDbBlockReference
  2
_CLOSEDFILLED
 10
-110.0
 20
-11825.0
 30
0.0
 41
120.0
 42
120.0
 50
270.0
  0
INSERT
  5
455
330
44E
100
AcDbEntity
  8
DIMENSION
 62
0
100
AcDbBlockReference
  2
_CLOSEDFILLED
 10
-110.0
 20
-11475.0
 30
0.0
 41
120.0
 42
120.0
 50
90.0
  0
LINE
  5
457
330
44E
100
AcDbEntity
  8
0
 62
0
100
AcDbLine
 10
-109.99999999999997
 20
-11705.0
 30
0.0
 11
-110.00000000000001
 21
-11595.0
 31
0.0
  0
MTEXT
  5
458
330
44E
100
AcDbEntity
  8
DIMENSION
 62
3
100
AcDbMText
 10
-181.25
 20
-11650.0
 30
0.0
 40
105.0
 71
5
  1
350
 50
90.0
  0
POINT
  5
459
330
44E
100
AcDbEntity
  8
Defpoints
100
AcDbPoint
 10
-110.0
 20
-11825.0
 30
0.0
  0
POINT
  5
45A
330
44E
100
AcDbEntity
  8
Defpoints
100
AcDbPoint
 10
10.0
 20
-11825.0
 30
0.0
  0
POINT
  5
45B
330
44E
100
AcDbEntity
  8
Defpoints
100
AcDbPoint
 10
10.0
 20
-11475.0
 30
0.0
  0
ENDBLK
  5
450
330
44E
100
AcDbEntity
  8
0
100
AcDbBlockEnd
  0
BLOCK
  5
462
330
461
100
AcDbEntity
  8
0
100
AcDbBlockBegin
  2
*D58
 70
1
 10
0.0
 20
0.0
 30
0.0
  3
*D58
  1

  0
LINE
  5
464
330
461
100
AcDbEntity
  8
0
 62
3
100
AcDbLine
 10
0.0
 20
-11475.0
 30
0.0
 11
0.0
 21
-11375.0
 31
0.0
  0
LINE
  5
465
330
461
100
AcDbEntity
  8
0
 62
3
100
AcDbLine
 10
2900.0
 20
-11475.0
 30
0.0
 11
2900.0
 21
-11375.0
 31
0.0
  0
INSERT
  5
466
330
461
100
AcDbEntity
  8
DIMENSION
 62
0
100
AcDbBlockReference
  2
_CLOSEDFILLED
 10
0.0
 20
-11375.0
 30
0.0
 41
120.0
 42
120.0
 50
180.0
  0
INSERT
  5
468
330
461
100
AcDbEntity
  8
DIMENSION
 62
0
100
AcDbBlockReference
  2
_CLOSEDFILLED
 10
2900.0
 20
-11375.0
 30
0.0
 41
120.0
 42
120.0
  0
LINE
  5
46A
330
461
100
AcDbEntity
  8
0
 62
0
100
AcDbLine
 10
120.0
 20
-11375.0
 30
0.0
 11
2780.0
 21
-11375.0
 31
0.0
  0
MTEXT
  5
46B
330
461
100
AcDbEntity
  8
DIMENSION
 62
3
100
AcDbMText
 10
1450.0
 20
-11303.75
 30
0.0
 40
105.0
 71
5
  1
2900
  0
POINT
  5
46C
330
461
100
AcDbEntity
  8
Defpoints
100
AcDbPoint
 10
0.0
 20
-11375.0
 30
0.0
  0
POINT
  5
46D
330
461
100
AcDbEntity
  8
Defpoints
100
AcDbPoint
 10
0.0
 20
-11475.0
 30
0.0
  0
POINT
  5
46E
330
461
100
AcDbEntity
  8
Defpoints
100
AcDbPoint
 10
2900.0
 20
-11475.0
 30
0.0
  0
ENDBLK
  5
463
330
461
100
AcDbEntity
  8
0
100
AcDbBlockEnd
  0
BLOCK
  5
475
330
474
100
AcDbEntity
  8
0
100
AcDbBlockBegin
  2
*D59
 70
1
 10
0.0
 20
0.0
 30
0.0
  3
*D59
  1

  0
LINE
  5
477
330
474
100
AcDbEntity
  8
0
 62
3
100
AcDbLine
 10
2900.0
 20
-11475.0
 30
0.0
 11
2900.0
 21
-11375.0
 31
0.0
  0
LINE
  5
478
330
474
100
AcDbEntity
  8
0
 62
3
100
AcDbLine
 10
7400.0
 20
-11475.0
 30
0.0
 11
7400.0
 21
-11375.0
 31
0.0
  0
INSERT
  5
479
330
474
100
AcDbEntity
  8
DIMENSION
 62
0
100
AcDbBlockReference
  2
_CLOSEDFILLED
 10
2900.0
 20
-11375.0
 30
0.0
 41
120.0
 42
120.0
 50
180.0
  0
INSERT
  5
47B
330
474
100
AcDbEntity
  8
DIMENSION
 62
0
100
AcDbBlockReference
  2
_CLOSEDFILLED
 10
7400.0
 20
-11375.0
 30
0.0
 41
120.0
 42
120.0
  0
LINE
  5
47D
330
474
100
AcDbEntity
  8
0
 62
0
100
AcDbLine
 10
3020.0
 20
-11375.0
 30
0.0
 11
7280.0
 21
-11375.0
 31
0.0
  0
MTEXT
  5
47E
330
474
100
AcDbEntity
  8
DIMENSION
 62
3
100
AcDbMText
 10
5150.0
 20
-11303.75
 30
0.0
 40
105.0
 71
5
  1
4500
  0
POINT
  5
47F
330
474
100
AcDbEntity
  8
Defpoints
100
AcDbPoint
 10
2900.0
 20
-11375.0
 30
0.0
  0
POINT
  5
480
330
474
100
AcDbEntity
  8
Defpoints
100
AcDbPoint
 10
2900.0
 20
-11475.0
 30
0.0
  0
POINT
  5
481
330
474
100
AcDbEntity
  8
Defpoints
100
AcDbPoint
 10
7400.0
 20
-11475.0
 30
0.0
  0
ENDBLK
  5
476
330
474
100
AcDbEntity
  8
0
100
AcDbBlockEnd
  0
BLOCK
  5
488
330
487
100
AcDbEntity
  8
0
100
AcDbBlockBegin
  2
*D60
 70
1
 10
0.0
 20
0.0
 30
0.0
  3
*D60
  1

  0
LINE
  5
48A
330
487
100
AcDbEntity
  8
0
 62
3
100
AcDbLine
 10
7400.0
 20
-11475.0
 30
0.0
 11
7400.0
 21
-11375.0
 31
0.0
  0
LINE
  5
48B
330
487
100
AcDbEntity
  8
0
 62
3
100
AcDbLine
 10
11900.0
 20
-11475.0
 30
0.0
 11
11900.0
 21
-11375.0
 31
0.0
  0
INSERT
  5
48C
330
487
100
AcDbEntity
  8
DIMENSION
 62
0
100
AcDbBlockReference
  2
_CLOSEDFILLED
 10
7400.0
 20
-11375.0
 30
0.0
 41
120.0
 42
120.0
 50
180.0
  0
INSERT
  5
48E
330
487
100
AcDbEntity
  8
DIMENSION
 62
0
100
AcDbBlockReference
  2
_CLOSEDFILLED
 10
11900.0
 20
-11375.0
 30
0.0
 41
120.0
 42
120.0
  0
LINE
  5
490
330
487
100
AcDbEntity
  8
0
 62
0
100
AcDbLine
 10
7520.0
 20
-11375.0
 30
0.0
 11
11780.0
 21
-11375.0
 31
0.0
  0
MTEXT
  5
491
330
487
100
AcDbEntity
  8
DIMENSION
 62
3
100
AcDbMText
 10
9650.0
 20
-11303.75
 30
0.0
 40
105.0
 71
5
  1
4500
  0
POINT
  5
492
330
487
100
AcDbEntity
  8
Defpoints
100
AcDbPoint
 10
7400.0
 20
-11375.0
 30
0.0
  0
POINT
  5
493
330
487
100
AcDbEntity
  8
Defpoints
100
AcDbPoint
 10
7400.0
 20
-11475.0
 30
0.0
  0
POINT
  5
494
330
487
100
AcDbEntity
  8
Defpoints
100
AcDbPoint
 10
11900.0
 20
-11475.0
 30
0.0
  0
ENDBLK
  5
489
330
487
100
AcDbEntity
  8
0
100
AcDbBlockEnd
  0
BLOCK
  5
49C
330
49B
100
AcDbEntity
  8
0
100
AcDbBlockBegin
  2
*D61
 70
1
 10
0.0
 20
0.0
 30
0.0
  3
*D61
  1

  0
LINE
  5
49E
330
49B
100
AcDbEntity
  8
0
 62
3
100
AcDbLine
 10
11900.0
 20
-11475.0
 30
0.0
 11
11900.0
 21
-11375.0
 31
0.0
  0
LINE
  5
49F
330
49B
100
AcDbEntity
  8
0
 62
3
100
AcDbLine
 10
12000.0
 20
-11475.0
 30
0.0
 11
12000.0
 21
-11375.0
 31
0.0
  0
INSERT
  5
4A0
330
49B
100
AcDbEntity
  8
DIMENSION
 62
0
100
AcDbBlockReference
  2
_CLOSEDFILLED
 10
11900.0
 20
-11375.0
 30
0.0
 41
120.0
 42
120.0
  0
INSERT
  5
4A2
330
49B
100
AcDbEntity
  8
DIMENSION
 62
0
100
AcDbBlockReference
  2
_CLOSEDFILLED
 10
12000.0
 20
-11375.0
 30
0.0
 41
120.0
 42
120.0
 50
180.0
  0
LINE
  5
4A4
330
49B
100
AcDbEntity
  8
0
 62
0
100
AcDbLine
 10
11780.0
 20
-11375.0
 30
0.0
 11
11660.0
 21
-11375.0
 31
0.0
  0
LINE
  5
4A5
330
49B
100
AcDbEntity
  8
0
 62
0
100
AcDbLine
 10
12120.0
 20
-11375.0
 30
0.0
 11
12240.0
 21
-11375.0
 31
0.0
  0
LINE
  5
4A6
330
49B
100
AcDbEntity
  8
0
 62
0
100
AcDbLine
 10
11900.0
 20
-11375.0
 30
0.0
 11
12000.0
 21
-11375.0
 31
0.0
  0
MTEXT
  5
4A7
330
49B
100
AcDbEntity
  8
DIMENSION
 62
3
100
AcDbMText
 10
11950.0
 20
-11303.75
 30
0.0
 40
105.0
 71
5
  1
余100
  0
POINT
  5
4A8
330
49B
100
AcDbEntity
  8
Defpoints
100
AcDbPoint
 10
11900.0
 20
-11375.0
 30
0.0
  0
POINT
  5
4A9
330
49B
100
AcDbEntity
  8
Defpoints
100
AcDbPoint
 10
11900.0
 20
-11475.0
 30
0.0
  0
POINT
  5
4AA
330
49B
100
AcDbEntity
  8
Defpoints
100
AcDbPoint
 10
12000.0
 20
-11475.0
 30
0.0
  0
ENDBLK
  5
49D
330
49B
100
AcDbEntity
  8
0
100
AcDbBlockEnd
  0
BLOCK
  5
4AE
330
4AD
100
AcDbEntity
  8
0
100
AcDbBlockBegin
  2
*D62
 70
1
 10
0.0
 20
0.0
 30
0.0
  3
*D62
  1

  0
LINE
  5
4B0
330
4AD
100
AcDbEntity
  8
0
 62
3
100
AcDbLine
 10
10.0
 20
-12625.0
 30
0.0
 11
-110.0
 21
-12625.0
 31
0.0
  0
LINE
  5
4B1
330
4AD
100
AcDbEntity
  8
0
 62
3
100
AcDbLine
 10
10.0
 20
-12275.0
 30
0.0
 11
-110.0
 21
-12275.0
 31
0.0
  0
INSERT
  5
4B2
330
4AD
100
AcDbEntity
  8
DIMENSION
 62
0
100
AcDbBlockReference
  2
_CLOSEDFILLED
 10
-110.0
 20
-12625.0
 30
0.0
 41
120.0
 42
120.0
 50
270.0
  0
INSERT
  5
4B4
330
4AD
100
AcDbEntity
  8
DIMENSION
 62
0
100
AcDbBlockReference
  2
_CLOSEDFILLED
 10
-110.0
 20
-12275.0
 30
0.0
 41
120.0
 42
120.0
 50
90.0
  0
LINE
  5
4B6
330
4AD
100
AcDbEntity
  8
0
 62
0
100
AcDbLine
 10
-109.99999999999997
 20
-12505.0
 30
0.0
 11
-110.00000000000001
 21
-12395.0
 31
0.0
  0
MTEXT
  5
4B7
330
4AD
100
AcDbEntity
  8
DIMENSION
 62
3
100
AcDbMText
 10
-181.25
 20
-12450.0
 30
0.0
 40
105.0
 71
5
  1
350
 50
90.0
  0
POINT
  5
4B8
330
4AD
100
AcDbEntity
  8
Defpoints
100
AcDbPoint
 10
-110.0
 20
-12625.0
 30
0.0
  0
POINT
  5
4B9
330
4AD
100
AcDbEntity
  8
Defpoints
100
AcDbPoint
 10
10.0
 20
-12625.0
 30
0.0
  0
POINT
  5
4BA
330
4AD
100
AcDbEntity
  8
Defpoints
100
AcDbPoint
 10
10.0
 20
-12275.0
 30
0.0
  0
ENDBLK
  5
4AF
330
4AD
100
AcDbEntity
  8
0
100
AcDbBlockEnd
  0
BLOCK
  5
4C1
330
4C0
100
AcDbEntity
  8
0
100
AcDbBlockBegin
  2
*D63
 70
1
 10
0.0
 20
0.0
 30
0.0
  3
*D63
  1

  0
LINE
  5
4C3
330
4C0
100
AcDbEntity
  8
0
 62
3
100
AcDbLine
 10
0.0
 20
-12275.0
 30
0.0
 11
0.0
 21
-12175.0
 31
0.0
  0
LINE
  5
4C4
330
4C0
100
AcDbEntity
  8
0
 62
3
100
AcDbLine
 10
4500.0
 20
-12275.0
 30
0.0
 11
4500.0
 21
-12175.0
 31
0.0
  0
INSERT
  5
4C5
330
4C0
100
AcDbEntity
  8
DIMENSION
 62
0
100
AcDbBlockReference
  2
_CLOSEDFILLED
 10
0.0
 20
-12175.0
 30
0.0
 41
120.0
 42
120.0
 50
180.0
  0
INSERT
  5
4C7
330
4C0
100
AcDbEntity
  8
DIMENSION
 62
0
100
AcDbBlockReference
  2
_CLOSEDFILLED
 10
4500.0
 20
-12175.0
 30
0.0
 41
120.0
 42
120.0
  0
LINE
  5
4C9
330
4C0
100
AcDbEntity
  8
0
 62
0
100
AcDbLine
 10
120.0
 20
-12175.0
 30
0.0
 11
4380.0
 21
-12175.0
 31
0.0
  0
MTEXT
  5
4CA
330
4C0
100
AcDbEntity
  8
DIMENSION
 62
3
100
AcDbMText
 10
2250.0
 20
-12103.75
 30
0.0
 40
105.0
 71
5
  1
4500
  0
POINT
  5
4CB
330
4C0
100
AcDbEntity
  8
Defpoints
100
AcDbPoint
 10
0.0
 20
-12175.0
 30
0.0
  0
POINT
  5
4CC
330
4C0
100
AcDbEntity
  8
Defpoints
100
AcDbPoint
 10
0.0
 20
-12275.0
 30
0.0
  0
POINT
  5
4CD
330
4C0
100
AcDbEntity
  8
Defpoints
100
AcDbPoint
 10
4500.0
 20
-12275.0
 30
0.0
  0
ENDBLK
  5
4C2
330
4C0
100
AcDbEntity
  8
0
100
AcDbBlockEnd
  0
BLOCK
  5
4D4
330
4D3
100
AcDbEntity
  8
0
100
AcDbBlockBegin
  2
*D64
 70
1
 10
0.0
 20
0.0
 30
0.0
  3
*D64
  1

  0
LINE
  5
4D6
330
4D3
100
AcDbEntity
  8
0
 62
3
100
AcDbLine
 10
4500.0
 20
-12275.0
 30
0.0
 11
4500.0
 21
-12175.0
 31
0.0
  0
LINE
  5
4D7
330
4D3
100
AcDbEntity
  8
0
 62
3
100
AcDbLine
 10
9000.0
 20
-12275.0
 30
0.0
 11
9000.0
 21
-12175.0
 31
0.0
  0
INSERT
  5
4D8
330
4D3
100
AcDbEntity
  8
DIMENSION
 62
0
100
AcDbBlockReference
  2
_CLOSEDFILLED
 10
4500.0
 20
-12175.0
 30
0.0
 41
120.0
 42
120.0
 50
180.0
  0
INSERT
  5
4DA
330
4D3
100
AcDbEntity
  8
DIMENSION
 62
0
100
AcDbBlockReference
  2
_CLOSEDFILLED
 10
9000.0
 20
-12175.0
 30
0.0
 41
120.0
 42
120.0
  0
LINE
  5
4DC
330
4D3
100
AcDbEntity
  8
0
 62
0
100
AcDbLine
 10
4620.0
 20
-12175.0
 30
0.0
 11
8880.0
 21
-12175.0
 31
0.0
  0
MTEXT
  5
4DD
330
4D3
100
AcDbEntity
  8
DIMENSION
 62
3
100
AcDbMText
 10
6750.0
 20
-12103.75
 30
0.0
 40
105.0
 71
5
  1
4500
  0
POINT
  5
4DE
330
4D3
100
AcDbEntity
  8
Defpoints
100
AcDbPoint
 10
4500.0
 20
-12175.0
 30
0.0
  0
POINT
  5
4DF
330
4D3
100
AcDbEntity
  8
Defpoints
100
AcDbPoint
 10
4500.0
 20
-12275.0
 30
0.0
  0
POINT
  5
4E0
330
4D3
100
AcDbEntity
  8
Defpoints
100
AcDbPoint
 10
9000.0
 20
-12275.0
 30
0.0
  0
ENDBLK
  5
4D5
330
4D3
100
AcDbEntity
  8
0
100
AcDbBlockEnd
  0
BLOCK
  5
4E8
330
4E7
100
AcDbEntity
  8
0
100
AcDbBlockBegin
  2
*D65
 70
1
 10
0.0
 20
0.0
 30
0.0
  3
*D65
  1

  0
LINE
  5
4EA
330
4E7
100
AcDbEntity
  8
0
 62
3
100
AcDbLine
 10
9000.0
 20
-12275.0
 30
0.0
 11
9000.0
 21
-12175.0
 31
0.0
  0
LINE
  5
4EB
330
4E7
100
AcDbEntity
  8
0
 62
3
100
AcDbLine
 10
12000.0
 20
-12275.0
 30
0.0
 11
12000.0
 21
-12175.0
 31
0.0
  0
INSERT
  5
4EC
330
4E7
100
AcDbEntity
  8
DIMENSION
 62
0
100
AcDbBlockReference
  2
_CLOSEDFILLED
 10
9000.0
 20
-12175.0
 30
0.0
 41
120.0
 42
120.0
 50
180.0
  0
INSERT
  5
4EE
330
4E7
100
AcDbEntity
  8
DIMENSION
 62
0
100
AcDbBlockReference
  2
_CLOSEDFILLED
 10
12000.0
 20
-12175.0
 30
0.0
 41
120.0
 42
120.0
  0
LINE
  5
4F0
330
4E7
100
AcDbEntity
  8
0
 62
0
100
AcDbLine
 10
9120.0
 20
-12175.0
 30
0.0
 11
11880.0
 21
-12175.0
 31
0.0
  0
MTEXT
  5
4F1
330
4E7
100
AcDbEntity
  8
DIMENSION
 62
3
100
AcDbMText
 10
10500.0
 20
-12103.75
 30
0.0
 40
105.0
 71
5
  1
余3000
  0
POINT
  5
4F2
330
4E7
100
AcDbEntity
  8
Defpoints
100
AcDbPoint
 10
9000.0
 20
-12175.0
 30
0.0
  0
POINT
  5
4F3
330
4E7
100
AcDbEntity
  8
Defpoints
100
AcDbPoint
 10
9000.0
 20
-12275.0
 30
0.0
  0
POINT
  5
4F4
330
4E7
100
AcDbEntity
  8
Defpoints
100
AcDbPoint
 10
12000.0
 20
-12275.0
 30
0.0
  0
ENDBLK
  5
4E9
330
4E7
100
AcDbEntity
  8
0
100
AcDbBlockEnd
  0
ENDSEC
  0
SECTION
  2
ENTITIES
  0
TEXT
  5
33
330
17
100
AcDbEntity
  8
TEXT
100
AcDbText
 10
0.0
 20
1500.0
 30
0.0
 40
200.0
  1
宜宾赛事中心项目 BRB, 200方管总长133500，需12根12米方管, 余料总和：10500mm
 41
0.8
100
AcDbText
  0
DIMENSION
  5
34
330
17
100
AcDbEntity
  8
DIMENSION
 62
3
370
25
100
AcDbDimension
280
0
  2
*D1
  3
Standard
 10
-110.0
 20
750.0
 30
0.0
 11
-181.25
 21
850.0
 31
0.0
 70
32
 71
5
  1
200
100
AcDbAlignedDimension
 13
10.0
 23
750.0
 33
0.0
 14
10.0
 24
950.0
 34
0.0
 50
90.0
100
AcDbRotatedDimension
  0
DIMENSION
  5
49
330
17
100
AcDbEntity
  8
DIMENSION
 62
3
370
25
100
AcDbDimension
280
0
  2
*D2
  3
Standard
 10
0.0
 20
1230.0
 30
0.0
 11
6000.0
 21
1301.25
 31
0.0
 70
32
 71
5
  1
12000
100
AcDbAlignedDimension
 13
0.0
 23
950.0
 33
0.0
 14
12000.0
 24
950.0
 34
0.0
 50
0.0
100
AcDbRotatedDimension
  0
LINE
  5
58
330
17
100
AcDbEntity
  8
TUBE
 62
7
370
35
100
AcDbLine
 10
0.0
 20
950.0
 30
0.0
 11
4500.0
 21
950.0
 31
0.0
  0
LINE
  5
59
330
17
100
AcDbEntity
  8
TUBE
 62
7
370
35
100
AcDbLine
 10
0.0
 20
750.0
 30
0.0
 11
4500.0
 21
750.0
 31
0.0
  0
LINE
  5
5A
330
17
100
AcDbEntity
  8
TUBE
 62
7
370
35
100
AcDbLine
 10
0.0
 20
950.0
 30
0.0
 11
0.0
 21
750.0
 31
0.0
  0
LINE
  5
5B
330
17
100
AcDbEntity
  8
TUBE
 62
7
370
35
100
AcDbLine
 10
4500.0
 20
950.0
 30
0.0
 11
4500.0
 21
750.0
 31
0.0
  0
DIMENSION
  5
5C
330
17
100
AcDbEntity
  8
DIMENSION
 62
3
370
25
100
AcDbDimension
280
0
  2
*D3
  3
Standard
 10
0.0
 20
1050.0
 30
0.0
 11
2250.0
 21
1121.25
 31
0.0
 70
32
 71
5
  1
4500
100
AcDbAlignedDimension
 13
0.0
 23
950.0
 33
0.0
 14
4500.0
 24
950.0
 34
0.0
 50
0.0
100
AcDbRotatedDimension
  0
TEXT
  5
6B
330
17
100
AcDbEntity
  8
TEXT
100
AcDbText
 10
1860.0
 20
790.0
 30
0.0
 40
120.0
  1
BRB-1500-4800
100
AcDbText
  0
LINE
  5
6C
330
17
100
AcDbEntity
  8
TUBE
 62
7
370
35
100
AcDbLine
 10
4500.0
 20
950.0
 30
0.0
 11
7200.0
 21
950.0
 31
0.0
  0
LINE
  5
6D
330
17
100
AcDbEntity
  8
TUBE
 62
7
370
35
100
AcDbLine
 10
4500.0
 20
750.0
 30
0.0
 11
7200.0
 21
750.0
 31
0.0
  0
LINE
  5
6E
330
17
100
AcDbEntity
  8
TUBE
 62
7
370
35
100
AcDbLine
 10
7200.0
 20
950.0
 30
0.0
 11
7200.0
 21
750.0
 31
0.0
  0
DIMENSION
  5
6F
330
17
100
AcDbEntity
  8
DIMENSION
 62
3
370
25
100
AcDbDimension
280
0
  2
*D4
  3
Standard
 10
4500.0
 20
1050.0
 30
0.0
 11
5850.0
 21
1121.25
 31
0.0
 70
32
 71
5
  1
2700
100
AcDbAlignedDimension
 13
4500.0
 23
950.0
 33
0.0
 14
7200.0
 24
950.0
 34
0.0
 50
0.0
100
AcDbRotatedDimension
  0
TEXT
  5
7E
330
17
100
AcDbEntity
  8
TEXT
100
AcDbText
 10
5460.0
 20
790.0
 30
0.0
 40
120.0
  1
BRB-1000-3000
100
AcDbText
  0
LINE
  5
7F
330
17
100
AcDbEntity
  8
TUBE
 62
7
370
35
100
AcDbLine
 10
7200.0
 20
950.0
 30
0.0
 11
9600.0
 21
950.0
 31
0.0
  0
LINE
  5
80
330
17
100
AcDbEntity
  8
TUBE
 62
7
370
35
100
AcDbLine
 10
7200.0
 20
750.0
 30
0.0
 11
9600.0
 21
750.0
 31
0.0
  0
LINE
  5
81
330
17
100
AcDbEntity
  8
TUBE
 62
7
370
35
100
AcDbLine
 10
9600.0
 20
950.0
 30
0.0
 11
9600.0
 21
750.0
 31
0.0
  0
DIMENSION
  5
82
330
17
100
AcDbEntity
  8
DIMENSION
 62
3
370
25
100
AcDbDimension
280
0
  2
*D5
  3
Standard
 10
7200.0
 20
1050.0
 30
0.0
 11
8400.0
 21
1121.25
 31
0.0
 70
32
 71
5
  1
2400
100
AcDbAlignedDimension
 13
7200.0
 23
950.0
 33
0.0
 14
9600.0
 24
950.0
 34
0.0
 50
0.0
100
AcDbRotatedDimension
  0
TEXT
  5
91
330
17
100
AcDbEntity
  8
TEXT
100
AcDbText
 10
8010.0
 20
790.0
 30
0.0
 40
120.0
  1
BRB-1000-2700
100
AcDbText
  0
LINE
  5
92
330
17
100
AcDbEntity
  8
TUBE
 62
7
370
35
100
AcDbLine
 10
9600.0
 20
950.0
 30
0.0
 11
12000.0
 21
950.0
 31
0.0
  0
LINE
  5
93
330
17
100
AcDbEntity
  8
TUBE
 62
7
370
35
100
AcDbLine
 10
9600.0
 20
750.0
 30
0.0
 11
12000.0
 21
750.0
 31
0.0
  0
LINE
  5
94
330
17
100
AcDbEntity
  8
TUBE
 62
7
370
35
100
AcDbLine
 10
12000.0
 20
950.0
 30
0.0
 11
12000.0
 21
750.0
 31
0.0
  0
DIMENSION
  5
95
330
17
100
AcDbEntity
  8
DIMENSION
 62
3
370
25
100
AcDbDimension
280
0
  2
*D6
  3
Standard
 10
9600.0
 20
1050.0
 30
0.0
 11
10800.0
 21
1121.25
 31
0.0
 70
32
 71
5
  1
2400
100
AcDbAlignedDimension
 13
9600.0
 23
950.0
 33
0.0
 14
12000.0
 24
950.0
 34
0.0
 50
0.0
100
AcDbRotatedDimension
  0
TEXT
  5
A4
330
17
100
AcDbEntity
  8
TEXT
100
AcDbText
 10
10410.0
 20
790.0
 30
0.0
 40
120.0
  1
BRB-1000-2700
100
AcDbText
  0
TEXT
  5
A5
330
17
100
AcDbEntity
  8
TEXT
100
AcDbText
 10
6000.0
 20
580.0
 30
0.0
 40
120.0
  1
1根
100
AcDbText
  0
DIMENSION
  5
A6
330
17
100
AcDbEntity
  8
DIMENSION
 62
3
370
25
100
AcDbDimension
280
0
  2
*D7
  3
Standard
 10
-110.0
 20
100.0
 30
0.0
 11
-181.25
 21
200.0
 31
0.0
 70
32
 71
5
  1
200
100
AcDbAlignedDimension
 13
10.0
 23
100.0
 33
0.0
 14
10.0
 24
300.0
 34
0.0
 50
90.0
100
AcDbRotatedDimension
  0
LINE
  5
B7
330
17
100
AcDbEntity
  8
TUBE
 62
7
370
35
100
AcDbLine
 10
0.0
 20
300.0
 30
0.0
 11
4500.0
 21
300.0
 31
0.0
  0
LINE
  5
B8
330
17
100
AcDbEntity
  8
TUBE
 62
7
370
35
100
AcDbLine
 10
0.0
 20
100.0
 30
0.0
 11
4500.0
 21
100.0
 31
0.0
  0
LINE
  5
B9
330
17
100
AcDbEntity
  8
TUBE
 62
7
370
35
100
AcDbLine
 10
0.0
 20
300.0
 30
0.0
 11
0.0
 21
100.0
 31
0.0
  0
LINE
  5
BA
330
17
100
AcDbEntity
  8
TUBE
 62
7
370
35
100
AcDbLine
 10
4500.0
 20
300.0
 30
0.0
 11
4500.0
 21
100.0
 31
0.0
  0
DIMENSION
  5
BB
330
17
100
AcDbEntity
  8
DIMENSION
 62
3
370
25
100
AcDbDimension
280
0
  2
*D8
  3
Standard
 10
0.0
 20
400.0
 30
0.0
 11
2250.0
 21
471.25
 31
0.0
 70
32
 71
5
  1
4500
100
AcDbAlignedDimension
 13
0.0
 23
300.0
 33
0.0
 14
4500.0
 24
300.0
 34
0.0
 50
0.0
100
AcDbRotatedDimension
  0
TEXT
  5
CA
330
17
100
AcDbEntity
  8
TEXT
100
AcDbText
 10
1860.0
 20
140.0
 30
0.0
 40
120.0
  1
BRB-1500-4800
100
AcDbText
  0
LINE
  5
CB
330
17
100
AcDbEntity
  8
TUBE
 62
7
370
35
100
AcDbLine
 10
4500.0
 20
300.0
 30
0.0
 11
9000.0
 21
300.0
 31
0.0
  0
LINE
  5
CC
330
17
100
AcDbEntity
  8
TUBE
 62
7
370
35
100
AcDbLine
 10
4500.0
 20
100.0
 30
0.0
 11
9000.0
 21
100.0
 31
0.0
  0
LINE
  5
CD
330
17
100
AcDbEntity
  8
TUBE
 62
7
370
35
100
AcDbLine
 10
9000.0
 20
300.0
 30
0.0
 11
9000.0
 21
100.0
 31
0.0
  0
DIMENSION
  5
CE
330
17
100
AcDbEntity
  8
DIMENSION
 62
3
370
25
100
AcDbDimension
280
0
  2
*D9
  3
Standard
 10
4500.0
 20
400.0
 30
0.0
 11
6750.0
 21
471.25
 31
0.0
 70
32
 71
5
  1
4500
100
AcDbAlignedDimension
 13
4500.0
 23
300.0
 33
0.0
 14
9000.0
 24
300.0
 34
0.0
 50
0.0
100
AcDbRotatedDimension
  0
TEXT
  5
DD
330
17
100
AcDbEntity
  8
TEXT
100
AcDbText
 10
6360.0
 20
140.0
 30
0.0
 40
120.0
  1
BRB-1500-4800
100
AcDbText
  0
LINE
  5
DE
330
17
100
AcDbEntity
  8
TUBE
 62
7
370
35
100
AcDbLine
 10
9000.0
 20
300.0
 30
0.0
 11
11700.0
 21
300.0
 31
0.0
  0
LINE
  5
DF
330
17
100
AcDbEntity
  8
TUBE
 62
7
370
35
100
AcDbLine
 10
9000.0
 20
100.0
 30
0.0
 11
11700.0
 21
100.0
 31
0.0
  0
LINE
  5
E0
330
17
100
AcDbEntity
  8
TUBE
 62
7
370
35
100
AcDbLine
 10
11700.0
 20
300.0
 30
0.0
 11
11700.0
 21
100.0
 31
0.0
  0
DIMENSION
  5
E1
330
17
100
AcDbEntity
  8
DIMENSION
 62
3
370
25
100
AcDbDimension
280
0
  2
*D10
  3
Standard
 10
9000.0
 20
400.0
 30
0.0
 11
10350.0
 21
471.25
 31
0.0
 70
32
 71
5
  1
2700
100
AcDbAlignedDimension
 13
9000.0
 23
300.0
 33
0.0
 14
11700.0
 24
300.0
 34
0.0
 50
0.0
100
AcDbRotatedDimension
  0
TEXT
  5
F0
330
17
100
AcDbEntity
  8
TEXT
100
AcDbText
 10
9960.0
 20
140.0
 30
0.0
 40
120.0
  1
BRB-1000-3000
100
AcDbText
  0
LINE
  5
F1
330
17
100
AcDbEntity
  8
TUBE
 62
7
370
35
100
AcDbLine
 10
11700.0
 20
300.0
 30
0.0
 11
12000.0
 21
300.0
 31
0.0
  0
LINE
  5
F2
330
17
100
AcDbEntity
  8
TUBE
 62
7
370
35
100
AcDbLine
 10
11700.0
 20
100.0
 30
0.0
 11
12000.0
 21
100.0
 31
0.0
  0
LINE
  5
F3
330
17
100
AcDbEntity
  8
TUBE
 62
7
370
35
100
AcDbLine
 10
11700.0
 20
300.0
 30
0.0
 11
11700.0
 21
100.0
 31
0.0
  0
LINE
  5
F4
330
17
100
AcDbEntity
  8
TUBE
 62
7
370
35
100
AcDbLine
 10
12000.0
 20
300.0
 30
0.0
 11
12000.0
 21
100.0
 31
0.0
  0
DIMENSION
  5
F5
330
17
100
AcDbEntity
  8
DIMENSION
 62
3
370
25
100
AcDbDimension
280
0
  2
*D11
  3
Standard
 10
11700.0
 20
400.0
 30
0.0
 11
11850.0
 21
471.25
 31
0.0
 70
32
 71
5
  1
余300
100
AcDbAlignedDimension
 13
11700.0
 23
300.0
 33
0.0
 14
12000.0
 24
300.0
 34
0.0
 50
0.0
100
AcDbRotatedDimension
  0
TEXT
  5
104
330
17
100
AcDbEntity
  8
TEXT
100
AcDbText
 10
6000.0
 20
-70.0
 30
0.0
 40
120.0
  1
9根
100
AcDbText
  0
DIMENSION
  5
105
330
17
100
AcDbEntity
  8
DIMENSION
 62
3
370
25
100
AcDbDimension
280
0
  2
*D12
  3
Standard
 10
-110.0
 20
-550.0
 30
0.0
 11
-181.25
 21
-450.0
 31
0.0
 70
32
 71
5
  1
200
100
AcDbAlignedDimension
 13
10.0
 23
-550.0
 33
0.0
 14
10.0
 24
-350.0
 34
0.0
 50
90.0
100
AcDbRotatedDimension
  0
LINE
  5
116
330
17
100
AcDbEntity
  8
TUBE
 62
7
370
35
100
AcDbLine
 10
0.0
 20
-350.0
 30
0.0
 11
2700.0
 21
-350.0
 31
0.0
  0
LINE
  5
117
330
17
100
AcDbEntity
  8
TUBE
 62
7
370
35
100
AcDbLine
 10
0.0
 20
-550.0
 30
0.0
 11
2700.0
 21
-550.0
 31
0.0
  0
LINE
  5
118
330
17
100
AcDbEntity
  8
TUBE
 62
7
370
35
100
AcDbLine
 10
0.0
 20
-350.0
 30
0.0
 11
0.0
 21
-550.0
 31
0.0
  0
LINE
  5
119
330
17
100
AcDbEntity
  8
TUBE
 62
7
370
35
100
AcDbLine
 10
2700.0
 20
-350.0
 30
0.0
 11
2700.0
 21
-550.0
 31
0.0
  0
DIMENSION
  5
11A
330
17
100
AcDbEntity
  8
DIMENSION
 62
3
370
25
100
AcDbDimension
280
0
  2
*D13
  3
Standard
 10
0.0
 20
-250.0
 30
0.0
 11
1350.0
 21
-178.75
 31
0.0
 70
32
 71
5
  1
2700
100
AcDbAlignedDimension
 13
0.0
 23
-350.0
 33
0.0
 14
2700.0
 24
-350.0
 34
0.0
 50
0.0
100
AcDbRotatedDimension
  0
TEXT
  5
129
330
17
100
AcDbEntity
  8
TEXT
100
AcDbText
 10
960.0
 20
-510.0
 30
0.0
 40
120.0
  1
BRB-1000-3000
100
AcDbText
  0
LINE
  5
12A
330
17
100
AcDbEntity
  8
TUBE
 62
7
370
35
100
AcDbLine
 10
2700.0
 20
-350.0
 30
0.0
 11
5400.0
 21
-350.0
 31
0.0
  0
LINE
  5
12B
330
17
100
AcDbEntity
  8
TUBE
 62
7
370
35
100
AcDbLine
 10
2700.0
 20
-550.0
 30
0.0
 11
5400.0
 21
-550.0
 31
0.0
  0
LINE
  5
12C
330
17
100
AcDbEntity
  8
TUBE
 62
7
370
35
100
AcDbLine
 10
5400.0
 20
-350.0
 30
0.0
 11
5400.0
 21
-550.0
 31
0.0
  0
DIMENSION
  5
12D
330
17
100
AcDbEntity
  8
DIMENSION
 62
3
370
25
100
AcDbDimension
280
0
  2
*D14
  3
Standard
 10
2700.0
 20
-250.0
 30
0.0
 11
4050.0
 21
-178.75
 31
0.0
 70
32
 71
5
  1
2700
100
AcDbAlignedDimension
 13
2700.0
 23
-350.0
 33
0.0
 14
5400.0
 24
-350.0
 34
0.0
 50
0.0
100
AcDbRotatedDimension
  0
TEXT
  5
13C
330
17
100
AcDbEntity
  8
TEXT
100
AcDbText
 10
3660.0
 20
-510.0
 30
0.0
 40
120.0
  1
BRB-1000-3000
100
AcDbText
  0
LINE
  5
13D
330
17
100
AcDbEntity
  8
TUBE
 62
7
370
35
100
AcDbLine
 10
5400.0
 20
-350.0
 30
0.0
 11
8100.0
 21
-350.0
 31
0.0
  0
LINE
  5
13E
330
17
100
AcDbEntity
  8
TUBE
 62
7
370
35
100
AcDbLine
 10
5400.0
 20
-550.0
 30
0.0
 11
8100.0
 21
-550.0
 31
0.0
  0
LINE
  5
13F
330
17
100
AcDbEntity
  8
TUBE
 62
7
370
35
100
AcDbLine
 10
8100.0
 20
-350.0
 30
0.0
 11
8100.0
 21
-550.0
 31
0.0
  0
DIMENSION
  5
140
330
17
100
AcDbEntity
  8
DIMENSION
 62
3
370
25
100
AcDbDimension
280
0
  2
*D15
  3
Standard
 10
5400.0
 20
-250.0
 30
0.0
 11
6750.0
 21
-178.75
 31
0.0
 70
32
 71
5
  1
2700
100
AcDbAlignedDimension
 13
5400.0
 23
-350.0
 33
0.0
 14
8100.0
 24
-350.0
 34
0.0
 50
0.0
100
AcDbRotatedDimension
  0
TEXT
  5
14F
330
17
100
AcDbEntity
  8
TEXT
100
AcDbText
 10
6360.0
 20
-510.0
 30
0.0
 40
120.0
  1
BRB-1000-3000
100
AcDbText
  0
LINE
  5
150
330
17
100
AcDbEntity
  8
TUBE
 62
7
370
35
100
AcDbLine
 10
8100.0
 20
-350.0
 30
0.0
 11
10800.0
 21
-350.0
 31
0.0
  0
LINE
  5
151
330
17
100
AcDbEntity
  8
TUBE
 62
7
370
35
100
AcDbLine
 10
8100.0
 20
-550.0
 30
0.0
 11
10800.0
 21
-550.0
 31
0.0
  0
LINE
  5
152
330
17
100
AcDbEntity
  8
TUBE
 62
7
370
35
100
AcDbLine
 10
10800.0
 20
-350.0
 30
0.0
 11
10800.0
 21
-550.0
 31
0.0
  0
DIMENSION
  5
153
330
17
100
AcDbEntity
  8
DIMENSION
 62
3
370
25
100
AcDbDimension
280
0
  2
*D16
  3
Standard
 10
8100.0
 20
-250.0
 30
0.0
 11
9450.0
 21
-178.75
 31
0.0
 70
32
 71
5
  1
2700
100
AcDbAlignedDimension
 13
8100.0
 23
-350.0
 33
0.0
 14
10800.0
 24
-350.0
 34
0.0
 50
0.0
100
AcDbRotatedDimension
  0
TEXT
  5
162
330
17
100
AcDbEntity
  8
TEXT
100
AcDbText
 10
9060.0
 20
-510.0
 30
0.0
 40
120.0
  1
BRB-1000-3000
100
AcDbText
  0
LINE
  5
163
330
17
100
AcDbEntity
  8
TUBE
 62
7
370
35
100
AcDbLine
 10
10800.0
 20
-350.0
 30
0.0
 11
12000.0
 21
-350.0
 31
0.0
  0
LINE
  5
164
330
17
100
AcDbEntity
  8
TUBE
 62
7
370
35
100
AcDbLine
 10
10800.0
 20
-550.0
 30
0.0
 11
12000.0
 21
-550.0
 31
0.0
  0
LINE
  5
165
330
17
100
AcDbEntity
  8
TUBE
 62
7
370
35
100
AcDbLine
 10
10800.0
 20
-350.0
 30
0.0
 11
10800.0
 21
-550.0
 31
0.0
  0
LINE
  5
166
330
17
100
AcDbEntity
  8
TUBE
 62
7
370
35
100
AcDbLine
 10
12000.0
 20
-350.0
 30
0.0
 11
12000.0
 21
-550.0
 31
0.0
  0
DIMENSION
  5
167
330
17
100
AcDbEntity
  8
DIMENSION
 62
3
370
25
100
AcDbDimension
280
0
  2
*D17
  3
Standard
 10
10800.0
 20
-250.0
 30
0.0
 11
11400.0
 21
-178.75
 31
0.0
 70
32
 71
5
  1
1200(+1500=2700)
100
AcDbAlignedDimension
 13
10800.0
 23
-350.0
 33
0.0
 14
12000.0
 24
-350.0
 34
0.0
 50
0.0
100
AcDbRotatedDimension
  0
TEXT
  5
176
330
17
100
AcDbEntity
  8
TEXT
100
AcDbText
 10
11010.0
 20
-510.0
 30
0.0
 40
120.0
  1
BRB-1000-3000
100
AcDbText
  0
TEXT
  5
177
330
17
100
AcDbEntity
  8
TEXT
100
AcDbText
 10
6000.0
 20
-720.0
 30
0.0
 40
120.0
  1
1根
100
AcDbText
  0
DIMENSION
  5
178
330
17
100
AcDbEntity
  8
DIMENSION
 62
3
370
25
100
AcDbDimension
280
0
  2
*D18
  3
Standard
 10
-110.0
 20
-1200.0
 30
0.0
 11
-181.25
 21
-1100.0
 31
0.0
 70
32
 71
5
  1
200
100
AcDbAlignedDimension
 13
10.0
 23
-1200.0
 33
0.0
 14
10.0
 24
-1000.0
 34
0.0
 50
90.0
100
AcDbRotatedDimension
  0
LINE
  5
189
330
17
100
AcDbEntity
  8
TUBE
 62
7
370
35
100
AcDbLine
 10
0.0
 20
-1000.0
 30
0.0
 11
1500.0
 21
-1000.0
 31
0.0
  0
LINE
  5
18A
330
17
100
AcDbEntity
  8
TUBE
 62
7
370
35
100
AcDbLine
 10
0.0
 20
-1200.0
 30
0.0
 11
1500.0
 21
-1200.0
 31
0.0
  0
LINE
  5
18B
330
17
100
AcDbEntity
  8
TUBE
 62
7
370
35
100
AcDbLine
 10
0.0
 20
-1000.0
 30
0.0
 11
0.0
 21
-1200.0
 31
0.0
  0
LINE
  5
18C
330
17
100
AcDbEntity
  8
TUBE
 62
7
370
35
100
AcDbLine
 10
1500.0
 20
-1000.0
 30
0.0
 11
1500.0
 21
-1200.0
 31
0.0
  0
DIMENSION
  5
18D
330
17
100
AcDbEntity
  8
DIMENSION
 62
3
370
25
100
AcDbDimension
280
0
  2
*D19
  3
Standard
 10
0.0
 20
-900.0
 30
0.0
 11
750.0
 21
-828.75
 31
0.0
 70
32
 71
5
  1
1500
100
AcDbAlignedDimension
 13
0.0
 23
-1000.0
 33
0.0
 14
1500.0
 24
-1000.0
 34
0.0
 50
0.0
100
AcDbRotatedDimension
  0
TEXT
  5
19C
330
17
100
AcDbEntity
  8
TEXT
100
AcDbText
 10
360.0
 20
-1160.0
 30
0.0
 40
120.0
  1
BRB-1000-3000
100
AcDbText
  0
LINE
  5
19D
330
17
100
AcDbEntity
  8
TUBE
 62
7
370
35
100
AcDbLine
 10
1500.0
 20
-1000.0
 30
0.0
 11
4200.0
 21
-1000.0
 31
0.0
  0
LINE
  5
19E
330
17
100
AcDbEntity
  8
TUBE
 62
7
370
35
100
AcDbLine
 10
1500.0
 20
-1200.0
 30
0.0
 11
4200.0
 21
-1200.0
 31
0.0
  0
LINE
  5
19F
330
17
100
AcDbEntity
  8
TUBE
 62
7
370
35
100
AcDbLine
 10
4200.0
 20
-1000.0
 30
0.0
 11
4200.0
 21
-1200.0
 31
0.0
  0
DIMENSION
  5
1A0
330
17
100
AcDbEntity
  8
DIMENSION
 62
3
370
25
100
AcDbDimension
280
0
  2
*D20
  3
Standard
 10
1500.0
 20
-900.0
 30
0.0
 11
2850.0
 21
-828.75
 31
0.0
 70
32
 71
5
  1
2700
100
AcDbAlignedDimension
 13
1500.0
 23
-1000.0
 33
0.0
 14
4200.0
 24
-1000.0
 34
0.0
 50
0.0
100
AcDbRotatedDimension
  0
TEXT
  5
1AF
330
17
100
AcDbEntity
  8
TEXT
100
AcDbText
 10
2460.0
 20
-1160.0
 30
0.0
 40
120.0
  1
BRB-1000-3000
100
AcDbText
  0
LINE
  5
1B0
330
17
100
AcDbEntity
  8
TUBE
 62
7
370
35
100
AcDbLine
 10
4200.0
 20
-1000.0
 30
0.0
 11
12000.0
 21
-1000.0
 31
0.0
  0
LINE
  5
1B1
330
17
100
AcDbEntity
  8
TUBE
 62
7
370
35
100
AcDbLine
 10
4200.0
 20
-1200.0
 30
0.0
 11
12000.0
 21
-1200.0
 31
0.0
  0
LINE
  5
1B2
330
17
100
AcDbEntity
  8
TUBE
 62
7
370
35
100
AcDbLine
 10
4200.0
 20
-1000.0
 30
0.0
 11
4200.0
 21
-1200.0
 31
0.0
  0
LINE
  5
1B3
330
17
100
AcDbEntity
  8
TUBE
 62
7
370
35
100
AcDbLine
 10
12000.0
 20
-1000.0
 30
0.0
 11
12000.0
 21
-1200.0
 31
0.0
  0
DIMENSION
  5
1B4
330
17
100
AcDbEntity
  8
DIMENSION
 62
3
370
25
100
AcDbDimension
280
0
  2
*D21
  3
Standard
 10
4200.0
 20
-900.0
 30
0.0
 11
8100.0
 21
-828.75
 31
0.0
 70
32
 71
5
  1
余7800
100
AcDbAlignedDimension
 13
4200.0
 23
-1000.0
 33
0.0
 14
12000.0
 24
-1000.0
 34
0.0
 50
0.0
100
AcDbRotatedDimension
  0
TEXT
  5
1C3
330
17
100
AcDbEntity
  8
TEXT
100
AcDbText
 10
6000.0
 20
-1370.0
 30
0.0
 40
120.0
  1
1根
100
AcDbText
  0
TEXT
  5
1C4
330
17
100
AcDbEntity
  8
TEXT
100
AcDbText
 10
0.0
 20
-3750.0
 30
0.0
 40
200.0
  1
宜宾赛事中心项目 BRB, 300方管总长80400，需7根12米方管, 余料总和：1200mm
 41
0.8
100
AcDbText
  0
DIMENSION
  5
1C5
330
17
100
AcDbEntity
  8
DIMENSION
 62
3
370
25
100
AcDbDimension
280
0
  2
*D22
  3
Standard
 10
-110.0
 20
-4550.0
 30
0.0
 11
-181.25
 21
-4400.0
 31
0.0
 70
32
 71
5
  1
300
100
AcDbAlignedDimension
 13
10.0
 23
-4550.0
 33
0.0
 14
10.0
 24
-4250.0
 34
0.0
 50
90.0
100
AcDbRotatedDimension
  0
DIMENSION
  5
1D4
330
17
100
AcDbEntity
  8
DIMENSION
 62
3
370
25
100
AcDbDimension
280
0
  2
*D23
  3
Standard
 10
0.0
 20
-3970.0
 30
0.0
 11
6000.0
 21
-3898.75
 31
0.0
 70
32
 71
5
  1
12000
100
AcDbAlignedDimension
 13
0.0
 23
-4250.0
 33
0.0
 14
12000.0
 24
-4250.0
 34
0.0
 50
0.0
100
AcDbRotatedDimension
  0
LINE
  5
1E3
330
17
100
AcDbEntity
  8
TUBE
 62
7
370
35
100
AcDbLine
 10
0.0
 20
-4250.0
 30
0.0
 11
2400.0
 21
-4250.0
 31
0.0
  0
LINE
  5
1E4
330
17
100
AcDbEntity
  8
TUBE
 62
7
370
35
100
AcDbLine
 10
0.0
 20
-4550.0
 30
0.0
 11
2400.0
 21
-4550.0
 31
0.0
  0
LINE
  5
1E5
330
17
100
AcDbEntity
  8
TUBE
 62
7
370
35
100
AcDbLine
 10
0.0
 20
-4250.0
 30
0.0
 11
0.0
 21
-4550.0
 31
0.0
  0
LINE
  5
1E6
330
17
100
AcDbEntity
  8
TUBE
 62
7
370
35
100
AcDbLine
 10
2400.0
 20
-4250.0
 30
0.0
 11
2400.0
 21
-4550.0
 31
0.0
  0
DIMENSION
  5
1E7
330
17
100
AcDbEntity
  8
DIMENSION
 62
3
370
25
100
AcDbDimension
280
0
  2
*D24
  3
Standard
 10
0.0
 20
-4150.0
 30
0.0
 11
1200.0
 21
-4078.75
 31
0.0
 70
32
 71
5
  1
2400
100
AcDbAlignedDimension
 13
0.0
 23
-4250.0
 33
0.0
 14
2400.0
 24
-4250.0
 34
0.0
 50
0.0
100
AcDbRotatedDimension
  0
TEXT
  5
1F6
330
17
100
AcDbEntity
  8
TEXT
100
AcDbText
 10
810.0
 20
-4460.0
 30
0.0
 40
120.0
  1
BRB-3000-2700
100
AcDbText
  0
LINE
  5
1F7
330
17
100
AcDbEntity
  8
TUBE
 62
7
370
35
100
AcDbLine
 10
2400.0
 20
-4250.0
 30
0.0
 11
4800.0
 21
-4250.0
 31
0.0
  0
LINE
  5
1F8
330
17
100
AcDbEntity
  8
TUBE
 62
7
370
35
100
AcDbLine
 10
2400.0
 20
-4550.0
 30
0.0
 11
4800.0
 21
-4550.0
 31
0.0
  0
LINE
  5
1F9
330
17
100
AcDbEntity
  8
TUBE
 62
7
370
35
100
AcDbLine
 10
4800.0
 20
-4250.0
 30
0.0
 11
4800.0
 21
-4550.0
 31
0.0
  0
DIMENSION
  5
1FA
330
17
100
AcDbEntity
  8
DIMENSION
 62
3
370
25
100
AcDbDimension
280
0
  2
*D25
  3
Standard
 10
2400.0
 20
-4150.0
 30
0.0
 11
3600.0
 21
-4078.75
 31
0.0
 70
32
 71
5
  1
2400
100
AcDbAlignedDimension
 13
2400.0
 23
-4250.0
 33
0.0
 14
4800.0
 24
-4250.0
 34
0.0
 50
0.0
100
AcDbRotatedDimension
  0
TEXT
  5
209
330
17
100
AcDbEntity
  8
TEXT
100
AcDbText
 10
3210.0
 20
-4460.0
 30
0.0
 40
120.0
  1
BRB-3000-2700
100
AcDbText
  0
LINE
  5
20A
330
17
100
AcDbEntity
  8
TUBE
 62
7
370
35
100
AcDbLine
 10
4800.0
 20
-4250.0
 30
0.0
 11
7200.0
 21
-4250.0
 31
0.0
  0
LINE
  5
20B
330
17
100
AcDbEntity
  8
TUBE
 62
7
370
35
100
AcDbLine
 10
4800.0
 20
-4550.0
 30
0.0
 11
7200.0
 21
-4550.0
 31
0.0
  0
LINE
  5
20C
330
17
100
AcDbEntity
  8
TUBE
 62
7
370
35
100
AcDbLine
 10
7200.0
 20
-4250.0
 30
0.0
 11
7200.0
 21
-4550.0
 31
0.0
  0
DIMENSION
  5
20D
330
17
100
AcDbEntity
  8
DIMENSION
 62
3
370
25
100
AcDbDimension
280
0
  2
*D26
  3
Standard
 10
4800.0
 20
-4150.0
 30
0.0
 11
6000.0
 21
-4078.75
 31
0.0
 70
32
 71
5
  1
2400
100
AcDbAlignedDimension
 13
4800.0
 23
-4250.0
 33
0.0
 14
7200.0
 24
-4250.0
 34
0.0
 50
0.0
100
AcDbRotatedDimension
  0
TEXT
  5
21C
330
17
100
AcDbEntity
  8
TEXT
100
AcDbText
 10
5610.0
 20
-4460.0
 30
0.0
 40
120.0
  1
BRB-3000-2700
100
AcDbText
  0
LINE
  5
21D
330
17
100
AcDbEntity
  8
TUBE
 62
7
370
35
100
AcDbLine
 10
7200.0
 20
-4250.0
 30
0.0
 11
9600.0
 21
-4250.0
 31
0.0
  0
LINE
  5
21E
330
17
100
AcDbEntity
  8
TUBE
 62
7
370
35
100
AcDbLine
 10
7200.0
 20
-4550.0
 30
0.0
 11
9600.0
 21
-4550.0
 31
0.0
  0
LINE
  5
21F
330
17
100
AcDbEntity
  8
TUBE
 62
7
370
35
100
AcDbLine
 10
9600.0
 20
-4250.0
 30
0.0
 11
9600.0
 21
-4550.0
 31
0.0
  0
DIMENSION
  5
220
330
17
100
AcDbEntity
  8
DIMENSION
 62
3
370
25
100
AcDbDimension
280
0
  2
*D27
  3
Standard
 10
7200.0
 20
-4150.0
 30
0.0
 11
8400.0
 21
-4078.75
 31
0.0
 70
32
 71
5
  1
2400
100
AcDbAlignedDimension
 13
7200.0
 23
-4250.0
 33
0.0
 14
9600.0
 24
-4250.0
 34
0.0
 50
0.0
100
AcDbRotatedDimension
  0
TEXT
  5
22F
330
17
100
AcDbEntity
  8
TEXT
100
AcDbText
 10
8010.0
 20
-4460.0
 30
0.0
 40
120.0
  1
BRB-3000-2700
100
AcDbText
  0
LINE
  5
230
330
17
100
AcDbEntity
  8
TUBE
 62
7
370
35
100
AcDbLine
 10
9600.0
 20
-4250.0
 30
0.0
 11
12000.0
 21
-4250.0
 31
0.0
  0
LINE
  5
231
330
17
100
AcDbEntity
  8
TUBE
 62
7
370
35
100
AcDbLine
 10
9600.0
 20
-4550.0
 30
0.0
 11
12000.0
 21
-4550.0
 31
0.0
  0
LINE
  5
232
330
17
100
AcDbEntity
  8
TUBE
 62
7
370
35
100
AcDbLine
 10
12000.0
 20
-4250.0
 30
0.0
 11
12000.0
 21
-4550.0
 31
0.0
  0
DIMENSION
  5
233
330
17
100
AcDbEntity
  8
DIMENSION
 62
3
370
25
100
AcDbDimension
280
0
  2
*D28
  3
Standard
 10
9600.0
 20
-4150.0
 30
0.0
 11
10800.0
 21
-4078.75
 31
0.0
 70
32
 71
5
  1
2400
100
AcDbAlignedDimension
 13
9600.0
 23
-4250.0
 33
0.0
 14
12000.0
 24
-4250.0
 34
0.0
 50
0.0
100
AcDbRotatedDimension
  0
TEXT
  5
242
330
17
100
AcDbEntity
  8
TEXT
100
AcDbText
 10
10410.0
 20
-4460.0
 30
0.0
 40
120.0
  1
BRB-3000-2700
100
AcDbText
  0
TEXT
  5
243
330
17
100
AcDbEntity
  8
TEXT
100
AcDbText
 10
6000.0
 20
-4720.0
 30
0.0
 40
120.0
  1
4根
100
AcDbText
  0
DIMENSION
  5
244
330
17
100
AcDbEntity
  8
DIMENSION
 62
3
370
25
100
AcDbDimension
280
0
  2
*D29
  3
Standard
 10
-110.0
 20
-5300.0
 30
0.0
 11
-181.25
 21
-5150.0
 31
0.0
 70
32
 71
5
  1
300
100
AcDbAlignedDimension
 13
10.0
 23
-5300.0
 33
0.0
 14
10.0
 24
-5000.0
 34
0.0
 50
90.0
100
AcDbRotatedDimension
  0
LINE
  5
253
330
17
100
AcDbEntity
  8
TUBE
 62
7
370
35
100
AcDbLine
 10
0.0
 20
-5000.0
 30
0.0
 11
2700.0
 21
-5000.0
 31
0.0
  0
LINE
  5
254
330
17
100
AcDbEntity
  8
TUBE
 62
7
370
35
100
AcDbLine
 10
0.0
 20
-5300.0
 30
0.0
 11
2700.0
 21
-5300.0
 31
0.0
  0
LINE
  5
255
330
17
100
AcDbEntity
  8
TUBE
 62
7
370
35
100
AcDbLine
 10
0.0
 20
-5000.0
 30
0.0
 11
0.0
 21
-5300.0
 31
0.0
  0
LINE
  5
256
330
17
100
AcDbEntity
  8
TUBE
 62
7
370
35
100
AcDbLine
 10
2700.0
 20
-5000.0
 30
0.0
 11
2700.0
 21
-5300.0
 31
0.0
  0
DIMENSION
  5
257
330
17
100
AcDbEntity
  8
DIMENSION
 62
3
370
25
100
AcDbDimension
280
0
  2
*D30
  3
Standard
 10
0.0
 20
-4900.0
 30
0.0
 11
1350.0
 21
-4828.75
 31
0.0
 70
32
 71
5
  1
2700
100
AcDbAlignedDimension
 13
0.0
 23
-5000.0
 33
0.0
 14
2700.0
 24
-5000.0
 34
0.0
 50
0.0
100
AcDbRotatedDimension
  0
TEXT
  5
266
330
17
100
AcDbEntity
  8
TEXT
100
AcDbText
 10
960.0
 20
-5210.0
 30
0.0
 40
120.0
  1
BRB-3000-3000
100
AcDbText
  0
LINE
  5
267
330
17
100
AcDbEntity
  8
TUBE
 62
7
370
35
100
AcDbLine
 10
2700.0
 20
-5000.0
 30
0.0
 11
5400.0
 21
-5000.0
 31
0.0
  0
LINE
  5
268
330
17
100
AcDbEntity
  8
TUBE
 62
7
370
35
100
AcDbLine
 10
2700.0
 20
-5300.0
 30
0.0
 11
5400.0
 21
-5300.0
 31
0.0
  0
LINE
  5
269
330
17
100
AcDbEntity
  8
TUBE
 62
7
370
35
100
AcDbLine
 10
5400.0
 20
-5000.0
 30
0.0
 11
5400.0
 21
-5300.0
 31
0.0
  0
DIMENSION
  5
26A
330
17
100
AcDbEntity
  8
DIMENSION
 62
3
370
25
100
AcDbDimension
280
0
  2
*D31
  3
Standard
 10
2700.0
 20
-4900.0
 30
0.0
 11
4050.0
 21
-4828.75
 31
0.0
 70
32
 71
5
  1
2700
100
AcDbAlignedDimension
 13
2700.0
 23
-5000.0
 33
0.0
 14
5400.0
 24
-5000.0
 34
0.0
 50
0.0
100
AcDbRotatedDimension
  0
TEXT
  5
279
330
17
100
AcDbEntity
  8
TEXT
100
AcDbText
 10
3660.0
 20
-5210.0
 30
0.0
 40
120.0
  1
BRB-3000-3000
100
AcDbText
  0
LINE
  5
27A
330
17
100
AcDbEntity
  8
TUBE
 62
7
370
35
100
AcDbLine
 10
5400.0
 20
-5000.0
 30
0.0
 11
8100.0
 21
-5000.0
 31
0.0
  0
LINE
  5
27B
330
17
100
AcDbEntity
  8
TUBE
 62
7
370
35
100
AcDbLine
 10
5400.0
 20
-5300.0
 30
0.0
 11
8100.0
 21
-5300.0
 31
0.0
  0
LINE
  5
27C
330
17
100
AcDbEntity
  8
TUBE
 62
7
370
35
100
AcDbLine
 10
8100.0
 20
-5000.0
 30
0.0
 11
8100.0
 21
-5300.0
 31
0.0
  0
DIMENSION
  5
27D
330
17
100
AcDbEntity
  8
DIMENSION
 62
3
370
25
100
AcDbDimension
280
0
  2
*D32
  3
Standard
 10
5400.0
 20
-4900.0
 30
0.0
 11
6750.0
 21
-4828.75
 31
0.0
 70
32
 71
5
  1
2700
100
AcDbAlignedDimension
 13
5400.0
 23
-5000.0
 33
0.0
 14
8100.0
 24
-5000.0
 34
0.0
 50
0.0
100
AcDbRotatedDimension
  0
TEXT
  5
28C
330
17
100
AcDbEntity
  8
TEXT
100
AcDbText
 10
6360.0
 20
-5210.0
 30
0.0
 40
120.0
  1
BRB-3000-3000
100
AcDbText
  0
LINE
  5
28D
330
17
100
AcDbEntity
  8
TUBE
 62
7
370
35
100
AcDbLine
 10
8100.0
 20
-5000.0
 30
0.0
 11
10800.0
 21
-5000.0
 31
0.0
  0
LINE
  5
28E
330
17
100
AcDbEntity
  8
TUBE
 62
7
370
35
100
AcDbLine
 10
8100.0
 20
-5300.0
 30
0.0
 11
10800.0
 21
-5300.0
 31
0.0
  0
LINE
  5
28F
330
17
100
AcDbEntity
  8
TUBE
 62
7
370
35
100
AcDbLine
 10
10800.0
 20
-5000.0
 30
0.0
 11
10800.0
 21
-5300.0
 31
0.0
  0
DIMENSION
  5
290
330
17
100
AcDbEntity
  8
DIMENSION
 62
3
370
25
100
AcDbDimension
280
0
  2
*D33
  3
Standard
 10
8100.0
 20
-4900.0
 30
0.0
 11
9450.0
 21
-4828.75
 31
0.0
 70
32
 71
5
  1
2700
100
AcDbAlignedDimension
 13
8100.0
 23
-5000.0
 33
0.0
 14
10800.0
 24
-5000.0
 34
0.0
 50
0.0
100
AcDbRotatedDimension
  0
TEXT
  5
29F
330
17
100
AcDbEntity
  8
TEXT
100
AcDbText
 10
9060.0
 20
-5210.0
 30
0.0
 40
120.0
  1
BRB-3000-3000
100
AcDbText
  0
LINE
  5
2A0
330
17
100
AcDbEntity
  8
TUBE
 62
7
370
35
100
AcDbLine
 10
10800.0
 20
-5000.0
 30
0.0
 11
12000.0
 21
-5000.0
 31
0.0
  0
LINE
  5
2A1
330
17
100
AcDbEntity
  8
TUBE
 62
7
370
35
100
AcDbLine
 10
10800.0
 20
-5300.0
 30
0.0
 11
12000.0
 21
-5300.0
 31
0.0
  0
LINE
  5
2A2
330
17
100
AcDbEntity
  8
TUBE
 62
7
370
35
100
AcDbLine
 10
10800.0
 20
-5000.0
 30
0.0
 11
10800.0
 21
-5300.0
 31
0.0
  0
LINE
  5
2A3
330
17
100
AcDbEntity
  8
TUBE
 62
7
370
35
100
AcDbLine
 10
12000.0
 20
-5000.0
 30
0.0
 11
12000.0
 21
-5300.0
 31
0.0
  0
DIMENSION
  5
2A4
330
17
100
AcDbEntity
  8
DIMENSION
 62
3
370
25
100
AcDbDimension
280
0
  2
*D34
  3
Standard
 10
10800.0
 20
-4900.0
 30
0.0
 11
11400.0
 21
-4828.75
 31
0.0
 70
32
 71
5
  1
1200(+1500=2700)
100
AcDbAlignedDimension
 13
10800.0
 23
-5000.0
 33
0.0
 14
12000.0
 24
-5000.0
 34
0.0
 50
0.0
100
AcDbRotatedDimension
  0
TEXT
  5
2B3
330
17
100
AcDbEntity
  8
TEXT
100
AcDbText
 10
11010.0
 20
-5210.0
 30
0.0
 40
120.0
  1
BRB-3000-3000
100
AcDbText
  0
TEXT
  5
2B4
330
17
100
AcDbEntity
  8
TEXT
100
AcDbText
 10
6000.0
 20
-5470.0
 30
0.0
 40
120.0
  1
1根
100
AcDbText
  0
DIMENSION
  5
2B5
330
17
100
AcDbEntity
  8
DIMENSION
 62
3
370
25
100
AcDbDimension
280
0
  2
*D35
  3
Standard
 10
-110.0
 20
-6050.0
 30
0.0
 11
-181.25
 21
-5900.0
 31
0.0
 70
32
 71
5
  1
300
100
AcDbAlignedDimension
 13
10.0
 23
-6050.0
 33
0.0
 14
10.0
 24
-5750.0
 34
0.0
 50
90.0
100
AcDbRotatedDimension
  0
LINE
  5
2C4
330
17
100
AcDbEntity
  8
TUBE
 62
7
370
35
100
AcDbLine
 10
0.0
 20
-5750.0
 30
0.0
 11
1500.0
 21
-5750.0
 31
0.0
  0
LINE
  5
2C5
330
17
100
AcDbEntity
  8
TUBE
 62
7
370
35
100
AcDbLine
 10
0.0
 20
-6050.0
 30
0.0
 11
1500.0
 21
-6050.0
 31
0.0
  0
LINE
  5
2C6
330
17
100
AcDbEntity
  8
TUBE
 62
7
370
35
100
AcDbLine
 10
0.0
 20
-5750.0
 30
0.0
 11
0.0
 21
-6050.0
 31
0.0
  0
LINE
  5
2C7
330
17
100
AcDbEntity
  8
TUBE
 62
7
370
35
100
AcDbLine
 10
1500.0
 20
-5750.0
 30
0.0
 11
1500.0
 21
-6050.0
 31
0.0
  0
DIMENSION
  5
2C8
330
17
100
AcDbEntity
  8
DIMENSION
 62
3
370
25
100
AcDbDimension
280
0
  2
*D36
  3
Standard
 10
0.0
 20
-5650.0
 30
0.0
 11
750.0
 21
-5578.75
 31
0.0
 70
32
 71
5
  1
1500
100
AcDbAlignedDimension
 13
0.0
 23
-5750.0
 33
0.0
 14
1500.0
 24
-5750.0
 34
0.0
 50
0.0
100
AcDbRotatedDimension
  0
TEXT
  5
2D7
330
17
100
AcDbEntity
  8
TEXT
100
AcDbText
 10
360.0
 20
-5960.0
 30
0.0
 40
120.0
  1
BRB-3000-3000
100
AcDbText
  0
LINE
  5
2D8
330
17
100
AcDbEntity
  8
TUBE
 62
7
370
35
100
AcDbLine
 10
1500.0
 20
-5750.0
 30
0.0
 11
4200.0
 21
-5750.0
 31
0.0
  0
LINE
  5
2D9
330
17
100
AcDbEntity
  8
TUBE
 62
7
370
35
100
AcDbLine
 10
1500.0
 20
-6050.0
 30
0.0
 11
4200.0
 21
-6050.0
 31
0.0
  0
LINE
  5
2DA
330
17
100
AcDbEntity
  8
TUBE
 62
7
370
35
100
AcDbLine
 10
4200.0
 20
-5750.0
 30
0.0
 11
4200.0
 21
-6050.0
 31
0.0
  0
DIMENSION
  5
2DB
330
17
100
AcDbEntity
  8
DIMENSION
 62
3
370
25
100
AcDbDimension
280
0
  2
*D37
  3
Standard
 10
1500.0
 20
-5650.0
 30
0.0
 11
2850.0
 21
-5578.75
 31
0.0
 70
32
 71
5
  1
2700
100
AcDbAlignedDimension
 13
1500.0
 23
-5750.0
 33
0.0
 14
4200.0
 24
-5750.0
 34
0.0
 50
0.0
100
AcDbRotatedDimension
  0
TEXT
  5
2EA
330
17
100
AcDbEntity
  8
TEXT
100
AcDbText
 10
2460.0
 20
-5960.0
 30
0.0
 40
120.0
  1
BRB-3000-3000
100
AcDbText
  0
LINE
  5
2EB
330
17
100
AcDbEntity
  8
TUBE
 62
7
370
35
100
AcDbLine
 10
4200.0
 20
-5750.0
 30
0.0
 11
6900.0
 21
-5750.0
 31
0.0
  0
LINE
  5
2EC
330
17
100
AcDbEntity
  8
TUBE
 62
7
370
35
100
AcDbLine
 10
4200.0
 20
-6050.0
 30
0.0
 11
6900.0
 21
-6050.0
 31
0.0
  0
LINE
  5
2ED
330
17
100
AcDbEntity
  8
TUBE
 62
7
370
35
100
AcDbLine
 10
6900.0
 20
-5750.0
 30
0.0
 11
6900.0
 21
-6050.0
 31
0.0
  0
DIMENSION
  5
2EE
330
17
100
AcDbEntity
  8
DIMENSION
 62
3
370
25
100
AcDbDimension
280
0
  2
*D38
  3
Standard
 10
4200.0
 20
-5650.0
 30
0.0
 11
5550.0
 21
-5578.75
 31
0.0
 70
32
 71
5
  1
2700
100
AcDbAlignedDimension
 13
4200.0
 23
-5750.0
 33
0.0
 14
6900.0
 24
-5750.0
 34
0.0
 50
0.0
100
AcDbRotatedDimension
  0
TEXT
  5
2FD
330
17
100
AcDbEntity
  8
TEXT
100
AcDbText
 10
5160.0
 20
-5960.0
 30
0.0
 40
120.0
  1
BRB-3000-3000
100
AcDbText
  0
LINE
  5
2FE
330
17
100
AcDbEntity
  8
TUBE
 62
7
370
35
100
AcDbLine
 10
6900.0
 20
-5750.0
 30
0.0
 11
9600.0
 21
-5750.0
 31
0.0
  0
LINE
  5
2FF
330
17
100
AcDbEntity
  8
TUBE
 62
7
370
35
100
AcDbLine
 10
6900.0
 20
-6050.0
 30
0.0
 11
9600.0
 21
-6050.0
 31
0.0
  0
LINE
  5
300
330
17
100
AcDbEntity
  8
TUBE
 62
7
370
35
100
AcDbLine
 10
9600.0
 20
-5750.0
 30
0.0
 11
9600.0
 21
-6050.0
 31
0.0
  0
DIMENSION
  5
301
330
17
100
AcDbEntity
  8
DIMENSION
 62
3
370
25
100
AcDbDimension
280
0
  2
*D39
  3
Standard
 10
6900.0
 20
-5650.0
 30
0.0
 11
8250.0
 21
-5578.75
 31
0.0
 70
32
 71
5
  1
2700
100
AcDbAlignedDimension
 13
6900.0
 23
-5750.0
 33
0.0
 14
9600.0
 24
-5750.0
 34
0.0
 50
0.0
100
AcDbRotatedDimension
  0
TEXT
  5
310
330
17
100
AcDbEntity
  8
TEXT
100
AcDbText
 10
7860.0
 20
-5960.0
 30
0.0
 40
120.0
  1
BRB-3000-3000
100
AcDbText
  0
LINE
  5
311
330
17
100
AcDbEntity
  8
TUBE
 62
7
370
35
100
AcDbLine
 10
9600.0
 20
-5750.0
 30
0.0
 11
12000.0
 21
-5750.0
 31
0.0
  0
LINE
  5
312
330
17
100
AcDbEntity
  8
TUBE
 62
7
370
35
100
AcDbLine
 10
9600.0
 20
-6050.0
 30
0.0
 11
12000.0
 21
-6050.0
 31
0.0
  0
LINE
  5
313
330
17
100
AcDbEntity
  8
TUBE
 62
7
370
35
100
AcDbLine
 10
9600.0
 20
-5750.0
 30
0.0
 11
9600.0
 21
-6050.0
 31
0.0
  0
LINE
  5
314
330
17
100
AcDbEntity
  8
TUBE
 62
7
370
35
100
AcDbLine
 10
12000.0
 20
-5750.0
 30
0.0
 11
12000.0
 21
-6050.0
 31
0.0
  0
DIMENSION
  5
315
330
17
100
AcDbEntity
  8
DIMENSION
 62
3
370
25
100
AcDbDimension
280
0
  2
*D40
  3
Standard
 10
9600.0
 20
-5650.0
 30
0.0
 11
10800.0
 21
-5578.75
 31
0.0
 70
32
 71
5
  1
2400
100
AcDbAlignedDimension
 13
9600.0
 23
-5750.0
 33
0.0
 14
12000.0
 24
-5750.0
 34
0.0
 50
0.0
100
AcDbRotatedDimension
  0
TEXT
  5
324
330
17
100
AcDbEntity
  8
TEXT
100
AcDbText
 10
6000.0
 20
-6220.0
 30
0.0
 40
120.0
  1
1根
100
AcDbText
  0
DIMENSION
  5
325
330
17
100
AcDbEntity
  8
DIMENSION
 62
3
370
25
100
AcDbDimension
280
0
  2
*D41
  3
Standard
 10
-110.0
 20
-6800.0
 30
0.0
 11
-181.25
 21
-6650.0
 31
0.0
 70
32
 71
5
  1
300
100
AcDbAlignedDimension
 13
10.0
 23
-6800.0
 33
0.0
 14
10.0
 24
-6500.0
 34
0.0
 50
90.0
100
AcDbRotatedDimension
  0
LINE
  5
334
330
17
100
AcDbEntity
  8
TUBE
 62
7
370
35
100
AcDbLine
 10
0.0
 20
-6500.0
 30
0.0
 11
2700.0
 21
-6500.0
 31
0.0
  0
LINE
  5
335
330
17
100
AcDbEntity
  8
TUBE
 62
7
370
35
100
AcDbLine
 10
0.0
 20
-6800.0
 30
0.0
 11
2700.0
 21
-6800.0
 31
0.0
  0
LINE
  5
336
330
17
100
AcDbEntity
  8
TUBE
 62
7
370
35
100
AcDbLine
 10
0.0
 20
-6500.0
 30
0.0
 11
0.0
 21
-6800.0
 31
0.0
  0
LINE
  5
337
330
17
100
AcDbEntity
  8
TUBE
 62
7
370
35
100
AcDbLine
 10
2700.0
 20
-6500.0
 30
0.0
 11
2700.0
 21
-6800.0
 31
0.0
  0
DIMENSION
  5
338
330
17
100
AcDbEntity
  8
DIMENSION
 62
3
370
25
100
AcDbDimension
280
0
  2
*D42
  3
Standard
 10
0.0
 20
-6400.0
 30
0.0
 11
1350.0
 21
-6328.75
 31
0.0
 70
32
 71
5
  1
2700
100
AcDbAlignedDimension
 13
0.0
 23
-6500.0
 33
0.0
 14
2700.0
 24
-6500.0
 34
0.0
 50
0.0
100
AcDbRotatedDimension
  0
TEXT
  5
347
330
17
100
AcDbEntity
  8
TEXT
100
AcDbText
 10
960.0
 20
-6710.0
 30
0.0
 40
120.0
  1
BRB-3000-3000
100
AcDbText
  0
LINE
  5
348
330
17
100
AcDbEntity
  8
TUBE
 62
7
370
35
100
AcDbLine
 10
2700.0
 20
-6500.0
 30
0.0
 11
5400.0
 21
-6500.0
 31
0.0
  0
LINE
  5
349
330
17
100
AcDbEntity
  8
TUBE
 62
7
370
35
100
AcDbLine
 10
2700.0
 20
-6800.0
 30
0.0
 11
5400.0
 21
-6800.0
 31
0.0
  0
LINE
  5
34A
330
17
100
AcDbEntity
  8
TUBE
 62
7
370
35
100
AcDbLine
 10
5400.0
 20
-6500.0
 30
0.0
 11
5400.0
 21
-6800.0
 31
0.0
  0
DIMENSION
  5
34B
330
17
100
AcDbEntity
  8
DIMENSION
 62
3
370
25
100
AcDbDimension
280
0
  2
*D43
  3
Standard
 10
2700.0
 20
-6400.0
 30
0.0
 11
4050.0
 21
-6328.75
 31
0.0
 70
32
 71
5
  1
2700
100
AcDbAlignedDimension
 13
2700.0
 23
-6500.0
 33
0.0
 14
5400.0
 24
-6500.0
 34
0.0
 50
0.0
100
AcDbRotatedDimension
  0
TEXT
  5
35A
330
17
100
AcDbEntity
  8
TEXT
100
AcDbText
 10
3660.0
 20
-6710.0
 30
0.0
 40
120.0
  1
BRB-3000-3000
100
AcDbText
  0
LINE
  5
35B
330
17
100
AcDbEntity
  8
TUBE
 62
7
370
35
100
AcDbLine
 10
5400.0
 20
-6500.0
 30
0.0
 11
8100.0
 21
-6500.0
 31
0.0
  0
LINE
  5
35C
330
17
100
AcDbEntity
  8
TUBE
 62
7
370
35
100
AcDbLine
 10
5400.0
 20
-6800.0
 30
0.0
 11
8100.0
 21
-6800.0
 31
0.0
  0
LINE
  5
35D
330
17
100
AcDbEntity
  8
TUBE
 62
7
370
35
100
AcDbLine
 10
8100.0
 20
-6500.0
 30
0.0
 11
8100.0
 21
-6800.0
 31
0.0
  0
DIMENSION
  5
35E
330
17
100
AcDbEntity
  8
DIMENSION
 62
3
370
25
100
AcDbDimension
280
0
  2
*D44
  3
Standard
 10
5400.0
 20
-6400.0
 30
0.0
 11
6750.0
 21
-6328.75
 31
0.0
 70
32
 71
5
  1
2700
100
AcDbAlignedDimension
 13
5400.0
 23
-6500.0
 33
0.0
 14
8100.0
 24
-6500.0
 34
0.0
 50
0.0
100
AcDbRotatedDimension
  0
TEXT
  5
36D
330
17
100
AcDbEntity
  8
TEXT
100
AcDbText
 10
6360.0
 20
-6710.0
 30
0.0
 40
120.0
  1
BRB-3000-3000
100
AcDbText
  0
LINE
  5
36E
330
17
100
AcDbEntity
  8
TUBE
 62
7
370
35
100
AcDbLine
 10
8100.0
 20
-6500.0
 30
0.0
 11
10800.0
 21
-6500.0
 31
0.0
  0
LINE
  5
36F
330
17
100
AcDbEntity
  8
TUBE
 62
7
370
35
100
AcDbLine
 10
8100.0
 20
-6800.0
 30
0.0
 11
10800.0
 21
-6800.0
 31
0.0
  0
LINE
  5
370
330
17
100
AcDbEntity
  8
TUBE
 62
7
370
35
100
AcDbLine
 10
10800.0
 20
-6500.0
 30
0.0
 11
10800.0
 21
-6800.0
 31
0.0
  0
DIMENSION
  5
371
330
17
100
AcDbEntity
  8
DIMENSION
 62
3
370
25
100
AcDbDimension
280
0
  2
*D45
  3
Standard
 10
8100.0
 20
-6400.0
 30
0.0
 11
9450.0
 21
-6328.75
 31
0.0
 70
32
 71
5
  1
2700
100
AcDbAlignedDimension
 13
8100.0
 23
-6500.0
 33
0.0
 14
10800.0
 24
-6500.0
 34
0.0
 50
0.0
100
AcDbRotatedDimension
  0
TEXT
  5
380
330
17
100
AcDbEntity
  8
TEXT
100
AcDbText
 10
9060.0
 20
-6710.0
 30
0.0
 40
120.0
  1
BRB-3000-3000
100
AcDbText
  0
LINE
  5
381
330
17
100
AcDbEntity
  8
TUBE
 62
7
370
35
100
AcDbLine
 10
10800.0
 20
-6500.0
 30
0.0
 11
12000.0
 21
-6500.0
 31
0.0
  0
LINE
  5
382
330
17
100
AcDbEntity
  8
TUBE
 62
7
370
35
100
AcDbLine
 10
10800.0
 20
-6800.0
 30
0.0
 11
12000.0
 21
-6800.0
 31
0.0
  0
LINE
  5
383
330
17
100
AcDbEntity
  8
TUBE
 62
7
370
35
100
AcDbLine
 10
10800.0
 20
-6500.0
 30
0.0
 11
10800.0
 21
-6800.0
 31
0.0
  0
LINE
  5
384
330
17
100
AcDbEntity
  8
TUBE
 62
7
370
35
100
AcDbLine
 10
12000.0
 20
-6500.0
 30
0.0
 11
12000.0
 21
-6800.0
 31
0.0
  0
DIMENSION
  5
385
330
17
100
AcDbEntity
  8
DIMENSION
 62
3
370
25
100
AcDbDimension
280
0
  2
*D46
  3
Standard
 10
10800.0
 20
-6400.0
 30
0.0
 11
11400.0
 21
-6328.75
 31
0.0
 70
32
 71
5
  1
余1200
100
AcDbAlignedDimension
 13
10800.0
 23
-6500.0
 33
0.0
 14
12000.0
 24
-6500.0
 34
0.0
 50
0.0
100
AcDbRotatedDimension
  0
TEXT
  5
394
330
17
100
AcDbEntity
  8
TEXT
100
AcDbText
 10
6000.0
 20
-6970.0
 30
0.0
 40
120.0
  1
1根
100
AcDbText
  0
TEXT
  5
395
330
17
100
AcDbEntity
  8
TEXT
100
AcDbText
 10
0.0
 20
-9400.0
 30
0.0
 40
200.0
  1
宜宾赛事中心项目 BRB, 350方管总长55700，需5根12米方管, 余料总和：3100mm
 41
0.8
100
AcDbText
  0
DIMENSION
  5
396
330
17
100
AcDbEntity
  8
DIMENSION
 62
3
370
25
100
AcDbDimension
280
0
  2
*D47
  3
Standard
 10
-110.0
 20
-10225.0
 30
0.0
 11
-181.25
 21
-10050.0
 31
0.0
 70
32
 71
5
  1
350
100
AcDbAlignedDimension
 13
10.0
 23
-10225.0
 33
0.0
 14
10.0
 24
-9875.0
 34
0.0
 50
90.0
100
AcDbRotatedDimension
  0
DIMENSION
  5
3A5
330
17
100
AcDbEntity
  8
DIMENSION
 62
3
370
25
100
AcDbDimension
280
0
  2
*D48
  3
Standard
 10
0.0
 20
-9595.0
 30
0.0
 11
6000.0
 21
-9523.75
 31
0.0
 70
32
 71
5
  1
12000
100
AcDbAlignedDimension
 13
0.0
 23
-9875.0
 33
0.0
 14
12000.0
 24
-9875.0
 34
0.0
 50
0.0
100
AcDbRotatedDimension
  0
LINE
  5
3B4
330
17
100
AcDbEntity
  8
TUBE
 62
7
370
35
100
AcDbLine
 10
0.0
 20
-9875.0
 30
0.0
 11
4500.0
 21
-9875.0
 31
0.0
  0
LINE
  5
3B5
330
17
100
AcDbEntity
  8
TUBE
 62
7
370
35
100
AcDbLine
 10
0.0
 20
-10225.0
 30
0.0
 11
4500.0
 21
-10225.0
 31
0.0
  0
LINE
  5
3B6
330
17
100
AcDbEntity
  8
TUBE
 62
7
370
35
100
AcDbLine
 10
0.0
 20
-9875.0
 30
0.0
 11
0.0
 21
-10225.0
 31
0.0
  0
LINE
  5
3B7
330
17
100
AcDbEntity
  8
TUBE
 62
7
370
35
100
AcDbLine
 10
4500.0
 20
-9875.0
 30
0.0
 11
4500.0
 21
-10225.0
 31
0.0
  0
DIMENSION
  5
3B8
330
17
100
AcDbEntity
  8
DIMENSION
 62
3
370
25
100
AcDbDimension
280
0
  2
*D49
  3
Standard
 10
0.0
 20
-9775.0
 30
0.0
 11
2250.0
 21
-9703.75
 31
0.0
 70
32
 71
5
  1
4500
100
AcDbAlignedDimension
 13
0.0
 23
-9875.0
 33
0.0
 14
4500.0
 24
-9875.0
 34
0.0
 50
0.0
100
AcDbRotatedDimension
  0
TEXT
  5
3C7
330
17
100
AcDbEntity
  8
TEXT
100
AcDbText
 10
1860.0
 20
-10110.0
 30
0.0
 40
120.0
  1
BRB-4500-4800
100
AcDbText
  0
LINE
  5
3C8
330
17
100
AcDbEntity
  8
TUBE
 62
7
370
35
100
AcDbLine
 10
4500.0
 20
-9875.0
 30
0.0
 11
9000.0
 21
-9875.0
 31
0.0
  0
LINE
  5
3C9
330
17
100
AcDbEntity
  8
TUBE
 62
7
370
35
100
AcDbLine
 10
4500.0
 20
-10225.0
 30
0.0
 11
9000.0
 21
-10225.0
 31
0.0
  0
LINE
  5
3CA
330
17
100
AcDbEntity
  8
TUBE
 62
7
370
35
100
AcDbLine
 10
9000.0
 20
-9875.0
 30
0.0
 11
9000.0
 21
-10225.0
 31
0.0
  0
DIMENSION
  5
3CB
330
17
100
AcDbEntity
  8
DIMENSION
 62
3
370
25
100
AcDbDimension
280
0
  2
*D50
  3
Standard
 10
4500.0
 20
-9775.0
 30
0.0
 11
6750.0
 21
-9703.75
 31
0.0
 70
32
 71
5
  1
4500
100
AcDbAlignedDimension
 13
4500.0
 23
-9875.0
 33
0.0
 14
9000.0
 24
-9875.0
 34
0.0
 50
0.0
100
AcDbRotatedDimension
  0
TEXT
  5
3DA
330
17
100
AcDbEntity
  8
TEXT
100
AcDbText
 10
6360.0
 20
-10110.0
 30
0.0
 40
120.0
  1
BRB-4500-4800
100
AcDbText
  0
LINE
  5
3DB
330
17
100
AcDbEntity
  8
TUBE
 62
7
370
35
100
AcDbLine
 10
9000.0
 20
-9875.0
 30
0.0
 11
11400.0
 21
-9875.0
 31
0.0
  0
LINE
  5
3DC
330
17
100
AcDbEntity
  8
TUBE
 62
7
370
35
100
AcDbLine
 10
9000.0
 20
-10225.0
 30
0.0
 11
11400.0
 21
-10225.0
 31
0.0
  0
LINE
  5
3DD
330
17
100
AcDbEntity
  8
TUBE
 62
7
370
35
100
AcDbLine
 10
11400.0
 20
-9875.0
 30
0.0
 11
11400.0
 21
-10225.0
 31
0.0
  0
DIMENSION
  5
3DE
330
17
100
AcDbEntity
  8
DIMENSION
 62
3
370
25
100
AcDbDimension
280
0
  2
*D51
  3
Standard
 10
9000.0
 20
-9775.0
 30
0.0
 11
10200.0
 21
-9703.75
 31
0.0
 70
32
 71
5
  1
2400
100
AcDbAlignedDimension
 13
9000.0
 23
-9875.0
 33
0.0
 14
11400.0
 24
-9875.0
 34
0.0
 50
0.0
100
AcDbRotatedDimension
  0
TEXT
  5
3ED
330
17
100
AcDbEntity
  8
TEXT
100
AcDbText
 10
9810.0
 20
-10110.0
 30
0.0
 40
120.0
  1
BRB-4500-2700
100
AcDbText
  0
LINE
  5
3EE
330
17
100
AcDbEntity
  8
TUBE
 62
7
370
35
100
AcDbLine
 10
11400.0
 20
-9875.0
 30
0.0
 11
12000.0
 21
-9875.0
 31
0.0
  0
LINE
  5
3EF
330
17
100
AcDbEntity
  8
TUBE
 62
7
370
35
100
AcDbLine
 10
11400.0
 20
-10225.0
 30
0.0
 11
12000.0
 21
-10225.0
 31
0.0
  0
LINE
  5
3F0
330
17
100
AcDbEntity
  8
TUBE
 62
7
370
35
100
AcDbLine
 10
11400.0
 20
-9875.0
 30
0.0
 11
11400.0
 21
-10225.0
 31
0.0
  0
LINE
  5
3F1
330
17
100
AcDbEntity
  8
TUBE
 62
7
370
35
100
AcDbLine
 10
12000.0
 20
-9875.0
 30
0.0
 11
12000.0
 21
-10225.0
 31
0.0
  0
DIMENSION
  5
3F2
330
17
100
AcDbEntity
  8
DIMENSION
 62
3
370
25
100
AcDbDimension
280
0
  2
*D52
  3
Standard
 10
11400.0
 20
-9775.0
 30
0.0
 11
11700.0
 21
-9703.75
 31
0.0
 70
32
 71
5
  1
600
100
AcDbAlignedDimension
 13
11400.0
 23
-9875.0
 33
0.0
 14
12000.0
 24
-9875.0
 34
0.0
 50
0.0
100
AcDbRotatedDimension
  0
TEXT
  5
401
330
17
100
AcDbEntity
  8
TEXT
100
AcDbText
 10
6000.0
 20
-10395.0
 30
0.0
 40
120.0
  1
2根
100
AcDbText
  0
DIMENSION
  5
402
330
17
100
AcDbEntity
  8
DIMENSION
 62
3
370
25
100
AcDbDimension
280
0
  2
*D53
  3
Standard
 10
-110.0
 20
-11025.0
 30
0.0
 11
-181.25
 21
-10850.0
 31
0.0
 70
32
 71
5
  1
350
100
AcDbAlignedDimension
 13
10.0
 23
-11025.0
 33
0.0
 14
10.0
 24
-10675.0
 34
0.0
 50
90.0
100
AcDbRotatedDimension
  0
LINE
  5
411
330
17
100
AcDbEntity
  8
TUBE
 62
7
370
35
100
AcDbLine
 10
0.0
 20
-10675.0
 30
0.0
 11
5200.0
 21
-10675.0
 31
0.0
  0
LINE
  5
412
330
17
100
AcDbEntity
  8
TUBE
 62
7
370
35
100
AcDbLine
 10
0.0
 20
-11025.0
 30
0.0
 11
5200.0
 21
-11025.0
 31
0.0
  0
LINE
  5
413
330
17
100
AcDbEntity
  8
TUBE
 62
7
370
35
100
AcDbLine
 10
0.0
 20
-10675.0
 30
0.0
 11
0.0
 21
-11025.0
 31
0.0
  0
LINE
  5
414
330
17
100
AcDbEntity
  8
TUBE
 62
7
370
35
100
AcDbLine
 10
5200.0
 20
-10675.0
 30
0.0
 11
5200.0
 21
-11025.0
 31
0.0
  0
DIMENSION
  5
415
330
17
100
AcDbEntity
  8
DIMENSION
 62
3
370
25
100
AcDbDimension
280
0
  2
*D54
  3
Standard
 10
0.0
 20
-10575.0
 30
0.0
 11
2600.0
 21
-10503.75
 31
0.0
 70
32
 71
5
  1
5200
100
AcDbAlignedDimension
 13
0.0
 23
-10675.0
 33
0.0
 14
5200.0
 24
-10675.0
 34
0.0
 50
0.0
100
AcDbRotatedDimension
  0
TEXT
  5
424
330
17
100
AcDbEntity
  8
TEXT
100
AcDbText
 10
2210.0
 20
-10910.0
 30
0.0
 40
120.0
  1
BRB-4500-5500
100
AcDbText
  0
LINE
  5
425
330
17
100
AcDbEntity
  8
TUBE
 62
7
370
35
100
AcDbLine
 10
5200.0
 20
-10675.0
 30
0.0
 11
10400.0
 21
-10675.0
 31
0.0
  0
LINE
  5
426
330
17
100
AcDbEntity
  8
TUBE
 62
7
370
35
100
AcDbLine
 10
5200.0
 20
-11025.0
 30
0.0
 11
10400.0
 21
-11025.0
 31
0.0
  0
LINE
  5
427
330
17
100
AcDbEntity
  8
TUBE
 62
7
370
35
100
AcDbLine
 10
10400.0
 20
-10675.0
 30
0.0
 11
10400.0
 21
-11025.0
 31
0.0
  0
DIMENSION
  5
428
330
17
100
AcDbEntity
  8
DIMENSION
 62
3
370
25
100
AcDbDimension
280
0
  2
*D55
  3
Standard
 10
5200.0
 20
-10575.0
 30
0.0
 11
7800.0
 21
-10503.75
 31
0.0
 70
32
 71
5
  1
5200
100
AcDbAlignedDimension
 13
5200.0
 23
-10675.0
 33
0.0
 14
10400.0
 24
-10675.0
 34
0.0
 50
0.0
100
AcDbRotatedDimension
  0
TEXT
  5
437
330
17
100
AcDbEntity
  8
TEXT
100
AcDbText
 10
7410.0
 20
-10910.0
 30
0.0
 40
120.0
  1
BRB-4500-5500
100
AcDbText
  0
LINE
  5
438
330
17
100
AcDbEntity
  8
TUBE
 62
7
370
35
100
AcDbLine
 10
10400.0
 20
-10675.0
 30
0.0
 11
12000.0
 21
-10675.0
 31
0.0
  0
LINE
  5
439
330
17
100
AcDbEntity
  8
TUBE
 62
7
370
35
100
AcDbLine
 10
10400.0
 20
-11025.0
 30
0.0
 11
12000.0
 21
-11025.0
 31
0.0
  0
LINE
  5
43A
330
17
100
AcDbEntity
  8
TUBE
 62
7
370
35
100
AcDbLine
 10
10400.0
 20
-10675.0
 30
0.0
 11
10400.0
 21
-11025.0
 31
0.0
  0
LINE
  5
43B
330
17
100
AcDbEntity
  8
TUBE
 62
7
370
35
100
AcDbLine
 10
12000.0
 20
-10675.0
 30
0.0
 11
12000.0
 21
-11025.0
 31
0.0
  0
DIMENSION
  5
43C
330
17
100
AcDbEntity
  8
DIMENSION
 62
3
370
25
100
AcDbDimension
280
0
  2
*D56
  3
Standard
 10
10400.0
 20
-10575.0
 30
0.0
 11
11200.0
 21
-10503.75
 31
0.0
 70
32
 71
5
  1
1600(+2900=4500)
100
AcDbAlignedDimension
 13
10400.0
 23
-10675.0
 33
0.0
 14
12000.0
 24
-10675.0
 34
0.0
 50
0.0
100
AcDbRotatedDimension
  0
TEXT
  5
44B
330
17
100
AcDbEntity
  8
TEXT
100
AcDbText
 10
10810.0
 20
-10910.0
 30
0.0
 40
120.0
  1
BRB-4500-4800
100
AcDbText
  0
TEXT
  5
44C
330
17
100
AcDbEntity
  8
TEXT
100
AcDbText
 10
6000.0
 20
-11195.0
 30
0.0
 40
120.0
  1
1根
100
AcDbText
  0
DIMENSION
  5
44D
330
17
100
AcDbEntity
  8
DIMENSION
 62
3
370
25
100
AcDbDimension
280
0
  2
*D57
  3
Standard
 10
-110.0
 20
-11825.0
 30
0.0
 11
-181.25
 21
-11650.0
 31
0.0
 70
32
 71
5
  1
350
100
AcDbAlignedDimension
 13
10.0
 23
-11825.0
 33
0.0
 14
10.0
 24
-11475.0
 34
0.0
 50
90.0
100
AcDbRotatedDimension
  0
LINE
  5
45C
330
17
100
AcDbEntity
  8
TUBE
 62
7
370
35
100
AcDbLine
 10
0.0
 20
-11475.0
 30
0.0
 11
2900.0
 21
-11475.0
 31
0.0
  0
LINE
  5
45D
330
17
100
AcDbEntity
  8
TUBE
 62
7
370
35
100
AcDbLine
 10
0.0
 20
-11825.0
 30
0.0
 11
2900.0
 21
-11825.0
 31
0.0
  0
LINE
  5
45E
330
17
100
AcDbEntity
  8
TUBE
 62
7
370
35
100
AcDbLine
 10
0.0
 20
-11475.0
 30
0.0
 11
0.0
 21
-11825.0
 31
0.0
  0
LINE
  5
45F
330
17
100
AcDbEntity
  8
TUBE
 62
7
370
35
100
AcDbLine
 10
2900.0
 20
-11475.0
 30
0.0
 11
2900.0
 21
-11825.0
 31
0.0
  0
DIMENSION
  5
460
330
17
100
AcDbEntity
  8
DIMENSION
 62
3
370
25
100
AcDbDimension
280
0
  2
*D58
  3
Standard
 10
0.0
 20
-11375.0
 30
0.0
 11
1450.0
 21
-11303.75
 31
0.0
 70
32
 71
5
  1
2900
100
AcDbAlignedDimension
 13
0.0
 23
-11475.0
 33
0.0
 14
2900.0
 24
-11475.0
 34
0.0
 50
0.0
100
AcDbRotatedDimension
  0
TEXT
  5
46F
330
17
100
AcDbEntity
  8
TEXT
100
AcDbText
 10
1060.0
 20
-11710.0
 30
0.0
 40
120.0
  1
BRB-4500-4800
100
AcDbText
  0
LINE
  5
470
330
17
100
AcDbEntity
  8
TUBE
 62
7
370
35
100
AcDbLine
 10
2900.0
 20
-11475.0
 30
0.0
 11
7400.0
 21
-11475.0
 31
0.0
  0
LINE
  5
471
330
17
100
AcDbEntity
  8
TUBE
 62
7
370
35
100
AcDbLine
 10
2900.0
 20
-11825.0
 30
0.0
 11
7400.0
 21
-11825.0
 31
0.0
  0
LINE
  5
472
330
17
100
AcDbEntity
  8
TUBE
 62
7
370
35
100
AcDbLine
 10
7400.0
 20
-11475.0
 30
0.0
 11
7400.0
 21
-11825.0
 31
0.0
  0
DIMENSION
  5
473
330
17
100
AcDbEntity
  8
DIMENSION
 62
3
370
25
100
AcDbDimension
280
0
  2
*D59
  3
Standard
 10
2900.0
 20
-11375.0
 30
0.0
 11
5150.0
 21
-11303.75
 31
0.0
 70
32
 71
5
  1
4500
100
AcDbAlignedDimension
 13
2900.0
 23
-11475.0
 33
0.0
 14
7400.0
 24
-11475.0
 34
0.0
 50
0.0
100
AcDbRotatedDimension
  0
TEXT
  5
482
330
17
100
AcDbEntity
  8
TEXT
100
AcDbText
 10
4760.0
 20
-11710.0
 30
0.0
 40
120.0
  1
BRB-4500-4800
100
AcDbText
  0
LINE
  5
483
330
17
100
AcDbEntity
  8
TUBE
 62
7
370
35
100
AcDbLine
 10
7400.0
 20
-11475.0
 30
0.0
 11
11900.0
 21
-11475.0
 31
0.0
  0
LINE
  5
484
330
17
100
AcDbEntity
  8
TUBE
 62
7
370
35
100
AcDbLine
 10
7400.0
 20
-11825.0
 30
0.0
 11
11900.0
 21
-11825.0
 31
0.0
  0
LINE
  5
485
330
17
100
AcDbEntity
  8
TUBE
 62
7
370
35
100
AcDbLine
 10
11900.0
 20
-11475.0
 30
0.0
 11
11900.0
 21
-11825.0
 31
0.0
  0
DIMENSION
  5
486
330
17
100
AcDbEntity
  8
DIMENSION
 62
3
370
25
100
AcDbDimension
280
0
  2
*D60
  3
Standard
 10
7400.0
 20
-11375.0
 30
0.0
 11
9650.0
 21
-11303.75
 31
0.0
 70
32
 71
5
  1
4500
100
AcDbAlignedDimension
 13
7400.0
 23
-11475.0
 33
0.0
 14
11900.0
 24
-11475.0
 34
0.0
 50
0.0
100
AcDbRotatedDimension
  0
TEXT
  5
495
330
17
100
AcDbEntity
  8
TEXT
100
AcDbText
 10
9260.0
 20
-11710.0
 30
0.0
 40
120.0
  1
BRB-4500-4800
100
AcDbText
  0
LINE
  5
496
330
17
100
AcDbEntity
  8
TUBE
 62
7
370
35
100
AcDbLine
 10
11900.0
 20
-11475.0
 30
0.0
 11
12000.0
 21
-11475.0
 31
0.0
  0
LINE
  5
497
330
17
100
AcDbEntity
  8
TUBE
 62
7
370
35
100
AcDbLine
 10
11900.0
 20
-11825.0
 30
0.0
 11
12000.0
 21
-11825.0
 31
0.0
  0
LINE
  5
498
330
17
100
AcDbEntity
  8
TUBE
 62
7
370
35
100
AcDbLine
 10
11900.0
 20
-11475.0
 30
0.0
 11
11900.0
 21
-11825.0
 31
0.0
  0
LINE
  5
499
330
17
100
AcDbEntity
  8
TUBE
 62
7
370
35
100
AcDbLine
 10
12000.0
 20
-11475.0
 30
0.0
 11
12000.0
 21
-11825.0
 31
0.0
  0
DIMENSION
  5
49A
330
17
100
AcDbEntity
  8
DIMENSION
 62
3
370
25
100
AcDbDimension
280
0
  2
*D61
  3
Standard
 10
11900.0
 20
-11375.0
 30
0.0
 11
11950.0
 21
-11303.75
 31
0.0
 70
32
 71
5
  1
余100
100
AcDbAlignedDimension
 13
11900.0
 23
-11475.0
 33
0.0
 14
12000.0
 24
-11475.0
 34
0.0
 50
0.0
100
AcDbRotatedDimension
  0
TEXT
  5
4AB
330
17
100
AcDbEntity
  8
TEXT
100
AcDbText
 10
6000.0
 20
-11995.0
 30
0.0
 40
120.0
  1
1根
100
AcDbText
  0
DIMENSION
  5
4AC
330
17
100
AcDbEntity
  8
DIMENSION
 62
3
370
25
100
AcDbDimension
280
0
  2
*D62
  3
Standard
 10
-110.0
 20
-12625.0
 30
0.0
 11
-181.25
 21
-12450.0
 31
0.0
 70
32
 71
5
  1
350
100
AcDbAlignedDimension
 13
10.0
 23
-12625.0
 33
0.0
 14
10.0
 24
-12275.0
 34
0.0
 50
90.0
100
AcDbRotatedDimension
  0
LINE
  5
4BB
330
17
100
AcDbEntity
  8
TUBE
 62
7
370
35
100
AcDbLine
 10
0.0
 20
-12275.0
 30
0.0
 11
4500.0
 21
-12275.0
 31
0.0
  0
LINE
  5
4BC
330
17
100
AcDbEntity
  8
TUBE
 62
7
370
35
100
AcDbLine
 10
0.0
 20
-12625.0
 30
0.0
 11
4500.0
 21
-12625.0
 31
0.0
  0
LINE
  5
4BD
330
17
100
AcDbEntity
  8
TUBE
 62
7
370
35
100
AcDbLine
 10
0.0
 20
-12275.0
 30
0.0
 11
0.0
 21
-12625.0
 31
0.0
  0
LINE
  5
4BE
330
17
100
AcDbEntity
  8
TUBE
 62
7
370
35
100
AcDbLine
 10
4500.0
 20
-12275.0
 30
0.0
 11
4500.0
 21
-12625.0
 31
0.0
  0
DIMENSION
  5
4BF
330
17
100
AcDbEntity
  8
DIMENSION
 62
3
370
25
100
AcDbDimension
280
0
  2
*D63
  3
Standard
 10
0.0
 20
-12175.0
 30
0.0
 11
2250.0
 21
-12103.75
 31
0.0
 70
32
 71
5
  1
4500
100
AcDbAlignedDimension
 13
0.0
 23
-12275.0
 33
0.0
 14
4500.0
 24
-12275.0
 34
0.0
 50
0.0
100
AcDbRotatedDimension
  0
TEXT
  5
4CE
330
17
100
AcDbEntity
  8
TEXT
100
AcDbText
 10
1860.0
 20
-12510.0
 30
0.0
 40
120.0
  1
BRB-4500-4800
100
AcDbText
  0
LINE
  5
4CF
330
17
100
AcDbEntity
  8
TUBE
 62
7
370
35
100
AcDbLine
 10
4500.0
 20
-12275.0
 30
0.0
 11
9000.0
 21
-12275.0
 31
0.0
  0
LINE
  5
4D0
330
17
100
AcDbEntity
  8
TUBE
 62
7
370
35
100
AcDbLine
 10
4500.0
 20
-12625.0
 30
0.0
 11
9000.0
 21
-12625.0
 31
0.0
  0
LINE
  5
4D1
330
17
100
AcDbEntity
  8
TUBE
 62
7
370
35
100
AcDbLine
 10
9000.0
 20
-12275.0
 30
0.0
 11
9000.0
 21
-12625.0
 31
0.0
  0
DIMENSION
  5
4D2
330
17
100
AcDbEntity
  8
DIMENSION
 62
3
370
25
100
AcDbDimension
280
0
  2
*D64
  3
Standard
 10
4500.0
 20
-12175.0
 30
0.0
 11
6750.0
 21
-12103.75
 31
0.0
 70
32
 71
5
  1
4500
100
AcDbAlignedDimension
 13
4500.0
 23
-12275.0
 33
0.0
 14
9000.0
 24
-12275.0
 34
0.0
 50
0.0
100
AcDbRotatedDimension
  0
TEXT
  5
4E1
330
17
100
AcDbEntity
  8
TEXT
100
AcDbText
 10
6360.0
 20
-12510.0
 30
0.0
 40
120.0
  1
BRB-4500-4800
100
AcDbText
  0
LINE
  5
4E2
330
17
100
AcDbEntity
  8
TUBE
 62
7
370
35
100
AcDbLine
 10
9000.0
 20
-12275.0
 30
0.0
 11
12000.0
 21
-12275.0
 31
0.0
  0
LINE
  5
4E3
330
17
100
AcDbEntity
  8
TUBE
 62
7
370
35
100
AcDbLine
 10
9000.0
 20
-12625.0
 30
0.0
 11
12000.0
 21
-12625.0
 31
0.0
  0
LINE
  5
4E4
330
17
100
AcDbEntity
  8
TUBE
 62
7
370
35
100
AcDbLine
 10
9000.0
 20
-12275.0
 30
0.0
 11
9000.0
 21
-12625.0
 31
0.0
  0
LINE
  5
4E5
330
17
100
AcDbEntity
  8
TUBE
 62
7
370
35
100
AcDbLine
 10
12000.0
 20
-12275.0
 30
0.0
 11
12000.0
 21
-12625.0
 31
0.0
  0
DIMENSION
  5
4E6
330
17
100
AcDbEntity
  8
DIMENSION
 62
3
370
25
100
AcDbDimension
280
0
  2
*D65
  3
Standard
 10
9000.0
 20
-12175.0
 30
0.0
 11
10500.0
 21
-12103.75
 31
0.0
 70
32
 71
5
  1
余3000
100
AcDbAlignedDimension
 13
9000.0
 23
-12275.0
 33
0.0
 14
12000.0
 24
-12275.0
 34
0.0
 50
0.0
100
AcDbRotatedDimension
  0
TEXT
  5
4F5
330
17
100
AcDbEntity
  8
TEXT
100
AcDbText
 10
6000.0
 20
-12795.0
 30
0.0
 40
120.0
  1
1根
100
AcDbText
  0
TEXT
  5
4F6
330
17
100
AcDbEntity
  8
TEXT
100
AcDbText
 10
0.0
 20
-15450.0
 30
0.0
 40
200.0
  1
全局不再使用的余料总和：14800mm
 41
0.8
100
AcDbText
  0
ENDSEC
  0
SECTION
  2
OBJECTS
  0
DICTIONARY
  5
A
330
0
100
AcDbDictionary
281
1
  3
ACAD_COLOR
350
B
  3
ACAD_GROUP
350
C
  3
ACAD_LAYOUT
350
D
  3
ACAD_MATERIAL
350
E
  3
ACAD_MLEADERSTYLE
350
F
  3
ACAD_MLINESTYLE
350
10
  3
ACAD_PLOTSETTINGS
350
11
  3
ACAD_PLOTSTYLENAME
350
12
  3
ACAD_SCALELIST
350
14
  3
ACAD_TABLESTYLE
350
15
  3
ACAD_VISUALSTYLE
350
16
  3
EZDXF_META
350
2D
  0
DICTIONARY
  5
B
330
A
100
AcDbDictionary
281
1
  0
DICTIONARY
  5
C
330
A
100
AcDbDictionary
281
1
  0
DICTIONARY
  5
D
330
A
100
AcDbDictionary
281
1
  3
Model
350
1A
  3
Layout1
350
1E
  0
DICTIONARY
  5
E
330
A
100
AcDbDictionary
281
1
  3
ByBlock
350
1F
  3
ByLayer
350
20
  3
Global
350
21
  0
DICTIONARY
  5
F
330
A
100
AcDbDictionary
281
1
  3
Standard
350
2C
  0
DICTIONARY
  5
10
330
A
100
AcDbDictionary
281
1
  3
Standard
350
22
  0
DICTIONARY
  5
11
330
A
100
AcDbDictionary
281
1
  0
ACDBDICTIONARYWDFLT
  5
12
330
A
100
AcDbDictionary
281
1
  3
Normal
350
13
100
AcDbDictionaryWithDefault
340
13
  0
ACDBPLACEHOLDER
  5
13
330
12
  0
DICTIONARY
  5
14
330
A
100
AcDbDictionary
281
1
  0
DICTIONARY
  5
15
330
A
100
AcDbDictionary
281
1
  0
DICTIONARY
  5
16
330
A
100
AcDbDictionary
281
1
  0
LAYOUT
  5
1A
330
D
100
AcDbPlotSettings
  1

  4
A3
  6

 40
7.5
 41
20.0
 42
7.5
 43
20.0
 44
420.0
 45
297.0
 46
0.0
 47
0.0
 48
0.0
 49
0.0
140
0.0
141
0.0
142
1.0
143
1.0
 70
1024
 72
1
 73
0
 74
5
  7

 75
16
 76
0
 77
2
 78
300
147
1.0
148
0.0
149
0.0
100
AcDbLayout
  1
Model
 70
1
 71
0
 10
0.0
 20
0.0
 11
420.0
 21
297.0
 12
0.0
 22
0.0
 32
0.0
 14
1e+20
 24
1e+20
 34
1e+20
 15
-1e+20
 25
-1e+20
 35
-1e+20
146
0.0
 13
0.0
 23
0.0
 33
0.0
 16
1.0
 26
0.0
 36
0.0
 17
0.0
 27
1.0
 37
0.0
 76
1
330
17
  0
LAYOUT
  5
1E
330
D
100
AcDbPlotSettings
  1

  4
A3
  6

 40
7.5
 41
20.0
 42
7.5
 43
20.0
 44
420.0
 45
297.0
 46
0.0
 47
0.0
 48
0.0
 49
0.0
140
0.0
141
0.0
142
1.0
143
1.0
 70
0
 72
1
 73
0
 74
5
  7

 75
16
 76
0
 77
2
 78
300
147
1.0
148
0.0
149
0.0
100
AcDbLayout
  1
Layout1
 70
1
 71
1
 10
0.0
 20
0.0
 11
420.0
 21
297.0
 12
0.0
 22
0.0
 32
0.0
 14
1e+20
 24
1e+20
 34
1e+20
 15
-1e+20
 25
-1e+20
 35
-1e+20
146
0.0
 13
0.0
 23
0.0
 33
0.0
 16
1.0
 26
0.0
 36
0.0
 17
0.0
 27
1.0
 37
0.0
 76
1
330
1B
  0
MATERIAL
  5
1F
102
{ACAD_REACTORS
330
E
102
}
330
E
100
AcDbMaterial
  1
ByBlock
  2

 70
0
 40
1.0
 71
1
 41
1.0
 91
-1023410177
 42
1.0
 72
1
  3

 73
1
 74
1
 75
1
 44
0.5
 73
0
 45
1.0
 46
1.0
 77
1
  4

 78
1
 79
1
170
1
 48
1.0
171
1
  6

172
1
173
1
174
1
140
1.0
141
1.0
175
1
  7

176
1
177
1
178
1
143
1.0
179
1
  8

270
1
271
1
272
1
145
1.0
146
1.0
273
1
  9

274
1
275
1
276
1
 42
1.0
 72
1
  3

 73
1
 74
1
 75
1
 94
63
  0
MATERIAL
  5
20
102
{ACAD_REACTORS
330
E
102
}
330
E
100
AcDbMaterial
  1
ByLayer
  2

 70
0
 40
1.0
 71
1
 41
1.0
 91
-1023410177
 42
1.0
 72
1
  3

 73
1
 74
1
 75
1
 44
0.5
 73
0
 45
1.0
 46
1.0
 77
1
  4

 78
1
 79
1
170
1
 48
1.0
171
1
  6

172
1
173
1
174
1
140
1.0
141
1.0
175
1
  7

176
1
177
1
178
1
143
1.0
179
1
  8

270
1
271
1
272
1
145
1.0
146
1.0
273
1
  9

274
1
275
1
276
1
 42
1.0
 72
1
  3

 73
1
 74
1
 75
1
 94
63
  0
MATERIAL
  5
21
102
{ACAD_REACTORS
330
E
102
}
330
E
100
AcDbMaterial
  1
Global
  2

 70
0
 40
1.0
 71
1
 41
1.0
 91
-1023410177
 42
1.0
 72
1
  3

 73
1
 74
1
 75
1
 44
0.5
 73
0
 45
1.0
 46
1.0
 77
1
  4

 78
1
 79
1
170
1
 48
1.0
171
1
  6

172
1
173
1
174
1
140
1.0
141
1.0
175
1
  7

176
1
177
1
178
1
143
1.0
179
1
  8

270
1
271
1
272
1
145
1.0
146
1.0
273
1
  9

274
1
275
1
276
1
 42
1.0
 72
1
  3

 73
1
 74
1
 75
1
 94
63
  0
MLINESTYLE
  5
22
102
{ACAD_REACTORS
330
10
102
}
330
10
100
AcDbMlineStyle
  2
Standard
 70
0
  3

 62
256
 51
90.0
 52
90.0
 71
2
 49
0.5
 62
256
  6
BYLAYER
 49
-0.5
 62
256
  6
BYLAYER
  0
MLEADERSTYLE
  5
2C
102
{ACAD_REACTORS
330
F
102
}
330
F
100
AcDbMLeaderStyle
179
2
170
2
171
1
172
0
 90
2
 40
0.0
 41
0.0
173
1
 91
-1056964608
 92
-2
290
1
 42
2.0
291
1
 43
8.0
  3
Standard
 44
4.0
300

342
29
174
1
175
1
176
0
178
1
 93
-1056964608
 45
4.0
292
0
297
0
 46
4.0
 94
-1056964608
 47
1.0
 49
1.0
140
1.0
294
1
141
0.0
177
0
142
1.0
295
0
296
0
143
3.75
271
0
272
9
273
9
  0
DICTIONARY
  5
2D
330
A
100
AcDbDictionary
280
1
281
1
  3
CREATED_BY_EZDXF
350
2E
  3
WRITTEN_BY_EZDXF
350
4F9
  0
DICTIONARYVAR
  5
2E
330
2D
100
DictionaryVariables
280
0
  1
1.4.3 @ 2026-01-28T05:19:45.742441+00:00
  0
DICTIONARYVAR
  5
4F9
330
2D
100
DictionaryVariables
280
0
  1
1.4.3 @ 2026-01-28T05:19:45.964352+00:00
  0
ENDSEC
  0
EOF
